<svg xmlns="http://www.w3.org/2000/svg" viewBox="0 0 291.37 362.02"><defs><style>.cls-1{fill:#ff7bac;}.cls-2{fill:#ffb6d4;}.cls-3{fill:#ff0;}</style></defs><title>Banana Phone</title><g id="Layer_2" data-name="Layer 2"><g id="Layer_1-2" data-name="Layer 1"><g id="Banana_Phone" data-name="Banana Phone"><path class="cls-1" d="M150.77,361.54c1.37-24,2.4-48.55,3.76-72.54.41-7.08.8-14.26-.67-21.2s-5.07-13.72-11.07-17.5c-5-3.18-11.18-3.94-17.1-4.52a489.47,489.47,0,0,0-59.56-2.18L62,251.36s-28.6-3.27-37.12,11.49c-10.82,18.73-24.4,94-24.4,94Z"/><path class="cls-2" d="M60.32,275.27a1.85,1.85,0,0,0-.37,1.11,65,65,0,0,0-.25,9.15l11.08.67c1.23.08,2.71,0,3.36-1a3.41,3.41,0,0,0,.35-1.65c.09-2.38.06-4.77-.07-7.15a2,2,0,0,0-.64-1.64,2,2,0,0,0-1.15-.2l-10.92.31A1.87,1.87,0,0,0,60.32,275.27Z"/><path class="cls-2" d="M95.79,275.42a2.32,2.32,0,0,0-2.91-3q-5,.26-10.06.7a1.15,1.15,0,0,0-1.24,1.5l.33,11.12q6.7-.19,13.42-.54C95.48,282,95.64,278.69,95.79,275.42Z"/><path class="cls-2" d="M103.27,272.87q.49,5.52,1,11a80.24,80.24,0,0,0,15,.54,1.36,1.36,0,0,0,1.57-1.58l.68-8.48a1.36,1.36,0,0,0-1.52-1.71,103.14,103.14,0,0,0-15.4-1.12,1.44,1.44,0,0,0-1.2.41A1.35,1.35,0,0,0,103.27,272.87Z"/><path class="cls-2" d="M70.88,308.79a1.57,1.57,0,0,0,1.25-.3,1.53,1.53,0,0,0,.32-.81,65.07,65.07,0,0,0,.91-14.21,30,30,0,0,1-12.71.88,2.09,2.09,0,0,0-2,1.32,6.07,6.07,0,0,0-.37,2.58l0,9.92Z"/><path class="cls-2" d="M80.2,306.33c4.92.67,10,1.33,14.75-.14q.61-5.87.88-11.75a1.59,1.59,0,0,0-2-2.08l-12.12.81c-.66.05-.87.89-.91,1.55Z"/><path class="cls-2" d="M119.56,292.46a1.22,1.22,0,0,0-1.49-1.67l-12,1.1c-1.12.11-2.59.63-2.43,1.74a34.73,34.73,0,0,1-.23,11.64,36.13,36.13,0,0,1,15-1.43Q119.1,298.17,119.56,292.46Z"/><path class="cls-2" d="M115.89,323.41,117,311.12l-7.47.05a8.62,8.62,0,0,0-3.36.48,5.79,5.79,0,0,0-3.07,4.12,16.88,16.88,0,0,0-.08,5.31,1.85,1.85,0,0,0,.36,1.15,1.93,1.93,0,0,0,1.1.47A50.12,50.12,0,0,0,115.89,323.41Z"/><path class="cls-2" d="M78.56,327.43a17.53,17.53,0,0,1,6-2l9.95-1.83c.19-3.13.37-6.27.55-9.4l-12.77.42c-1.38.05-3.24.58-3.14,2a57.1,57.1,0,0,1,0,8.87"/><path class="cls-2" d="M112.74,335.39c.11-.65.12-1.49-.48-1.76a1.47,1.47,0,0,0-.78-.06l-10.68,1.09c-1.08.11-1.5,1.45-1.63,2.53a56.19,56.19,0,0,0-.33,10,47.63,47.63,0,0,0,10.74-.33,1.93,1.93,0,0,0,1-.37,2,2,0,0,0,.49-1.21Z"/><path class="cls-2" d="M59.09,330.7c-1.22-.16-2.82-.81-2.58-2a1.66,1.66,0,0,1,1.91-1.07,9.76,9.76,0,0,1,2.25.86,12.72,12.72,0,0,0,5.7.46,1.65,1.65,0,0,0,1.21-.43,1.75,1.75,0,0,0,.27-.88l.93-9a2.11,2.11,0,0,0-2.92-2.69l-6.46.93c-1.72.25-3.94,1.09-3.74,2.82A21.1,21.1,0,0,1,54.29,330"/><path class="cls-2" d="M79,351.56a1.19,1.19,0,0,1,0-1.76,3.44,3.44,0,0,1,1.86-.7l9.78-1.66c.19-3.7.37-7.41.56-11.11a2.21,2.21,0,0,0-.27-1.44c-.46-.59-1.34-.54-2.08-.43l-9.72,1.38c-1.22.17-2.78.72-2.74,2q.18,5,.34,10a3.79,3.79,0,0,1-.39,2.22c-.43.63-1.48.89-2,.29"/><path class="cls-2" d="M62.07,353.05a44.42,44.42,0,0,0-10.77-1.38c.56-1.63,2.43-2.49,4.16-2.51a19.31,19.31,0,0,1,5.06,1,1.93,1.93,0,0,0,1.82-.17,2,2,0,0,0,.46-1.25L64,339a1.41,1.41,0,0,0-.2-1.16,1.44,1.44,0,0,0-1.17-.25l-9.4.86a2.06,2.06,0,0,0-.78.17c-.76.37-.83,1.41-.83,2.26a30,30,0,0,1-2,10.92c-.26.64-1.09,1.36-1.47.79"/><path class="cls-1" d="M66.29,243.24c-21.62.54-13.54-18.51-14.3-24.14-7.17,6.73-8.27,15.35-6.69,22.81.79,3.74,3.11,7.78,6.91,8.16,1.76.18,3.48-.49,5.24-.68s3.87.33,4.53,2"/><path class="cls-1" d="M63,209l2.1-.65c0-1.27-1.75-1.91-2.91-1.4a5.92,5.92,0,0,0-2.47,2.81,5.93,5.93,0,0,0,3.24-.81Z"/><path class="cls-1" d="M77.81,213.3c-2,5.58-11.85,12.95-17,10.07s-6.07-10.47-2.39-15.12A8.88,8.88,0,0,0,62.76,201a14.46,14.46,0,0,0-9.26,16.63c1.67,6.77,9.09,11.66,16,10.46A14.18,14.18,0,0,0,81,212"/><path class="cls-1" d="M72.65,181.55c-1.32.41-1.7.73-1.83,1.11-2,5.84-7.41,13.65-5.89,20,1.41,5.92,8.4,9.26,14.4,8.23s10.94-5.4,14.54-10.31c-2.13-2.47-5.76.65-8.15,2.86-4.19,3.89-11.42,4.81-15.54.83-3.08-3-1.85-10.77,6.51-6.82.56.26,6.2.11,7-.33s-3.3-1.18-2.28-.8c0,0-8.89-8.8-9-10A36.75,36.75,0,0,1,72.65,181.55Z"/><path class="cls-1" d="M89.48,172.36c.21-1,10,1.93,15.24,5.88a8.71,8.71,0,0,1,3,9.84,14,14,0,0,1-8,8.44c-4.65,2-8.28,1.58-11.94.78a16.26,16.26,0,0,1-11.94-11c-3-11.59,6.78-18.54,12.3-18.54-.36.29.12,2.57.12,2.57s-4.14,2-4.92,2.87A11.79,11.79,0,0,0,81,185.36a13.84,13.84,0,0,0,8.3,7.52,16.06,16.06,0,0,0,11.24-.3c1.84-.85,5-4.45,4.72-6.86-.39-3.66-3.83-4.68-7.34-5.38-2.07-.41-3-2.56-5.76-3.63-4.67-1.85-7,.1-6.75-.34a2.18,2.18,0,0,1,.61-2.64A5.69,5.69,0,0,1,89.48,172.36Z"/><path class="cls-1" d="M99,163.83a8.55,8.55,0,0,1,8.89-1.51,7.08,7.08,0,0,1,4,7.81c-1.17,4.71-8,6.32-11.81,3.35s-4.52-8.82-2.54-13.25,6.07-7.58,10.39-9.78,9-3.62,13.37-5.71A30.5,30.5,0,0,0,91,162.19a7,7,0,0,0-.77,4.61,7.7,7.7,0,0,0,3,3.71c4,3.19,8.61,6.22,13.71,6s10.18-5.22,8.56-10.06-7.59-5.83-12.53-6.17a8.06,8.06,0,0,0-3.16.6,5.55,5.55,0,0,0-.9,1.09Z"/><path class="cls-3" d="M187.41,14.69c-4.77-.45-7.46-7.22-4.3-10.81-.49-2.29-3.88-2.63-5.77-1.25s-2.84,3.68-4.28,5.52-4,3.32-6.06,2.16c-3.24-1.87-7.54-.82-10.45,1.54s-4.73,5.77-6.43,9.11c-10.07,19.64-18.88,40.06-24,61.53s-6.42,44.09-1.52,65.61c9.73,42.65,42.65,76.55,79.24,100.53,11.3,7.41,23.24,14.17,36.28,17.72,6.28,1.7,12.89,2.65,19.3,1.53,7.47-1.3,14.15-5.28,20.63-9.19,4.81-2.9,10.35-7.83,8.18-13s-9.73-5-13.28-9.17c-1.88-2.22-2.32-5.29-3.52-7.94-2.29-5-7.28-8.37-12.48-10.26s-10.74-2.59-16.11-3.94c-15.37-3.87-29.09-13.14-39.7-24.92s-18.27-26-23.91-40.81c-5.06-13.3-8.6-27.49-7.41-41.67,2-24,17-44.81,24-67.89,1.42-4.74,2.51-9.78,1.42-14.6s-4.9-9.34-9.82-9.8"/><path d="M68.25,241.2a370.4,370.4,0,0,1,58.91,2.08c6.33.73,12.88,1.71,18.22,5.19,6.43,4.2,10.25,11.56,11.8,19.08s1.1,15.28.65,22.95l-4.07,68.41a3.87,3.87,0,0,1-.92,2.77c-.75.67-2.3.29-2.24-.71q2-36,4.09-72c.41-7.08.8-14.26-.67-21.2S149,254.08,143,250.3c-5-3.18-11.18-3.94-17.1-4.52a489.47,489.47,0,0,0-59.56-2.18c-.68-.26-.65-1.33-.1-1.82A3.24,3.24,0,0,1,68.25,241.2Z"/><path d="M45.3,241.91c.79,3.74,3.11,7.78,6.91,8.16,1.76.18,3.48-.49,5.24-.68s3.87.33,4.53,2c-5.62,1.41-11.57-.18-17.33.48C35,253,27,260.44,22.48,269.11s-6,18.5-7.7,28.11q-5,29-12,57.66c-.29,1.17-1.33,2.66-2.31,2-.58-.41-.5-1.28-.36-2L9.37,309.3q1.59-7.85,3.19-15.7c2-9.71,4-19.61,9.07-28.14s13.68-15.58,23.57-16c-2.06-5.1-3.74-10.54-3.23-16s3.66-11,8.81-12.92A25.28,25.28,0,0,0,45.3,241.91Z"/><path d="M101.94,331.79,113,330.6c.92-.1,2-.12,2.57.62a2.7,2.7,0,0,1,.19,2.15q-1.26,6.78-2.54,13.57a4.2,4.2,0,0,1-1.34,2.83,4.14,4.14,0,0,1-2.41.5l-12.12,0c-.4,0-.86,0-1.07-.36a1.15,1.15,0,0,1-.12-.61,75.73,75.73,0,0,1,.67-12.13c.24-1.72.65-3.62,2.09-4.59a6.46,6.46,0,0,1,3-.83m10.9,3.53c.1-.65.11-1.49-.49-1.76a1.46,1.46,0,0,0-.78-.06l-10.67,1.09c-1.09.11-1.51,1.44-1.64,2.52a56.33,56.33,0,0,0-.32,10,48.22,48.22,0,0,0,10.74-.33,1.9,1.9,0,0,0,1-.37,1.94,1.94,0,0,0,.5-1.21Z"/><path d="M101.71,300.48c.19-2.07-.61-4.11-.67-6.19s1-4.53,3.13-4.69l14.31-1.11a3.94,3.94,0,0,1,2,.2c1.45.7,1.5,2.7,1.34,4.3l-1,9.61c-.11,1.1-.32,2.37-1.28,2.92a3.58,3.58,0,0,1-1.52.33l-13.65.91a3.85,3.85,0,0,1-1.82-.18,2.89,2.89,0,0,1-1.41-2.81c0-1.11.41-2.18.51-3.29m17.81-8.13c0-.54,0-1.19-.4-1.51a1.63,1.63,0,0,0-1.09-.16l-12,1.1c-1.12.1-2.59.63-2.43,1.74a34.67,34.67,0,0,1-.23,11.63,36.29,36.29,0,0,1,15-1.42Q119.06,298.06,119.52,292.35Z"/><path d="M98.52,197c4.55-1.6,8.66-5.29,9.45-10.05s-2.82-10.17-7.65-10.2c-3.16,0-5.57-2.74-8.46-4s-7.62.7-6.43,3.62a10.27,10.27,0,0,1,12.3,5.72,15.35,15.35,0,0,0-11.48-3.65,5,5,0,0,0-3,1.09c-2.16,2-.37,5.62,1.76,7.66,3.34,3.21,8.08,5.73,12.51,4.35s6.55-8.31,2.61-10.76c3.49-.43,6.06,4.06,4.83,7.35s-4.85,5.12-8.34,5.57c-6.3.81-13.23-2.46-15.62-8.34s1.07-13.74,7.28-15c-1.63-8.08,3.13-16.44,9.86-21.22s15.08-6.61,23.25-7.76c-4.94-21-2.75-43.27,3.1-64.07s15.25-40.42,24.87-59.77c2.15-4.31,5-9.15,9.79-9.82,2.4-.33,4.79.5,7.21.63s5.28-.86,5.88-3.21C173.33,1,178.82-1.33,182.52.83s4.4,8.07,1.3,11c7.23-1.19,14,5.33,15.49,12.49s-.75,14.56-3.42,21.38c-8.24,21.06-20.46,41.32-21.66,63.91-.67,12.47,2.13,24.93,6.49,36.64a140.48,140.48,0,0,0,18.9,34.78c8.59,11.58,19.41,22.09,32.93,27.1,8,3,16.62,3.89,24.64,6.8s15.83,8.52,17.89,16.79c1.55,6.22,11.13,6.09,14.85,11.31,2.5,3.51,1.51,8.6-1.14,12s-6.6,5.49-10.42,7.48c-6.45,3.37-13.07,6.79-20.29,7.72A44.58,44.58,0,0,1,242,269c-13.65-3.26-26.17-10.11-38-17.68-36.71-23.54-69.5-56.86-81.16-98.88-.85-3.05-4.61-4.49-7.71-3.87s-5.67,2.71-8.1,4.74c-2.92,2.45-6,5-7.49,8.51s-1.11,8.16,2,10.36,8.6-.14,8.21-3.93c-.46-4.36-6.5-5.09-10.84-4.42a8.57,8.57,0,0,1,8.9-1.51,7.08,7.08,0,0,1,4,7.81c-1.16,4.71-8,6.32-11.8,3.35s-4.52-8.82-2.54-13.25,6.06-7.58,10.38-9.78,9-3.62,13.38-5.71A30.51,30.51,0,0,0,91,162.19a7.13,7.13,0,0,0-.77,4.61,7.76,7.76,0,0,0,3,3.71c4,3.19,8.62,6.22,13.72,6s10.18-5.22,8.55-10.06-7.58-5.83-12.52-6.18c5-2.95,12.39-.28,14.35,5.19s-2,12.23-7.77,13.13c3.11,7.21-.7,16.61-8,19.63-2.71,1.12-6.23,1.9-7,4.74-2.2,8.1-16.28,7.07-19.12,15-2,5.58-9.47,8.38-14.65,5.5s-6.74-10.69-3.07-15.34c1.83-2.31,4.77-4.11,5.05-7a14,14,0,0,0,6.69,27,14.46,14.46,0,0,0,11.45-15.2c3.22,5,.61,12.27-4.51,15.26s-11.79,2.25-17-.54c-4.12-2.19-8.39,4.3-6.29,8.47s7.12,5.78,11.62,7c-4.6,4.16-12.17-1.33-13.43-7.41s.73-12.46-.45-18.55c-.9-4.64,2-9.09,4.72-13l15.27-21.5c-1.6,6.88-7.51,13.13-5.87,20,1.41,5.92,8.39,9.26,14.4,8.23s10.93-5.4,14.53-10.32c-2.12-2.47-5.75.66-8.14,2.87-4.2,3.89-11.43,4.8-15.54.83S68,191.68,73.65,191c-4.65-9.64,3.32-22.82,14-23.17-8.81.87-14.61,11.7-11.32,19.92S90.16,199.94,98.52,197M187.42,14.5c-4.76-.44-7.45-7.22-4.29-10.81-.49-2.29-3.89-2.63-5.78-1.25S174.51,6.12,173.07,8s-4,3.32-6,2.15c-3.25-1.87-7.55-.81-10.45,1.55s-4.73,5.77-6.44,9.1c-10.06,19.64-18.88,40.06-24,61.53s-6.41,44.09-1.51,65.61c9.72,42.65,42.64,76.56,79.24,100.53,11.3,7.41,23.23,14.17,36.28,17.72,6.27,1.71,12.89,2.65,19.3,1.54,7.46-1.31,14.14-5.29,20.63-9.2,4.8-2.9,10.35-7.82,8.18-13s-9.73-5-13.29-9.17c-1.88-2.22-2.32-5.28-3.52-7.93-2.28-5-7.28-8.38-12.47-10.27s-10.75-2.59-16.11-3.94c-15.38-3.87-29.09-13.14-39.71-24.92s-18.27-26-23.91-40.8c-5.06-13.3-8.59-27.5-7.41-41.68,2-24,17-44.81,24-67.89,1.43-4.73,2.51-9.77,1.42-14.6s-4.89-9.34-9.82-9.8M66.94,209.9c-2.3,1.15-5.18,1.06-7.17,2.69a5.32,5.32,0,0,0,.24,8c2.1,1.52,5,1.23,7.51.73,2.28-.44,4.72-1.09,6.16-2.92s1.09-5.12-1.13-5.81a19.86,19.86,0,0,1-5.61-2.73m5-13.91a3.1,3.1,0,0,1,4.8,1.45c-1.6-.35-3.33-.68-4.81,0s-2.3,2.91-1.09,4a3.79,3.79,0,0,0,1.46.69l4.17,1.3a10,10,0,0,0,4.88.66c2.1-.43,3.67-2.12,5.09-3.73a1.78,1.78,0,0,0,.58-1.07c0-.94-1.23-1.23-2.17-1.33a12.53,12.53,0,0,1-6.11-2.41c-1.32-1-2.56-2.29-4.19-2.52S71,194.61,71.89,196m-9,13,2.1-.64c0-1.27-1.75-1.91-2.91-1.4a6,6,0,0,0-2.47,2.81,6.07,6.07,0,0,0,3.25-.81Z"/><path d="M101.92,284.6l-.77-10.38c-.1-1.32-.14-2.8.76-3.76s2.52-1,3.9-.93l14.4.8c1.21.07,2.55.21,3.32,1.14a4.42,4.42,0,0,1,.58,3.21q-.3,3.66-.72,7.32c-.16,1.37-.41,2.9-1.51,3.74a5.17,5.17,0,0,1-2.77.78,82.55,82.55,0,0,1-15.56-.29,1.9,1.9,0,0,1-1.29-.49,2,2,0,0,1-.34-1.14m1.45-11.8,1,11a80.1,80.1,0,0,0,15,.54,1.86,1.86,0,0,0,1.16-.35,1.81,1.81,0,0,0,.41-1.23l.68-8.48a1.85,1.85,0,0,0-.11-1,1.82,1.82,0,0,0-1.41-.69,102.91,102.91,0,0,0-15.39-1.12,1.05,1.05,0,0,0-1.34,1.32Z"/><path d="M73.94,309.93c-1,.9-2.44.95-3.77,1L55.82,311q.26-6.3.5-12.59c.08-2.11.38-4.59,2.23-5.62a7,7,0,0,1,4-.37,29.18,29.18,0,0,0,10.39-1,2.25,2.25,0,0,1,2.44,1.3,6.31,6.31,0,0,1,.46,2.93,106.71,106.71,0,0,1-.62,10.87,5.33,5.33,0,0,1-1.27,3.48m-3-1.07a1.16,1.16,0,0,0,1.56-1.12,64.42,64.42,0,0,0,.91-14.21,29.79,29.79,0,0,1-12.7.88,2.11,2.11,0,0,0-2.06,1.33,6,6,0,0,0-.36,2.57c0,3.31,0,6.61,0,9.92Z"/><path d="M92.45,349.47a3.65,3.65,0,0,1-2.24.84l-10.09,1.38a1.75,1.75,0,0,1-1.2-.13,1.18,1.18,0,0,1,0-1.76,3.41,3.41,0,0,1,1.85-.7l9.79-1.66c.18-3.7.37-7.41.55-11.11a2.09,2.09,0,0,0-.27-1.44c-.45-.59-1.34-.54-2.08-.43l-9.71,1.38c-1.23.17-2.78.72-2.74,2l.33,10a3.64,3.64,0,0,1-.39,2.22c-.43.63-1.48.89-2,.29a1.86,1.86,0,0,1-.26-1.14l-.1-8.69c0-2.07.08-4.43,1.66-5.76a7.18,7.18,0,0,1,3.75-1.25l9.68-1.28a4.54,4.54,0,0,1,3.28.41c1.14.85,1.2,2.5,1.15,3.91L93.16,347A3.66,3.66,0,0,1,92.45,349.47Z"/><path d="M85.63,290.49l8.62-.62c1.25-.09,2.74-.08,3.48.94a3.76,3.76,0,0,1,.42,2.44l-.55,10c-.08,1.44-.21,3-1.19,4.07a5.63,5.63,0,0,1-3,1.4,25.8,25.8,0,0,1-13.28-.55c-1.08-.33-2.34-1-2.28-2.15.13-2.71.27-5.42.4-8.13.1-1.95.27-4.07,1.6-5.49s3.69-1.76,5.76-1.9M80.3,306.24c4.91.67,10,1.33,14.74-.14q.63-5.85.88-11.75a2.12,2.12,0,0,0-.51-1.83,2.15,2.15,0,0,0-1.44-.25l-12.13.82c-.65,0-.87.89-.9,1.54Z"/><path d="M115.94,308.44a3.55,3.55,0,0,1,2.33.27c1.08.68,1.08,2.22,1,3.49l-.79,8.8a7.32,7.32,0,0,1-.59,2.71c-1.12,2.24-4.11,2.75-6.6,2.43s-5-1.17-7.43-.59a7.38,7.38,0,0,1-2.56.47c-.86-.12-1.7-1-1.33-1.81,1.07-2.23.76-4.84.79-7.31s.63-5.26,2.75-6.54a8.64,8.64,0,0,1,3.49-.91l9-1m-.17,14.93,1.11-12.29-7.47.05a8.62,8.62,0,0,0-3.36.48,5.81,5.81,0,0,0-3.07,4.12,17.18,17.18,0,0,0-.08,5.31,1.43,1.43,0,0,0,1.46,1.62A50.16,50.16,0,0,0,115.77,323.37Z"/><path d="M95.09,314.2l-12.77.42c-1.38.05-3.24.58-3.14,2a57.1,57.1,0,0,1-.05,8.87c-.12,1.47-.95,3.41-2.37,3l0-9.94a7.58,7.58,0,0,1,.68-3.87c1.55-2.65,5.37-2.39,8.44-2.27a29,29,0,0,0,9.36-1.2,1.87,1.87,0,0,1,2.1,1.22,5.31,5.31,0,0,1,.18,2.63l-.75,8c-.1,1.05-.29,2.24-1.17,2.8a3.46,3.46,0,0,1-1.35.39L82.64,328c-1.26.19-2.78.28-3.55-.73a14.72,14.72,0,0,1,5.5-1.79l10-1.83C94.73,320.47,94.91,317.33,95.09,314.2Z"/><path d="M98,274.88l.06,8.93c0,1.12-.07,2.43-1,3.09a3.57,3.57,0,0,1-2,.49l-12.54.6c-1.43.06-3.41-.41-3.27-1.83a41,41,0,0,0-.66-12.4c1.51-2.52,4.94-2.91,7.87-3l6.61-.25c1.46-.05,3.13,0,4.08,1.08a4.89,4.89,0,0,1,.82,3.31m-2.33.52a2.32,2.32,0,0,0-2.9-3c-3.36.17-6.72.41-10.07.7a1.53,1.53,0,0,0-.92.29,1.5,1.5,0,0,0-.31,1.21q.15,5.56.32,11.12,6.72-.19,13.43-.53Z"/><path d="M60.62,350.24a1.93,1.93,0,0,0,1.82-.17,2,2,0,0,0,.47-1.25c.4-3.26.81-6.51,1.22-9.77a1.05,1.05,0,0,0-1.36-1.41l-9.41.86a2.31,2.31,0,0,0-.78.16c-.76.38-.83,1.42-.83,2.26a30,30,0,0,1-2,10.92c-.25.65-1.09,1.37-1.47.8a1,1,0,0,1-.08-.68q.82-6.51,1.66-13c.3-2.33,3.32-3,5.66-3l9.45-.25a2,2,0,0,1,.84.1c.73.33.77,1.34.69,2.14q-.54,5.52-1.09,11a7,7,0,0,1-.72,2.89,2.38,2.38,0,0,1-2.49,1.26,44.42,44.42,0,0,0-10.77-1.38c.56-1.63,2.43-2.49,4.16-2.51A19.31,19.31,0,0,1,60.62,350.24Z"/><path d="M72.48,272.44a4.53,4.53,0,0,1,2.53.43c1.15.73,1.39,2.27,1.49,3.63.16,2.27.25,4.55.25,6.82a5.87,5.87,0,0,1-.27,2.21c-.83,2.21-3.67,2.78-6,2.8a80.62,80.62,0,0,1-11.7-1.05,1.61,1.61,0,0,1-1.11-.47,1.59,1.59,0,0,1-.21-1l.11-6.27c0-2.48.42-5.48,2.69-6.46a6.47,6.47,0,0,1,2.44-.38l9.81-.25m-12.19,2.9a1.84,1.84,0,0,0-.36,1.11,62.13,62.13,0,0,0-.25,9.15l11.08.68c1.23.07,2.71,0,3.35-1a3.3,3.3,0,0,0,.36-1.65c.08-2.38.06-4.77-.07-7.15a2,2,0,0,0-.64-1.64,2.08,2.08,0,0,0-1.16-.2l-10.91.31A1.89,1.89,0,0,0,60.29,275.34Z"/><path d="M87.74,338.21a4,4,0,0,1-.26,3.47A6.34,6.34,0,0,1,84.3,345a3.51,3.51,0,0,1-4.23-1.11c-1.08-1.71,0-4,1.49-5.42a5.83,5.83,0,0,1,3.1-1.68,3,3,0,0,1,3.08,1.38m-5.4,3.57,0,1.79c1.31.73,2.61-.95,3.17-2.34a2.16,2.16,0,0,0,.2-1.62,1.5,1.5,0,0,0-2.29-.26,4.3,4.3,0,0,0-1.1,2.4Z"/><path d="M52.76,330l.73-9.37a6.83,6.83,0,0,1,1.28-4.19c1.12-1.23,2.94-1.46,4.59-1.61l8.11-.75a4,4,0,0,1,2.45.29c1.27.78,1.25,2.61,1.06,4.1q-.66,5.4-1.33,10.8a3.18,3.18,0,0,1-.57,1.72c-.68.8-1.91.74-3,.6l-7-.93c-1.22-.16-2.82-.81-2.58-2a1.67,1.67,0,0,1,1.91-1.07,9.94,9.94,0,0,1,2.25.86,12.72,12.72,0,0,0,5.7.46,1.22,1.22,0,0,0,1.47-1.31q.48-4.49.94-9a2.11,2.11,0,0,0-2.92-2.69l-6.46.93c-1.72.25-3.94,1.09-3.74,2.82A21.22,21.22,0,0,1,54.29,330,1.22,1.22,0,0,1,52.76,330Z"/><path d="M63.37,321.55c.57-.57,0-1.63-.84-1.8a4.88,4.88,0,0,0-2.35.42,2.17,2.17,0,0,1-2.26-.35,10.7,10.7,0,0,1,9.13-1.11,18.76,18.76,0,0,1-3.48,6.92,2.5,2.5,0,0,1-1.47,1.06c-.62.07-1.31-.55-1.05-1.11.67-.15.8-1.14.37-1.67a3,3,0,0,0-1.82-.84A5.32,5.32,0,0,1,63.37,321.55Z"/><path d="M87.86,319.67a5,5,0,0,1,.42,3.09c-.31,1-1.64,1.77-2.47,1.11a3.33,3.33,0,0,0,.69-3,2.58,2.58,0,0,0-1.17,2.91c-.33.91-1.83.31-2.11-.62s0-2-.56-2.83a2.71,2.71,0,0,1,4.61-2.85,4.31,4.31,0,0,0-2.26.15,1.5,1.5,0,0,0-.89,1.86c.68.73,1.88.12,2.68-.49s2.07-1.14,2.67-.33Z"/><path d="M261.47,257.07a191.57,191.57,0,0,1-62.62-37.47c-4.43-4-8.66-8.15-12.9-12.32l-19.81-19.53c-1.41-1.39-2.95-3.31-2.18-5.14L189,207.12c5.27,5.15,10.54,10.31,16.14,15.11a170.31,170.31,0,0,0,70.27,36C271,260.15,266,258.7,261.47,257.07Z"/><path d="M147.91,72c-.52-2.82.34-5.7,1.24-8.43A338.15,338.15,0,0,1,169,15.66c1.19,2.23,0,4.93-1.11,7.19a266.26,266.26,0,0,0-17.11,43.4c-.61,2.06-1.26,4.24-2.84,5.71Z"/><path d="M188.15,16.63c1.69.2,2.5,2.15,2.88,3.81a49,49,0,0,1,1,15.83,4.08,4.08,0,0,1-.57,2,1.5,1.5,0,0,1-1.83.61,18,18,0,0,1,.18-5.42A40.55,40.55,0,0,0,188.15,16.63Z"/><path d="M108.54,297.58a4.72,4.72,0,0,1,6.1,2,4.5,4.5,0,1,1-7-5.58c1.14-1.11,3.5-1.21,3.95.32a3.08,3.08,0,0,0-3.09,3.26m3.33,2.57.14-1.08a1.44,1.44,0,0,0-2.24.91l2,.21Z"/><path d="M110.59,279.12c.15-1,1.29-1.54,2.11-2.18s1.28-2.16.32-2.56c-1.07,1.2-3,2.42-4,1.19,1.17-1.12,2.47-2.29,4.08-2.42s3.37,1.46,2.75,3c-.34.83-1.21,1.93-.43,2.37a1.45,1.45,0,0,1,.33,2,4.18,4.18,0,0,1-1.75,1.37c-2.07,1.08-5,1.93-6.4.05l6.18-1.27c.57-.51-.12-1.49-.87-1.6S111.34,279.22,110.59,279.12Z"/><path d="M64,300.83a3.81,3.81,0,0,0,3.14-.55,3.49,3.49,0,0,1,.34-2,1.23,1.23,0,0,1,1.74-.44,1.77,1.77,0,0,1,.43,1.19,30.92,30.92,0,0,1,.07,4.41A2.93,2.93,0,0,1,68.6,306c-.83.47-2.15-.6-1.52-1.31s0-1.57-.78-1.78a4.26,4.26,0,0,0-2.27.28,2.65,2.65,0,0,1-2.24-.09c-1.1-.78-.61-2.5,0-3.71l1-2A3,3,0,0,1,64,300.83Z"/><path d="M88.56,296.87c-1,.18-2.38,1-1.84,1.89,1.62,0,3.53.48,4.08,2s-.89,3.39-2.56,3.78a9.24,9.24,0,0,1-5-.73c.17-.93,1.36-1.24,2.29-1.14s2,.37,2.77-.1.64-2.13-.29-2a4.89,4.89,0,0,1-3.91-1.08A6,6,0,0,1,93.57,296Z"/><path d="M90.89,275.24c1.19,1.36.39,3.47-.45,5.07a4.55,4.55,0,0,1,3.91,1.26A30.57,30.57,0,0,1,84,283.28,6.2,6.2,0,0,1,86.73,281,4.11,4.11,0,0,0,89,278.35c.16-1.19-1.3-2.46-2.23-1.7a2,2,0,0,1-2.22.17,9.05,9.05,0,0,1,2.93-2.18A3.08,3.08,0,0,1,90.89,275.24Z"/><path d="M65.28,283.13c-1,.06-1.4-1.29-1.43-2.3-.05-1.43,0-3.15,1.3-3.84a4.59,4.59,0,0,1,1.36,4.92C66.31,282.49,65.89,283.09,65.28,283.13Z"/><path d="M110.27,312.58A3.54,3.54,0,0,1,112.8,314a4.8,4.8,0,0,1,.54,2.63l0,2.9a3.42,3.42,0,0,1-.33,1.88,1.18,1.18,0,0,1-1.65.43,1.67,1.67,0,0,1-.43-1.27l-.29-5a1.47,1.47,0,1,0-2.93.17,1.59,1.59,0,0,1,1.67,1,1.94,1.94,0,0,1-3.17.28,2.69,2.69,0,0,1,.43-3.48A4.41,4.41,0,0,1,110.27,312.58Z"/></g></g></g></svg>