<svg xmlns="http://www.w3.org/2000/svg" viewBox="0 0 68.44 154.64"><defs><style>.cls-1{fill:#29abe2;}.cls-2{fill:#ffde73;}.cls-3{fill:#f4d7b5;}</style></defs><title>Bird</title><g id="Layer_2" data-name="Layer 2"><g id="Layer_1-2" data-name="Layer 1"><g id="Bird"><path class="cls-1" d="M30.74,132.16a1.09,1.09,0,0,0,.49-1.13.67.67,0,0,0-.94,0,.89.89,0,0,0,.43,1.19Z"/><path class="cls-1" d="M32.91,128.11a1.36,1.36,0,0,0-1.88-1,2.26,2.26,0,0,0,.7,1.51c.46.33,1.31,0,1.24-.53"/><path class="cls-1" d="M41.57,41c.69.23-17,5.16-16.74,5.84.12.3-.38,4.65-15.22,12.83C8.05,60.5,7,71.77,5.25,78.72c-2.19,8.59-3.28,17.83-3,21,.37,3.94,5.15,20.18,5.9,15.57.2-1.21,6.36-20.26,9.7-19.29,1.44.41,2,14-.75,29.16-.15.78,1.06.26,1,1-.3,2.55-1.27,5.8-1.66,8.12-.22,1.31.88-.08.61,1.05-1.93,7.94-6.86,13.52-5.36,16.16,1.8,3.19,14.07-4.29,15.5-6.9.36-.65-.2-1.9.67-3.13s2.36-2.69,2.31-3.7c-.44-10.74,1.3-11.84,1.27-11.84s2.52.29,1.46,3.85c-.24.83,1.39,1.28,1.58,2.41.45,2.7.53,6.41,1.43,9.41,1.56,5.26,4.28,9.27,6.22,8.49,1.39-.55,13.64,7.94,11.49,2.19-.45-1.19,1.11-2.83.64-4.31-1.15-3.6-5.68-4.54-6.95-9-.82-2.93-.37-7.06-.19-9.48.22-2.85-2.44-1.9-2.49-5.93-.18-12.12-2-20.9,0-16.4.38.89,4.22-4.22,4.61-3.37.46,1,.19,3.58-.29,5.83-1,4.82,4.63-2.89,4.18.26s1,5.48,1.56,5c3.42-3.23,4.49,2.69,5.21,2.39,2.3-1,8.82-10.25,7.89-12.48C62,90.82,53.85,62.66,53.69,61.29c-.83-7.1-8.3-7.54-10.94-11.61A11.21,11.21,0,0,1,41.57,41Z"/><path class="cls-1" d="M27.22,16C19,10.54,16.11,18.32,16.31,19.7a60.24,60.24,0,0,0-.15,14.39,1.33,1.33,0,0,0,.46,1.06c3.14,2,1.24,8,4.53,9.77a11.71,11.71,0,0,0,2.05.67,2.43,2.43,0,0,1,1.63,1.3c.26.67,16.64-4.76,15.92-4.79"/><path class="cls-1" d="M13.08,30.69a3.29,3.29,0,0,0,.82-3,8.19,8.19,0,0,1-.1-3.19,4,4,0,0,0,.27-1.12c0-.39-.32-.8-.7-.74a2.67,2.67,0,0,0-.38,3c.44.81-.09,1.77-.45,2.62S12.19,30.45,13.08,30.69Z"/><path class="cls-1" d="M40.75,42.1c4.35-5.2,3.59-13.17.43-19.18-.9-1.72-2-3.59-1.54-5.48a16.08,16.08,0,0,0-.18-9.85c-1.25-3.1-4.25-5.65-7.59-5.6-4.05.07-7.07,3.59-9.52,6.82l3.41,1c.38.11.83.28.94.67.25.84-1.15,1-2,.77"/><path class="cls-2" d="M26.71,10.46c.25.84-1.15,1-2,.77L16.11,8.35a23.13,23.13,0,0,0,8,4.59,69.76,69.76,0,0,1-8.92,4.31l12-3.48c.53-.16,1.19-.28,1.56.12a4.72,4.72,0,0,0-.5-2.12A3.89,3.89,0,0,0,26.71,10.46Z"/><path class="cls-3" d="M37.69,24.43c.32-.56-.55-1-1.19-1.06a8.87,8.87,0,0,0-5.17,1.51,2.33,2.33,0,0,1-1.39.59c-.51,0-.92-.76-.52-1.08.16-.37-.44-.66-.8-.47s-.53.6-.81.9-.82.45-1,.11-.34-1-.61-.73l-.49,1.15a3.09,3.09,0,0,0,2,1.11,2.49,2.49,0,0,1,1.89,1.29c.26.75-.77,1.69-1.3,1.1a3.2,3.2,0,0,0-4.49-.06c-.42.43-.75,1-1.32,1.18s-1.28-.63-.8-1a6.09,6.09,0,0,0,2.17-3.39,3,3,0,0,0-3,1.49c-1.39,2.17-.75,5,.05,7.46,1,3.14,2.53,6.55,5.59,7.8a7.83,7.83,0,0,0,3.11.52,11,11,0,0,0,9-17,1.87,1.87,0,0,1-2,.63,4.63,4.63,0,0,0-5.05,1.72A1.07,1.07,0,0,1,31,26.86a2.45,2.45,0,0,1,1.08-1.17A8.2,8.2,0,0,1,37.69,24.43Z"/><path d="M20.45,13,9.2,7.32a2,2,0,0,1-1-.89c-.58-1.33,1.65-2,3.07-1.69a49.73,49.73,0,0,1,9.83,3.19c2.08-2.87,4.32-5.87,7.59-7.22a10.11,10.11,0,0,1,9.34,1A10.82,10.82,0,0,1,42.58,10c.09,1.71-.19,3.53.62,5,.64,1.19,1.74,3,.5,3.51-.94.4-.73,1.77-.4,2.74a38.7,38.7,0,0,1,2,15.94c-.14,1.72-.58,3.67-2.11,4.46a3,3,0,0,0-1,3.73,8.24,8.24,0,0,0,2.81,3.12c4,3.12,8.39,6.4,9.76,11.27A42,42,0,0,1,55.52,66c.5,4,2,7.86,3.54,11.64l8.42,21a15.06,15.06,0,0,1-5.77,17.76,4.25,4.25,0,0,1-2.8.84,1.8,1.8,0,0,1-1.55-2.12c-.82,1-2.87,1.66-2.93.38,0-.51.41-.9.8-1.22,3.27-2.57,6.64-5,10.1-7.32,2-1.35,1.35-4.44.44-6.7L58.13,81.35a62.32,62.32,0,0,1-3.39-10.06c-1.08-5.08-1-10.79-4.45-14.71-2.13-2.44-5.28-3.74-7.69-5.91s-3.94-6.09-1.86-8.58c4.35-5.2,3.59-13.17.43-19.18-.9-1.72-2-3.59-1.54-5.47a16.11,16.11,0,0,0-.18-9.86C38.2,4.48,35.2,1.93,31.86,2c-4.05.07-7.07,3.59-9.52,6.82l3.41,1c.38.11.83.28.94.67.25.85-1.15,1-2,.77L16.09,8.36a23.13,23.13,0,0,0,8,4.59,67.84,67.84,0,0,1-8.92,4.31l12-3.48c.53-.16,1.19-.28,1.56.12.72.76-.54,1.78-1.54,2L11.9,20.09a2.47,2.47,0,0,1-1.14.12c-1-.23-1.24-1.63-.7-2.48a4.86,4.86,0,0,1,2.47-1.63L20.45,13m44,96.14-4.81,3.67c-.81.62-1.69,1.77-1,2.51s1.67.12,2.38-.41c2.14-1.61,4.48-3.59,4.55-6.26A1.68,1.68,0,0,0,64.4,109.18Z"/><path d="M47.67,154a20.46,20.46,0,0,1-14.56-15.83l.69-4.92a5.78,5.78,0,0,0-3.25-.54,8,8,0,0,1-2.69,8.78c.95.53,1,1.95.43,2.9s-1.42,1.64-2,2.54a17.78,17.78,0,0,1-14.67,7.7c-2,0-3.18-2.6-2.66-4.56s2.06-3.46,3.36-5a23.54,23.54,0,0,0,4.76-9.69c-.63.72-2,.2-2.29-.7a3.94,3.94,0,0,1,.33-2.78,38.17,38.17,0,0,1,2.7-5.48,1.16,1.16,0,0,0-1.86.2l2.82-15.72a4.7,4.7,0,0,1-.08,5.7,8.9,8.9,0,0,0,3.06-.55l-4.23,8.9,2.53-.66a52.45,52.45,0,0,0-3.59,10l2.63-.46-.43,2.31c-.78,4.1-1.73,8.52-4.89,11.24-1.3,1.11-3.11,2.76-2.06,4.12a24.29,24.29,0,0,0,15.46-8.18c-1.38-.54-.82-2.68.24-3.71s2.51-2.17,2.21-3.62a27.42,27.42,0,0,1,.31-12.45c.6-2.29,1.5-4.66.9-6.95a12.39,12.39,0,0,1-.8-2.93c0-1,.88-2.14,1.85-1.86l-.06,4.53,2.31-2.89a12.57,12.57,0,0,1-2,9c1.59-.67,3.31,1.16,3.24,2.88s-1.27,3.16-2.41,4.46c1.78-.41,3.29,1.56,3.43,3.38s-.55,3.61-.56,5.44A10,10,0,0,0,39.43,146a29.75,29.75,0,0,0,7.21,4.34c2.29,1.1,5.75,1.83,6.78-.5.72-1.64-.61-3.53-2.2-4.37s-3.45-1.08-5-2-2.82-2.85-2-4.44c1.61-3-.08-7.8,2.89-9.52a5.94,5.94,0,0,1-3.19-8.42c.79-1.29-.67-2.8-.83-4.3a8.15,8.15,0,0,1,.53-2.77c1-4.28-2.18-9.47.63-12.87a1.61,1.61,0,0,0-2,.3Q42.8,96.21,43.39,91a6,6,0,0,1-3,.36,2.06,2.06,0,0,1-1.72-2.13c.14-.79.9-1.5.66-2.27a16.19,16.19,0,0,1,2-13.9,17.82,17.82,0,0,1-2,10.76,5,5,0,0,0,4.3-4c.78-.29.94,1.09.59,1.85L40.39,90a6,6,0,0,1,3.39-1.26c1.23.06,2.46,1.23,2.09,2.4l-2.33,7.46,4.35-4.79a33.45,33.45,0,0,0-2.06,12.45q2.84-3.81,5.83-7.48l-2.73,10.89a4.15,4.15,0,0,1,0-4.78c-2,.63-4.57,2.35-3.6,4.24a8.17,8.17,0,0,1,.49,4.34L45.05,124c-.13,1.8,2.56,2.48,3.14,4.19.38,1.11-.23,2.27-.62,3.36a9.09,9.09,0,0,0,.79,7.66c1.38,2.27,3.68,3.81,5.4,5.83s2.82,5.1,1.34,7.3-4.81,2.33-7.43,1.64M33.36,124a.83.83,0,0,0-1-.3,3.21,3.21,0,0,1-1.5,1.39,2.93,2.93,0,0,0,1.78.25c.59-.16,1.06-.87.76-1.39m-.56,4.14a1.36,1.36,0,0,0-1.88-1,2.26,2.26,0,0,0,.7,1.51c.46.33,1.31,0,1.24-.53m-2.21,4.1a1.09,1.09,0,0,0,.49-1.13.67.67,0,0,0-.94,0,.89.89,0,0,0,.43,1.19Z"/><path d="M14,82.88l2.54,7.79a9.81,9.81,0,0,1,1.3-5.34A18.45,18.45,0,0,1,16.16,96a9.52,9.52,0,0,0,3-9.33c-.45-1.8-1-4.46.85-4.85a4.22,4.22,0,0,0,2.21,4l-1.27-8.94c-.12-.81.35-2.06,1-1.64a1.11,1.11,0,0,1,.4.64,31.62,31.62,0,0,1,1.45,6.94c.17,1.88-.37,4.41-2.25,4.51-.49,0-.75.58-.9,1.05a30.1,30.1,0,0,0-1,12.76c.65,4.59-5.11,8.49-3.91,13-1,.48-1.49-1.2-1.3-2.27L17,98.35c-2.46.56-3.5,3.43-4.13,5.88l-2.82,11c-.28,1.11-1.85,1.43-2.85.86a5.64,5.64,0,0,1-2-2.71l-2.95-6.19A18.68,18.68,0,0,1,0,100.79a18.8,18.8,0,0,1,.5-5.11l5.09-26.3A23.13,23.13,0,0,1,8,61.79c1.69-2.88,4.52-4.89,7.33-6.7Q20.43,51.8,25.79,49a31.76,31.76,0,0,1-9,8c-2.15,1.27-4.5,2.33-6.11,4.23-1.81,2.15-2.4,5-2.92,7.79l-5,26.23a17.27,17.27,0,0,0-.45,4.52A17.08,17.08,0,0,0,3.86,105l4.32,10.28c1.84-1.91,1.38-5,.52-7.54s-2-5.21-1.15-7.72c1,2.44,1.94,4.88,3,7.3a11.7,11.7,0,0,0-1-11.61C9,95,10.25,94.09,11,94.56a3,3,0,0,1,1,2.37,3,3,0,0,0,1,2.37,12.44,12.44,0,0,0,1.08-10.68C13.44,86.69,12.37,84.19,14,82.88Z"/><path d="M19,35.52c-.87-2.94-1.69-6.17-.47-9a6.94,6.94,0,0,1,7.72-3.85c.94.23,1.7-.7,2.39-1.38s2.05-1.08,2.45-.2c.26.6-.06,1.6.58,1.76s.83-.71.88-1.32.75-1.36,1.11-.87a1.51,1.51,0,0,0,2.65.52c.21-.36.77-.15,1.09.11A13.23,13.23,0,0,1,42,33a14.43,14.43,0,0,1-7,10.51c-3.65,2.13-8.66,2.48-11.89-.26-2.25-1.91-3.23-4.88-4.08-7.71M37.69,24.43c.31-.56-.55-1-1.2-1.06a8.82,8.82,0,0,0-5.17,1.51,2.28,2.28,0,0,1-1.39.59c-.51,0-.92-.76-.51-1.08.15-.37-.45-.66-.81-.47s-.53.6-.8.89-.83.45-1,.12-.34-1-.61-.74l-.49,1.15a3.12,3.12,0,0,0,2,1.12,2.49,2.49,0,0,1,1.89,1.29c.26.75-.76,1.69-1.3,1.1a3.2,3.2,0,0,0-4.49-.06c-.42.43-.75,1-1.32,1.17s-1.27-.62-.8-1a6,6,0,0,0,2.17-3.38,3,3,0,0,0-3,1.49c-1.38,2.16-.74,5,.05,7.45,1,3.15,2.53,6.55,5.59,7.81a7.83,7.83,0,0,0,3.11.52,11,11,0,0,0,9-17,1.87,1.87,0,0,1-2,.62,4.64,4.64,0,0,0-5,1.73A1.08,1.08,0,0,1,31,26.85a2.54,2.54,0,0,1,1.08-1.17A8.21,8.21,0,0,1,37.69,24.43Z"/><path d="M12.81,33c-.22-.91-1.32-1.31-1.75-2.14-.85-1.64,1.33-4,.09-5.33-.54-.58,0-1.51.49-2.1a19.53,19.53,0,0,1,4.67-3.77,60.24,60.24,0,0,0-.15,14.39,1.33,1.33,0,0,0,.46,1.06c3.14,2,1.24,8,4.53,9.78a11.68,11.68,0,0,0,2.05.66,2.45,2.45,0,0,1,1.63,1.3c.26.67-.2,1.6-.92,1.58a6.11,6.11,0,0,1-3-.91c-2.26-1.4-3.32-4.08-4.24-6.58l-2.56-6.93-.28,1.09c-.36.35-1-.12-1-.61s.1-1,0-1.49m.27-2.35a3.31,3.31,0,0,0,.82-3,8.18,8.18,0,0,1-.1-3.19,4,4,0,0,0,.27-1.12c0-.38-.32-.8-.7-.74a2.67,2.67,0,0,0-.38,3c.44.81-.09,1.77-.45,2.62S12.19,30.45,13.08,30.69Z"/><path d="M30.17,104.46c.27-.87,1.65-.85,2.22-.14a3.87,3.87,0,0,1,.53,2.61l-.15,3.62c-1.11-.35-2.5-1.26-2-2.32A3.48,3.48,0,0,0,30.17,104.46Z"/><path d="M44.72,70.55a3.72,3.72,0,0,1-1.66,0,1.28,1.28,0,0,1-1-1.2c0-.56.8-1,1.21-.59a3.18,3.18,0,0,0,1.46.57c.52.13,1.07.47,1.11,1s-.9.84-1,.32Z"/><path d="M53.88,114.42a1.49,1.49,0,0,1-1.63-1.28,3.2,3.2,0,0,1,.58-2.18c.32-.54-.61-1.08-1.15-.78s-.78,1-1.17,1.46-1.2.83-1.59.34.17-1.29.74-1.67c1.49-1,3.26-1.89,3.9-3.57a5.08,5.08,0,0,1,.68-1.64c.39-.45,1.28-.51,1.48.05A28.31,28.31,0,0,0,53.88,114.42Z"/><path d="M30.11,6.68a2.61,2.61,0,0,1,.72-1.42.9.9,0,0,1,1.37.2A1.32,1.32,0,0,1,32,6.56c-.29.49-.64,1-1.2,1.14s-1.16-.65-.74-1Z"/><path d="M22.27,145a.47.47,0,0,1,.77-.2c.1.48-.14,1.11-.64,1.15s-.63-.93-.14-.89Z"/><path d="M33.66,35.4A.87.87,0,0,1,34,36.67a2.52,2.52,0,0,1-1.23.85c-1.75.73-3.62,1.48-5.5,1.18A12.13,12.13,0,0,1,33,35.43,1.16,1.16,0,0,1,33.66,35.4Z"/><path d="M24.88,31.38a4.82,4.82,0,0,1-.11-1.51,1.27,1.27,0,0,1,.76-1.09,3.39,3.39,0,0,1,1.78,2.4c.06,1-1.33,2-2,1.23A2,2,0,0,1,24.88,31.38Z"/><path d="M36.14,28.94a1.41,1.41,0,1,0-.64,2.35A1.48,1.48,0,0,0,36.14,28.94Z"/></g></g></g></svg>