<svg xmlns="http://www.w3.org/2000/svg" viewBox="0 0 166.34 104.24"><defs><style>.cls-1{fill:#cecece;}.cls-2{fill:#a3e5df;}.cls-3{fill:#565656;}.cls-4{fill:#f2f2f2;}.cls-5{fill:#ffc7cb;}.cls-6{fill:#42210b;}</style></defs><title>Coffee</title><g id="Layer_2" data-name="Layer 2"><g id="Layer_1-2" data-name="Layer 1"><g id="Coffee"><path class="cls-1" d="M77.73,72,114.17,89.6c10.34,5,20.84,10,32.14,12.09,1.75.32,3.67.54,5.22-.32A5.67,5.67,0,0,0,154,96a16.63,16.63,0,0,0-1.87-5.89q-3.48-7.51-6.95-15c-1-2.06-.1-4.46.76-6.57L159.69,35c.61-1.52,1.43-3.21,3-3.64.86-.23,1-1.48.54-2.21A4.17,4.17,0,0,0,161,27.75l-43.61-14.9c-1.34-.45-3.25-.66-3.75.65A235.24,235.24,0,0,1,95.89,49.88a25.56,25.56,0,0,1-5.34,6.85,27.22,27.22,0,0,1-4.72,2.86l-11.08,5.7c-1.37.71-1.51,2.75-.69,4A8.46,8.46,0,0,0,77.73,72Z"/><path class="cls-2" d="M119.6,22.61a3,3,0,0,0-1.44-.18c-1,.19-1.5,1.22-1.89,2.13l-12,28.14a259.32,259.32,0,0,0,32,9.85,5.81,5.81,0,0,0,3.17.13c1.67-.58,2.41-2.49,3-4.17a125,125,0,0,1,11.47-24.65c-.55-1.26-2-1.77-3.33-2.16Z"/><path class="cls-3" d="M83,70.41a2.27,2.27,0,0,1-1.2-1.33c-.22-1,.73-1.8,1.57-2.35l9.56-6.31c1.52-1,3.36-2.05,5.06-1.38a203.47,203.47,0,0,0,37.56,10.69c3.95.72,6.26,4.82,7.57,8.62a52.37,52.37,0,0,1,2.69,13.09c.08,1,0,2.25-.85,2.79a2.9,2.9,0,0,1-2.5-.12L115,84.26A85.79,85.79,0,0,1,106.8,81c-4.85-2.35-9.26-5.63-14.37-7.34-3.16-1.06-6.59-1.51-9.45-3.23"/><path class="cls-4" d="M64.67,59.28c6.68-2.43,10.38-9.4,13.48-15.79l3.55-7.3c.75-1.56,1.73-3.29,3.42-3.61a9.79,9.79,0,0,0,7.33-6.51,9.77,9.77,0,0,0-2.24-9.54c-4.59-4.76-12.82-3.78-17.95-8-.94-.77-1.75-1.7-2.69-2.49C65.31,2.5,59.16,2.37,53.66,3.19A59.61,59.61,0,0,0,36.71,8.4L47.52,6.14c4.32-.9,8.68-1.81,13.09-1.68C63.28,4.53,66.15,5.1,68,7c2.51,2.65,2.16,7.1.12,10.14s-5.35,4.93-8.63,6.53a96.16,96.16,0,0,1-44.2,9.66c-2.49-.06-5.16-.29-7.07-1.87s-2.42-5-.37-6.42A11.55,11.55,0,0,0,3.58,38.73,44.22,44.22,0,0,0,20,59a34.86,34.86,0,0,0,25.3,5.24c4.31-.84,8.4-2.59,12.7-3.49a48.67,48.67,0,0,0,6.69-1.49"/><path class="cls-4" d="M11.88,17.07a32.88,32.88,0,0,0-3.4,5.11,1.79,1.79,0,0,0-.24,1.67,17.5,17.5,0,0,1,4.48-4.23A4.36,4.36,0,0,0,14,18.56,1.27,1.27,0,0,0,14,17c-.37-.4-1.23-.22-1.27.33Z"/><path class="cls-5" d="M51.86,54.74c-.45.38-.18,1.19.35,1.46a2.79,2.79,0,0,0,1.74,0l2.52-.48a2,2,0,0,0-1.79-2.12A3.81,3.81,0,0,0,51.86,54.74Z"/><path class="cls-6" d="M9.17,26.25a2.53,2.53,0,0,0,.88,3.14,6.82,6.82,0,0,0,3.36,1.08c14.1,1.75,28.3-2.25,41.5-7.5a33.08,33.08,0,0,0,8.2-4.25C66,16.48,68.19,12.2,66,9.28,64.39,7.14,61.3,6.92,58.62,7c-11.36.54-22.41,3.86-33,7.92-6.33,2.41-13,5.45-16.41,11.29"/><path d="M35.77,5.93C41.51,3.7,47.32,1.5,53.4.48,60.2-.65,67.9,0,72.89,4.77,76.33,8,81.25,9.07,85.71,10.7s9.12,4.63,9.86,9.32c.44,2.78-.61,5.57-1.9,8.07S90.9,32.78,88.55,34c-7.91,4.07-8.91,15.06-14.84,21.71C69,61,61.66,63,54.77,64.7s-13.86,3.42-20.9,2.78C20.45,66.26,8.93,56.35,2.74,44.37,1.05,41.1-.34,37.47.07,33.81c.37-3.33,2.19-6.31,4-9.16,2.08-3.36,4.28-6.83,7.65-8.89A25.57,25.57,0,0,1,15.41,14Q25.57,9.9,35.77,5.93M64.43,59.31c6.68-2.43,10.38-9.39,13.48-15.79l3.54-7.3c.76-1.55,1.74-3.29,3.43-3.61a9.78,9.78,0,0,0,7.33-6.51A9.8,9.8,0,0,0,90,16.56c-4.6-4.76-12.82-3.78-18-8-1-.78-1.75-1.71-2.69-2.49C65.07,2.53,58.91,2.4,53.41,3.22A59.71,59.71,0,0,0,36.46,8.43L47.28,6.17C51.6,5.27,56,4.36,60.37,4.49c2.67.08,5.53.64,7.37,2.58,2.5,2.66,2.15,7.11.12,10.14s-5.35,4.93-8.63,6.53A96,96,0,0,1,15,33.4c-2.49-.06-5.16-.28-7.07-1.87s-2.43-5-.37-6.42A11.55,11.55,0,0,0,3.34,38.76a44.15,44.15,0,0,0,16.4,20.29A34.85,34.85,0,0,0,45,64.29c4.31-.84,8.4-2.59,12.7-3.49a47.24,47.24,0,0,0,6.69-1.49M9.16,26.23A2.53,2.53,0,0,0,10,29.37a6.62,6.62,0,0,0,3.36,1.08C27.5,32.2,41.7,28.2,54.9,23a33.08,33.08,0,0,0,8.2-4.25C66,16.46,68.18,12.18,66,9.26,64.38,7.12,61.29,6.9,58.61,7c-11.36.53-22.41,3.85-33,7.91-6.33,2.42-13,5.46-16.41,11.29m2.72-9.16a32.88,32.88,0,0,0-3.4,5.11,1.79,1.79,0,0,0-.24,1.67,17.5,17.5,0,0,1,4.48-4.23A4.36,4.36,0,0,0,14,18.56,1.27,1.27,0,0,0,14,17c-.37-.4-1.23-.22-1.27.33Z"/><path d="M155.86,100.45a6.75,6.75,0,0,1-5,3.6,16.52,16.52,0,0,1-6.37-.33c-19.73-3.9-36.61-16.24-55.23-23.85-5.68-2.32-11.69-4.29-16.32-8.32a5.89,5.89,0,0,1-2.33-3.68c-.2-2.56,2.4-4.33,4.66-5.53l11.34-6c2.72-1.44,4.53-4.11,6.18-6.71,8-12.62,15.12-25.92,20.15-40,.28-.76,1.39-.65,2.15-.38l46.41,16a8.59,8.59,0,0,1,4.11,2.35c1,1.24,1.08,3.38-.27,4.24-2.18,1.4-3.24,4-4.18,6.38q-5.62,14.43-11.26,28.86c-1.17,3-2.33,6.51-.78,9.36,3.46,6.34,7,13,7.3,20.2a8.41,8.41,0,0,1-.54,3.79m-78-28.57,36.43,17.57c10.35,5,20.85,10,32.15,12.09,1.75.31,3.66.54,5.22-.33a5.67,5.67,0,0,0,2.51-5.33A16.64,16.64,0,0,0,152.26,90q-3.47-7.51-6.95-15c-.95-2.06-.09-4.47.76-6.57l13.71-33.6c.62-1.51,1.44-3.2,3-3.63.86-.23,1.05-1.48.54-2.22a4.26,4.26,0,0,0-2.25-1.35L117.47,12.7c-1.33-.45-3.24-.67-3.75.65A234.24,234.24,0,0,1,96,49.72a24.86,24.86,0,0,1-5.34,6.85,26,26,0,0,1-4.72,2.86L74.84,65.14c-1.37.7-1.51,2.74-.68,4A8.4,8.4,0,0,0,77.83,71.88Z"/><path d="M57,57.27a1,1,0,0,1-1.14-.22,2.72,2.72,0,0,1-2,1.77,6.09,6.09,0,0,1-2.75-.06,16.9,16.9,0,0,1-4.19-1.44,3.46,3.46,0,0,1-1.81-1.59,1.4,1.4,0,0,1,.85-1.95,37.1,37.1,0,0,0,12.48-4.26,5.22,5.22,0,0,1-.11,4L57,57.27m-5.1-2.54c-.45.39-.18,1.2.35,1.47a2.79,2.79,0,0,0,1.74,0l2.52-.48a2,2,0,0,0-1.78-2.12A3.85,3.85,0,0,0,51.86,54.73Z"/><path d="M84.3,17.81a8.1,8.1,0,0,1,3.93,2.59c1.61,2.28.88,5.59-.92,7.72-1.13,1.34-3.1,2.39-4.58,1.45a4.63,4.63,0,0,1-1.49-2.1C80.14,25,79,22.58,77.93,20.13a3.09,3.09,0,0,1-.41-2c.4-1.42,2.38-1.51,3.82-1.17a24,24,0,0,1,3,.89m-1.88,4.48c.28,1.09.59,2.16.94,3.23.18.56.49,1.22,1.08,1.29a1.31,1.31,0,0,0,1-.39,3.18,3.18,0,0,0-1.6-5.54c-.55-.09-1.24.06-1.42.59A1.44,1.44,0,0,0,82.42,22.29Z"/><path d="M41.43,44.88c.13.78-.9,1.32-1.66,1.1a5.73,5.73,0,0,1-1.92-1.38,6.08,6.08,0,0,0-9.36,2A9.59,9.59,0,0,1,27.27,49c-.61.67-1.82.92-2.37.2A13.21,13.21,0,0,1,26,46a9.6,9.6,0,0,1,7.14-5.1,8.53,8.53,0,0,1,8,3.44A1.48,1.48,0,0,1,41.43,44.88Z"/><path d="M54.26,40a2.24,2.24,0,0,1,.1-.37,13.2,13.2,0,0,1,3.81-5.86,12.73,12.73,0,0,1,7.18-2.64,10,10,0,0,1,6.83,1.56,2.26,2.26,0,0,1,1,1.56c0,.65-.67,1.3-1.25,1a13.46,13.46,0,0,0-8-1.59,8.16,8.16,0,0,0-6.39,4.63,5.57,5.57,0,0,1-1.29,2.41C55.59,41.23,54.16,40.87,54.26,40Z"/><path d="M142.6,65.15c-.44,1.49-2.56,1.41-4.06,1q-17.35-4.65-34.38-10.43a4,4,0,0,1-2.11-1.26c-.79-1.13-.23-2.67.34-3.92L115.5,21.92a3.7,3.7,0,0,1,1.32-1.79,3.71,3.71,0,0,1,2.92.06l33.34,10.07c1.86.57,4.19,2.21,3.19,3.87a132.36,132.36,0,0,0-13.67,31m-23-42.5a3.28,3.28,0,0,0-1.45-.18c-1,.19-1.5,1.23-1.89,2.14l-12,28.14a260.47,260.47,0,0,0,32,9.84,5.72,5.72,0,0,0,3.17.14c1.67-.59,2.41-2.5,3-4.17A124.5,124.5,0,0,1,153.85,33.9c-.55-1.25-2-1.77-3.33-2.15Z"/><path d="M120.65,52.55a4.06,4.06,0,0,1,3.56-6.84,5.63,5.63,0,0,1,1.63.56,5.85,5.85,0,0,1,2.43,2,3.23,3.23,0,0,1,.25,3.07,4.85,4.85,0,0,1-7.87,1.16m1.44-1.78a1.88,1.88,0,0,0,1.38.68,10.24,10.24,0,0,0,2.41.07,2.24,2.24,0,0,0-3.6-2.67A2.08,2.08,0,0,0,122.09,50.77Z"/><path d="M133.32,38.7l.05-1.4a8.26,8.26,0,0,1,9.78,2,2.69,2.69,0,0,1,.73,1.59,1.16,1.16,0,0,1-1,1.21c-1.16-1.62-2.6-3.4-4.59-3.51C136.56,38.51,134.72,39.64,133.32,38.7Z"/><path d="M127.19,36.88c-1.35-1.19-2.82-2.42-4.6-2.63-1.46-.17-3.37.19-4.06-1.11.93-1.25,2.74-1.4,4.28-1.21,2.45.32,5.22,1.71,5.43,4.17Z"/><path d="M83,70.41a2.27,2.27,0,0,1-1.2-1.33c-.22-1,.73-1.8,1.57-2.35l9.56-6.31c1.52-1,3.36-2.05,5.06-1.38a203.47,203.47,0,0,0,37.56,10.69c3.95.72,6.26,4.82,7.57,8.62a52.37,52.37,0,0,1,2.69,13.09c.08,1,0,2.25-.85,2.79a2.9,2.9,0,0,1-2.5-.12L115,84.26A85.79,85.79,0,0,1,106.8,81c-4.85-2.35-9.26-5.63-14.37-7.34-3.16-1.06-6.59-1.51-9.45-3.23m59.91,19.32a4,4,0,0,0-.31-2.44c-.73-1.27-2.4-1.56-3.86-1.71l-1.34-.14c-1.08-.12-2.43-.1-2.93.87a1.85,1.85,0,0,0,.43,2,5.35,5.35,0,0,0,1.9,1.15l3.12,1.34c.87.37,2,.68,2.63,0a2,2,0,0,0,.36-1.08M117.5,69.32l3.43,2.36a6.26,6.26,0,0,0,2.18,1.11,2.13,2.13,0,0,0,2.19-.74,1.3,1.3,0,0,0-.7-2,45.59,45.59,0,0,1-9-2.37c-1.37-.51-3.09-1-4.13,0A3.7,3.7,0,0,0,114,70.31a3.65,3.65,0,0,0,3.49-1m-8.36-3.19a1.87,1.87,0,0,0-.78-.4l-3.89-1.26a3,3,0,0,0-2.43-.09c-1.18.68-.81,2.65.33,3.42a7.14,7.14,0,0,0,4,.72,4.37,4.37,0,0,0,2.33-.37c.68-.42,1-1.47.46-2m22.41,21.09a2,2,0,0,0,.7-2.7,4.39,4.39,0,0,0-2.53-1.78,12.18,12.18,0,0,0-2-.51,2.26,2.26,0,0,0-1.41.09.87.87,0,0,0-.39,1.2c-.89.21-.77,1.64,0,2.17a9.49,9.49,0,0,0,2.6.81c1,.34,2.09,1.13,3.1.72m-6.49-11.09a9.88,9.88,0,0,0-5.75-2.5c-1.18-.09-1.88,1.57-1.31,2.61a3.94,3.94,0,0,0,3,1.67,11.23,11.23,0,0,0,2.39.1,2.39,2.39,0,0,0,1.5-.47,1,1,0,0,0,.15-1.41M93.87,62.75a2.19,2.19,0,0,0,.94,2.19c1.53,1.25,4.13,1.27,5.25-.35-.22.06-.21-.32-.13-.53a1.61,1.61,0,0,0-.71-1.8,4.87,4.87,0,0,0-2-.61c-1.28-.19-3-.13-3.37,1.1m1.45,7a1.43,1.43,0,0,0,.55-2.07,4.11,4.11,0,0,0-2-1.41c-1.39-.63-3.06-1.24-4.36-.44a4.69,4.69,0,0,0,5.78,3.92m20.57,11.48a1.78,1.78,0,0,0,.87.82c2.12,1.21,4.85,2.22,6.87.86.08-1.22-1.35-1.91-2.52-2.25l-2.34-.7a3.67,3.67,0,0,0-1.93-.2,1.24,1.24,0,0,0-1,1.47m9.75-4.38a4.53,4.53,0,0,0,4.72,3.38c1.07-.11,2.26-.92,2.09-2s-1.21-1.39-2.11-1.67c-1.21-.38-2.87-.58-3.42.56l-1.28-.29m9.39,2.4c-.68,1.18.53,2.61,1.79,3.14a2.79,2.79,0,0,0,2.8-.1,2.11,2.11,0,0,0,.19-2.82A3.39,3.39,0,0,0,137,78.29a2.31,2.31,0,0,0-2,.95M99.12,70.52c0,.65.66,1,1.25,1.31l1.94.84a4.41,4.41,0,0,0,2.49.54c.85-.15,1.62-1,1.3-1.85a2.08,2.08,0,0,0-1.45-1,18.71,18.71,0,0,0-3.47-.77c-.85-.11-2,.1-2.06,1m12.73,4.19a4.26,4.26,0,0,0,3.4-.08,1.32,1.32,0,0,0-.07-2,3.81,3.81,0,0,0-2.23-.67l-1.59-.13a1.91,1.91,0,0,0-1,.12,1.25,1.25,0,0,0-.22,1.79,3.22,3.22,0,0,0,1.75,1m16.06-1.58A5.31,5.31,0,0,0,130,74.54a1.85,1.85,0,0,0,2.2-.79,2.86,2.86,0,0,0,.17-1.09,4.61,4.61,0,0,0-6.08-1l1.63,1.51m-15.13,5.68a6.76,6.76,0,0,0-3.86-1.73,1.69,1.69,0,0,0-1.17.2,1.93,1.93,0,0,0,.76,2.11,5.42,5.42,0,0,0,2.25.83,2.52,2.52,0,0,0,1.65,0c.51-.25.78-1,.37-1.38m22.81-5.89-2.3-.12a5.67,5.67,0,0,0,2.18,2.09,1.94,1.94,0,0,0,2.59-.85c-.37-.88-1.52-1.07-2.47-1.12M86.38,68.33c-.15-.14-.08.26.11.3l2.52.52a2.17,2.17,0,0,0-2.6-.79m11.43,1.15a1.53,1.53,0,0,0-1.53.3,1.72,1.72,0,0,0,1.36.54c.49-.11.69-.95.21-1.08Z"/></g></g></g></svg>