<svg xmlns="http://www.w3.org/2000/svg" viewBox="0 0 855.5 215.38"><defs><style>.cls-1{fill:#39b54a;}.cls-2{fill:#8c6446;}.cls-3{fill:#875b36;}.cls-4{fill:#636363;}.cls-5{fill:#706d6b;}.cls-6{fill:#2d2d2d;}.cls-7{fill:#919191;}.cls-8{fill:#754c24;}.cls-9{fill:#512020;}.cls-10{fill:#592626;}.cls-11{fill:#ce2e2e;}.cls-12{fill:#76c4c4;}.cls-13{fill:#8e3707;}.cls-14{fill:#efb87b;}.cls-15{fill:#c1673a;}.cls-16{fill:#ffc9a4;}.cls-17{fill:#c4a939;}.cls-18{fill:#9b6a45;}.cls-19{fill:#f492ff;}.cls-20{fill:#3da4c4;}</style></defs><title>Dig</title><g id="Layer_2" data-name="Layer 2"><g id="Layer_1-2" data-name="Layer 1"><g id="Dig"><path class="cls-1" d="M551.1,59.86a1.45,1.45,0,0,0-1.45.26,4.62,4.62,0,0,0,.82,4.09,3.91,3.91,0,0,0,.61-4.38"/><path class="cls-1" d="M554.68,63.15a1.87,1.87,0,0,0,2.15-1.81,1.56,1.56,0,0,0-2.23,1.57Z"/><path class="cls-2" d="M576.77,61.51c4.2-20.89,4-28.7,16.67-25.76,0,0,8.49-24.93,26.66-14.3a22.31,22.31,0,0,0,9.61-.52c4.88-1.46,17.79-3,33.85,17.63C683.39,64.11,572.35,83.51,576.77,61.51Z"/><path class="cls-3" d="M250.18,74.69s17.57-7.71,25.66-3S297,70,310.48,74c6.95,3.19,33.29-.57,61.42-3.34,30.1-3,61.87-5.07,61.87-5.07s25.75-4.54,35.11,14c3.33,6.6-4.61,12-.18,19.91,26.61,47.66,12.64,51.63,24.43,64.34,4.25,4.57,16.32-1.21,26.23,1.41,2.12.56,11.94.55,11.94.55s8.28-7.74,8-28c-.09-6.37,7.52-9.69,1.85-41.44-1.34-7.47,1.31-29.12,1.31-29.12s16.89-2.82,34.32-5.8c12.61-2.16,25.5-4.42,32.48-5.76,20.68-4,237.69-53.91,237.69-53.91L855.5,210,0,215.38s43.84-55.65,94.16-82.48C125.73,116.06,250.18,74.69,250.18,74.69Z"/><path class="cls-4" d="M321.71,27.1a22.44,22.44,0,0,0,14.8,4.79c1.1-.05,2.59-.77,2.16-1.79a167.62,167.62,0,0,0-17-3"/><path class="cls-4" d="M356.46,10.14,343.93,6.66a3.15,3.15,0,0,0-2.3,0c-.69.37-.88,1.58-.15,1.87l13.21,3.59a3.17,3.17,0,0,0,2,.11c.63-.24,1.06-1.1.62-1.62A1.51,1.51,0,0,0,356.46,10.14Z"/><path class="cls-5" d="M343.85,59.84l2.15,20c.21,2,.55,4.22,2.15,5.44q-.61-10.85-1.22-21.68a6,6,0,0,0-.62-2.8,2,2,0,0,0-2.46-1"/><path class="cls-5" d="M371.14,67.48a3.29,3.29,0,0,0-1.05-2,1.66,1.66,0,0,0-1.6-.18,52.33,52.33,0,0,0,2.85,12.42C372.93,74.64,372.05,70.87,371.14,67.48Z"/><path class="cls-6" d="M423.23,63.22c-4.5-3-10.52-.61-15.11,2.2a12.74,12.74,0,0,0-3.81,3.14A11,11,0,0,0,402.76,72c-1.28,4.35-1.21,9.78,2.37,12.54s8.87,1.45,12.8-.83c3.66-2.12,7-5.15,8.44-9.15S426.76,65.56,423.23,63.22Z"/><path class="cls-7" d="M411.43,79.18a4.43,4.43,0,0,0,3.91-5.41,3.35,3.35,0,1,0-3.91,5.41Z"/><path class="cls-8" d="M338.77,33.27s-.36-4.68,21.31-22.18c-21.31-11.67,30.85,8.85,47,12s12.74,17.49,12.74,17.49-17.42,8.58-32.75,7.15-46.32-12-46.32-12S338.65,35.2,338.77,33.27Z"/><path class="cls-9" d="M419.86,40.62s4.8,14.21-1.49,19.19-8.63.1-14,8.74L396,65.43l.56-17.09Z"/><path class="cls-10" d="M396,65.43l.56-17.09s-22-1.45-60.42-13.81l6.34,22.81S383.21,69.53,396,65.43Z"/><path class="cls-11" d="M387.23,32.76s7.15,0,4.17-24.65c-1.17-9.7-12.21-6.74-18.93-2.74-7.07,4.2-8.87,9.54-8.93,11.43C363.42,20.49,370.2,31.09,387.23,32.76Z"/><path class="cls-12" d="M529.08,177.35l1.12,1.31-.74,1.9s-5,6,.74,8.3,8.78-1,8.78-1,3.35,8.39,6.06,8.93,7.84-3.57,7.93-4.63,10.38,5.06,13.35.48S562,181.47,562,181.47s4.75-3.7,5-6.49-4.59-5.68-8.65-6.49c0,0,.81-7-2.16-7.22s-7.3,4.69-7.3,4.69-5.61-2.62-8.59.36-.88,5.77-.88,5.77-6.67-5.41-9.56-2A6.69,6.69,0,0,0,529.08,177.35Z"/><path class="cls-13" d="M513.63,144.55q2.63,3.47,5.24,6.92A18.25,18.25,0,0,0,513,140.52c-1.11,1-.23,2.84.68,4"/><path class="cls-14" d="M509.79,137.56c-.7.46-.33,1.67.44,2a2.94,2.94,0,0,0,2.38-.37,12.79,12.79,0,0,0,4.9-4.42,26.49,26.49,0,0,0-7.72,2.81"/><path class="cls-15" d="M528.46,163.74a5.44,5.44,0,0,0,3.7-1.44c1.49-1.75.14-4.73-2-5.5s-4.59.11-6.51,1.38-3.57,2.92-5.6,4c-.75.89.86,1.86,2,1.89a59.18,59.18,0,0,0,8.42-.33"/><path class="cls-2" d="M530.91,56.12c1,1.09,2.85.24,4.07-.64l7.11-5.13a5.29,5.29,0,0,0,2.12-2.28c-3.2-.78-7.17-1.32-9.24,1.25-1,1.22-1.37,3-2.77,3.73"/><path class="cls-16" d="M503.22,94.43c.94,3.82-2.2,7.6-1.84,11.52a6.57,6.57,0,1,0,12.92-2.17l-9.57-.18a3.37,3.37,0,0,1-1.13-4.12"/><path class="cls-17" d="M503.22,94.43c-1.79,4.55-.46,5,.39,5.09l10.55,1.93a5.38,5.38,0,0,1,3.05,1.25c1.54,1.59.58,4.3-.88,6s-3.4,3.12-3.9,5.28c4.73,1.06,7.43-5.15,8.2-9.94s1.46-10-2.52-13.73a11.08,11.08,0,0,0-11.91-1.83c-7.46,3.16-10.42,11.23-11,18.85a4,4,0,0,0,3.83.09C501.91,105.58,503.22,94.43,503.22,94.43Z"/><path class="cls-18" d="M577,44.84c1.67,1,3.81-.48,4.76-2.18s1.43-3.78,3-5,3.84-1.45,4.66-3.18a9.39,9.39,0,0,0-8.2,2.59A15.78,15.78,0,0,0,577,44.84Z"/><path class="cls-19" d="M507.54,137.39a12,12,0,0,1,6.06-4.34c3.18-1,2.88-5.68,1.22-8.57s-4.08-6-3-9.16c-3.28-1.39-7-2-10.4-.84s-6.1,4.48-5.83,8c.42,5.33,6.65,8.2,8.77,13.1"/><path class="cls-20" d="M489.79,157.59c0,2.86,4.65,3.35,6.45,1.11s1.61-5.38,1.8-8.24a26.91,26.91,0,0,1,3.69-12,55.15,55.15,0,0,1,.11,25.77c4.21,1.15,7.68-3.85,7.87-8.21s-1.36-8.79-.3-13a5.42,5.42,0,0,1-3.74-1.83c.19-.7,2.63-3.39,1.87-3.82-3.16-1.78-8.55-6.62-10.8-7.52l-7.13,21.39Z"/><path d="M401.68,29.65c-3.47-.39-7.34-.68-10.13,1.45a25.22,25.22,0,0,1-26.25,2.31,38.78,38.78,0,0,1,13.67.52l-10.8-7.31c-3.41-2.31-7.24-5.48-6.74-9.56a10.5,10.5,0,0,1,1.76-4.13C367.16,6.64,373,.74,380.42.05s15.39,6.54,13,13.57c-.86,2.48,1.21,5.14,3.64,6.12s5.15.86,7.75,1.23A20.61,20.61,0,0,1,421.86,38.5a4,4,0,0,1-.58,3.07,4.43,4.43,0,0,1-2.13,1.12l-13.11,4c-4.47,1.36-9,2.73-13.69,2.73-4.07,0-8.06-1-12-2.08L327.76,33.48c-3-.78-6.31-1.86-7.57-4.67s2.14-6.86,4.53-4.93c4.49,3.62,11,4,16.39,1.84s9.57-6.49,12.61-11.39a52.36,52.36,0,0,1-16.31-5.52c0-2.4,2.32-4.29,4.69-4.68s4.77.36,7.06,1.09L357.79,8c1.16.37,2.45.87,2.89,2,.6,1.55-.77,3.1-2,4.19l-18.21,16c-1.09,1-.8,2.86.22,3.9a8.17,8.17,0,0,0,3.91,1.82L375.64,44l-15.49-8.56,14.68,4.22c4.13,1.18,8.33,2.38,12.63,2.43,7.45.09,14.47-3.26,21.17-6.53,1.34-3.3-3.41-5.55-6.95-6m-15.56-.72a17.45,17.45,0,0,1-2.49-10.5c.18-2.13.73-4.42-.28-6.3l-7.52,5.15a12.44,12.44,0,0,1-5.28,2.5c-1.95.25-4.21-.72-4.74-2.62-.85-.25-1.14,1.13-.85,2,2.4,6.93,10.17,10.15,17.1,12.55a9.43,9.43,0,0,0,4.07.77,3.25,3.25,0,0,0,3-2.5q.8-6.28,1.61-12.57c.58-4.51.76-10-3-12.59,0,1.62-1.45,2.82-2.23,4.24s-.2,3.91,1.4,3.64c.64-.11,1.11-.66,1.7-.93s1.56,0,1.46.66a14.71,14.71,0,0,0-3.72,3.44,4.94,4.94,0,0,0-.59,4.82,10.23,10.23,0,0,1,.36,8.27m26.61,7.52a2.88,2.88,0,0,1-1.36,1,80.34,80.34,0,0,1-29.2,7.12l-.17.76c7.23,3.17,15.56,1,23.13-1.26l11.66-3.44a3.5,3.5,0,0,0,1.47-.69c1.05-1,.59-2.69.05-4-1.78-4.39-4-9.25-8.51-10.79A58.81,58.81,0,0,0,393.3,22c-1.27,1.4-.42,3.84,1.21,4.8s3.65.85,5.52.57a14.06,14.06,0,0,1,5.62-.23c3.06.79,5,3.74,6.56,6.46.51.87,1,2,.52,2.84M374.51,8.27a6.08,6.08,0,0,1-6,3.36c-1.55-.17-2.61,1.95-1.86,3.32a3.68,3.68,0,0,0,4.1,1.46,10.92,10.92,0,0,0,4-2.35l7.52-6c.94-.75,1.95-1.66,2-2.86a2.83,2.83,0,0,0-2.51-2.56,8.18,8.18,0,0,0-3.83.59c-2.46.79-5.29,2-5.88,4.47l2.49.6M321.7,27.08a22.47,22.47,0,0,0,14.79,4.79c1.11-.05,2.6-.77,2.17-1.79a162.68,162.68,0,0,0-17-3m34.74-17L343.92,6.63a3.15,3.15,0,0,0-2.3,0c-.7.37-.88,1.59-.15,1.87l13.21,3.6a3.32,3.32,0,0,0,2,.11c.63-.25,1.06-1.11.62-1.63A1.72,1.72,0,0,0,356.44,10.11Z"/><path d="M489.13,152q2.44-10.72,4.9-21.44c.4-1.76.74-3.81-.42-5.19-1.6-1.94-1-4.91.35-7s3.23-3.93,4.2-6.26c1.23-3,.77-6.3.89-9.5s1.23-6.82,4.17-8.1c.94,3.82-2.2,7.61-1.84,11.53a6.57,6.57,0,1,0,12.92-2.18l-9.57-.17a3.37,3.37,0,0,1-1.13-4.12l10.56,1.93a5.47,5.47,0,0,1,3.05,1.24c1.53,1.6.57,4.3-.88,6s-3.41,3.12-3.9,5.27c4.72,1.06,7.43-5.15,8.2-9.93.6-3.74,1.15-7.77-.57-11.14-2.95-5.78-11.67-6.52-16.92-2.69s-7.45,10.64-7.95,17.11c-2-.36-3.11-2.59-3-4.58a12.3,12.3,0,0,1,2.29-5.46c3.29-5.26,7.21-11,13.28-12.3s12.29,2.52,14.9,8,1.91,12.18-.79,17.64c-1.64,3.32-4.53,6.58-8.23,6.54,3.65,6.09,7.42,13.37,4.72,19.94a11.79,11.79,0,0,0-1.27,3.61c-.22,3.4,3.89,5.9,3.72,9.3-.14,2.88,3.67,4,6.54,4.06s6.68.91,6.83,3.78c7.17-5.47-1-18.24,4.15-25.67,4.91-7.13,4-16.6,3-25.18l-3.1-24.72a6.14,6.14,0,0,1-6.64,6.41c2.55-3,5.13-6,6.55-9.69s1.44-8.09-.92-11.22l8.16-3.2a13,13,0,0,0-2.5-5.71,8.41,8.41,0,0,1,6,1.67,8.7,8.7,0,0,1,4.93-9.37l-.5,8.64c2.9-.89,7.59-.34,7,2.64l16.3-2.68a6.45,6.45,0,0,1,3-9.3l-2.11,9.49c10.69.62,21.31-1.78,31.76-4.16l87.73-20c-4.52,2.88-9.83,4.2-15,5.47-22.77,5.59-45.54,11.18-68.55,15.69q-35.19,6.9-70.94,10.4l-.2,6.35,4.19-.79c-5.82,7.71-4.86,18.45-3.15,28s3.81,19.77-.37,28.48c-1.35,2.82-3.35,5.45-3.63,8.55-.3,3.25,1.35,6.37,1.5,9.62a21.12,21.12,0,0,1-1.6,7.76c-1.47,4.34-3.51,9.25-7.89,10.6-3.87,1.19-9.36-.31-11.09,3.34-2-3.42-6.65-4.13-10.57-3.61s-7.86,1.88-11.74,1.11c-6.15-1.23-10.09-7.46-11.51-13.57s-1.05-12.53-2.45-18.64c-3.13-13.63-14.63-24.46-16.51-38.31-1.13-8.3.88-18.18-5.22-23.93-3.42-3.24-8.43-4-13.1-4.61l-15.34-2a29.29,29.29,0,0,1,18.75.4A5.35,5.35,0,0,0,450,59.13a5.62,5.62,0,0,1,6.62,2.56,14.64,14.64,0,0,1,2.64-8.92,11.67,11.67,0,0,1,.81,10,6.65,6.65,0,0,1,7.52.86c-3,0-4.56,3.9-3.77,6.79s3,5.15,4.41,7.79c3.91,7.26,1.57,16.29,3.56,24.29,1.43,5.71,5,10.6,7.88,15.7a78.07,78.07,0,0,1,10.16,39.41c0,2.86,4.65,3.35,6.45,1.12s1.61-5.39,1.8-8.25a27,27,0,0,1,3.69-12,55.15,55.15,0,0,1,.11,25.77c4.21,1.15,7.68-3.85,7.87-8.21s-1.36-8.79-.3-13a5.42,5.42,0,0,1-3.74-1.83,12.06,12.06,0,0,1,7.92-8.16c3.18-1,2.88-5.68,1.23-8.57s-4.09-6-3-9.16c-3.28-1.38-7-2-10.4-.84s-6.11,4.48-5.83,8c.41,5.33,6.65,8.2,8.77,13.1a14.38,14.38,0,0,1-7.64-5.74,43.74,43.74,0,0,1-7.61,22.1m39.33,11.77a5.44,5.44,0,0,0,3.7-1.44c1.49-1.75.14-4.73-2-5.5s-4.59.11-6.51,1.38-3.57,2.92-5.6,4c-.75.89.86,1.86,2,1.89a59.18,59.18,0,0,0,8.42-.33m-16.38-18.36.23,16a3,3,0,0,0,.83,2.51,1.52,1.52,0,0,0,1.65.06,4,4,0,0,1,2.86-4.92c1.63-.32,1.26-2.78.45-4.23a98,98,0,0,0-6-9.4m-11.24,3.74c-.71,3-1.41,5.91-2.12,8.86a5.46,5.46,0,0,1-1.64,3.27c-.7.52-1.79.95-1.67,1.82.62,1.25,2.54,1.31,3.63.42a6.07,6.07,0,0,0,1.77-3.7,28.57,28.57,0,0,0,0-10.67m12.79-4.57q2.63,3.47,5.24,6.92A18.25,18.25,0,0,0,513,140.52c-1.11,1-.23,2.84.68,4m-3.84-7c-.7.46-.33,1.67.44,2a2.94,2.94,0,0,0,2.38-.37,12.79,12.79,0,0,0,4.9-4.42,26.49,26.49,0,0,0-7.72,2.81m41.31-77.7a1.49,1.49,0,0,0-1.46.27,4.63,4.63,0,0,0,.83,4.09,3.93,3.93,0,0,0,.61-4.38m3.6,3.32a1.87,1.87,0,0,0,2.15-1.81,1.57,1.57,0,0,0-2.24,1.57Z"/><path d="M374.66,74.82c0,2.12-.61,4.87-2.72,5.07s-3.21-2.27-3.76-4.26L365.24,64.8l-15.9-3.32q.3,10.77.61,21.54a4.54,4.54,0,0,1-.25,2c-.85,1.85-3.82,1.58-5.09,0s-1.34-3.79-1.4-5.82a144,144,0,0,0-7.07-40.94c.81-1.28,2.61.46,3,1.92q2,6.86,3.76,13.75c1,4,5.88,5.31,9.93,6l25,4.05c4.4.72,8.88,1.43,13.27.68,2.33-.39,5.18-1,6.69.8-5.34,3.14-12,2.21-18.14,1.18l-6.18-1a46.37,46.37,0,0,1,1.17,9.24m-30.8-15,2.15,20c.21,2,.55,4.22,2.15,5.44q-.62-10.85-1.22-21.68a6.08,6.08,0,0,0-.63-2.8,2.05,2.05,0,0,0-2.45-1m27.28,7.64a3.3,3.3,0,0,0-1-2,1.67,1.67,0,0,0-1.6-.18,52.81,52.81,0,0,0,2.84,12.42C372.94,74.64,372.06,70.87,371.14,67.48Z"/><path d="M537.35,169.31a13.41,13.41,0,0,1,3.13-4.7c1.46-1.22,3.68-1.73,5.26-.67,1.9,1.26,4.34-.4,6-2s4-3.3,6-2.09c1.5.94,1.63,3,1.84,4.76s1.09,3.87,2.85,3.9a6,6,0,0,1,1.85,11.77c-.45,1.56.59,3.15,1.77,4.26s2.59,2.06,3.28,3.53c1.18,2.5-.4,5.68-2.88,6.91s-5.49.85-8-.23a13.91,13.91,0,0,0-3.47-1.26,3,3,0,0,0-3.15,1.41c-1.68,3.69-7.82,4-9.87.51-1.23-2.11-1.65-5.46-4.09-5.6a5.43,5.43,0,0,0-1.69.31c-3.08.85-6.8.46-8.83-2s-1-7.12,2.19-7.57c-.93,2-1.83,4.43-.63,6.27s4.23,1.93,5.94.47a7.09,7.09,0,0,0,2-6.16,9.35,9.35,0,0,1-7.71-3.79,6.8,6.8,0,0,1,.42-8.26c2.06-2.16,6.08-2.18,7.85.22m15.11,11.93a4.15,4.15,0,0,0-1.34-4.1,12.24,12.24,0,0,0-4-2.2,3.92,3.92,0,0,0-4.18,1.27,11.59,11.59,0,0,0-2.09,4.11,2.72,2.72,0,0,0-.21,1.48,2.22,2.22,0,0,0,.8,1.14,7.66,7.66,0,0,0,9.32.39,4.29,4.29,0,0,0,1.65-2.09m3.48,2.63c-.53,1.27.12,2.88-.64,4-1.09,1.68,1.22,3.48,3.1,4.16s4.14,1.44,6.09.69,3-3.75,1.3-5-2.75-3.19-4.42-4.46-4.61-1.4-5.43.53m-.17-12.78a3.5,3.5,0,0,0-2.38-.27A12.19,12.19,0,0,0,555.6,177a6.17,6.17,0,0,0,5.82,2.47,4.82,4.82,0,1,0-2.57-9.27,11.29,11.29,0,0,1-2,5.18,4.22,4.22,0,0,1-1.08-4.29m-19.91-.19c-1.92-.77-4.55-1.36-5.71.35s.25,3.82,1.81,5,3.54,2.11,4.22,3.95A6.16,6.16,0,0,0,541,173l-5.16-2.09m14.4,20.57c-1.22-3-5.31-4.24-8.32-2.93-.45,2.78.6,6.05,3.19,7.13s6.17-1.58,5.13-4.2m1.23-25.85a4.92,4.92,0,0,0,.6,4.12c1.63-.55,3.37-1.18,4.4-2.55s.92-3.76-.66-4.46c-1.79-.8-3.67,1.07-4.32,2.92m-8.27,5.6c1.66-1,3.56-2.42,3.2-4.3a4.8,4.8,0,0,0-4.36-1.09,3.32,3.32,0,0,0-2.39,3.55,2.56,2.56,0,0,0,3.55,1.84M550,173.8a.88.88,0,0,0,1.47.31c-.45-2.3-1.93-5.28-4.17-4.57a3.28,3.28,0,0,0,2.66,4m3,11.93a1.86,1.86,0,0,0-2.22,1.49,3.29,3.29,0,0,0,.93,2.76,3.91,3.91,0,0,0,1.37-4.3m-15.18.36c.11,1.52,2.39,1.36,3.77.73.12-1.77-3-2.39-3.58-.7Z"/><path d="M588.34,32.67a13.89,13.89,0,0,0,3.87-.15c3.06-.86,4.3-4.39,5.95-7.11,4.31-7.06,14.53-9.71,21.73-5.63,4.35,2.46,9.72.15,14.7-.31,6.31-.58,12.59,2,17.63,5.87s9,8.85,13,13.81c-1.52.29-2.94-.76-4.09-1.8-7.39-6.65-14.29-16-24.22-15.94-3.7.05-7.26,1.49-10.95,1.54-4.65.08-9-2-13.64-2.72s-10.28.85-11.65,5.29l7.27-.52c.25,2.39-3.51,2.14-5.86,2.61-4.93,1-6.35,8.86-11.36,9.2-2.43.17-4.23,2.31-5.44,4.42S583,45.71,581,47s-5.49.76-6-1.62a13.83,13.83,0,0,1,13.37-12.74M577,44.83c1.66,1,3.8-.47,4.75-2.18s1.43-3.78,3-5,3.84-1.46,4.67-3.19a9.41,9.41,0,0,0-8.2,2.6A15.59,15.59,0,0,0,577,44.83Z"/><path d="M289,73.9a32,32,0,0,1-8.06-.72c-1.72-.45-3.35-1.19-5.1-1.51a21.07,21.07,0,0,0-5.61,0,159.65,159.65,0,0,0-20.05,3.07c-.74.17-1.21-1-.79-1.61a2.94,2.94,0,0,1,2-1c10.24-2.1,20.93-4.19,31-1.54,8.56,2.25,17.76-.36,26.43,1.44,1,.22,2.33,1.25,1.62,2Z"/><path d="M408.93,89c-5.57-.66-9.78-6.19-10-11.8-.27-6.56,4.12-12.7,9.86-15.87a19,19,0,0,1,5.23-2c6.19-1.33,13.53,1.81,15.4,7.86a13.23,13.23,0,0,1-1.61,10.45,25.53,25.53,0,0,1-7.65,7.63c-3.32,2.28-7.22,4.21-11.23,3.73m14.31-25.78c-4.49-3-10.51-.61-15.1,2.2a12.86,12.86,0,0,0-3.81,3.13A11.37,11.37,0,0,0,402.77,72c-1.27,4.34-1.2,9.77,2.38,12.54S414,86,417.94,83.74c3.67-2.12,7-5.15,8.45-9.15S426.78,65.56,423.24,63.22Z"/><path d="M399.29,37.22l-16.1,1.57c-1.12.11-1.79-1.24-1.93-2.36a155.11,155.11,0,0,1,21.42-1.57C402.83,36.39,400.83,37.07,399.29,37.22Z"/><path d="M362,33.08a33.92,33.92,0,0,1-7.67-.06c-1.2-.14-2.39-.35-3.58-.56l-7.44-1.3a5.78,5.78,0,0,1,7.4-1.11c1.72,1.14,4,.78,6,.69S361.24,31.16,362,33.08Z"/><path d="M359.78,27.68c-1.57-.85-3-2.33-4.78-2.22-1,.07-1.86.62-2.83.73s-2.18-.57-2-1.53c2.21-2.09,5.78-1.76,8.61-.65s5.46,2.89,8.47,3.32a7.4,7.4,0,0,1-7.48.35Z"/><path d="M535,49.33c-1,1.22-1.37,3-2.77,3.73-1.12-.44-.81-2.12-.14-3.11a11.6,11.6,0,0,1,13.51-4.19,3.11,3.11,0,0,1,1.86,1.53c.58,1.49-1,2.89-2.32,3.75L534.38,57.9a7,7,0,0,1-3.13,1.33,2.39,2.39,0,0,1-2.58-1.76c-.14-1.14,1.45-2.17,2.24-1.34,1,1.09,2.85.25,4.07-.64l7.11-5.12a5.37,5.37,0,0,0,2.12-2.29C541,47.3,537,46.76,535,49.33Z"/><path d="M418.56,56.56c1.54-.58,2.09-2.52,1.93-4.16s-.81-3.22-.79-4.87c0-1.41,1.38-3.12,2.54-2.31l.81,5.92c.22,1.63.42,3.39-.42,4.8S419.48,57.92,418.56,56.56Z"/><path d="M573.14,41.46l-13.33,4a1,1,0,0,1-1.28-1,40.82,40.82,0,0,1,16-4.64C574.93,40.58,573.93,41.23,573.14,41.46Z"/><path d="M628,16.86a114.26,114.26,0,0,1-12.39-1,24.87,24.87,0,0,1,15.4-.29C630.6,16.7,629.13,16.88,628,16.86Z"/><path d="M516.24,98.26c-1.24,1.62-3.79,1.57-5.59.61a7.73,7.73,0,0,1-3.73-4.6,2.61,2.61,0,0,1,1.57-1,12,12,0,0,0,7.75,4.94Z"/><path d="M526.57,72.72c-1.35.1-1.36-2-.73-3.23a31,31,0,0,1,4.42-6.35c.73-.8,2.52-1.19,2.45-.11a1.27,1.27,0,0,1-.27.63Q529.52,68.19,526.57,72.72Z"/><path d="M526.4,60.38l-4.24,10.54-1.67-1.61A15,15,0,0,1,526.4,60.38Z"/><path d="M537.34,199.09c-1.86-.58-3.91-1.32-4.78-3.06s.73-4.46,2.53-3.73a3.6,3.6,0,0,0,4.86,5.06c.68.39.38,1.54-.33,1.87A3.28,3.28,0,0,1,537.34,199.09Z"/><path d="M554.7,40.37a1.27,1.27,0,0,1-.89.23.67.67,0,0,1-.48-.53,12.62,12.62,0,0,1,11-5Z"/><path d="M397.77,51.76l.07,5.51c0,1.31-1,3.19-2,2.32a1.73,1.73,0,0,1-.4-1.3l-.12-5.59c0-1.32.93-3.22,2-2.44A1.82,1.82,0,0,1,397.77,51.76Z"/><path d="M507.52,108.93a2.08,2.08,0,0,1-1.84-1.82c1-1,3,.87,2,1.89Z"/><path d="M510.2,123.9c1.52,2.29,2.87,5.78.65,7.39a16.62,16.62,0,0,1-2.49-6.59A1.42,1.42,0,0,1,510.2,123.9Z"/><path d="M501.39,126.74A4.81,4.81,0,0,1,500,123.4c.15-1.22,1.77-2.21,2.66-1.36a2.83,2.83,0,0,1,.63,1.61,11.8,11.8,0,0,0,6.14,8.15,1.54,1.54,0,0,1-1.89,1.06,4.2,4.2,0,0,1-2-1.34A54.28,54.28,0,0,1,501.39,126.74Z"/><path d="M536.19,175.34a2.29,2.29,0,0,1,2.23-.93,2.35,2.35,0,0,1-1.37,3,1.84,1.84,0,0,1-.84-2Z"/><path d="M378.33,20.85a16,16,0,0,0,5.79,7.55c-1.41,1.17-3.48-.23-4.6-1.67s-2.55-3.23-4.34-2.82c-1.46.34-3.31,1.94-4,.62-.54-1,.86-1.94,2-2.25Z"/><path d="M414.89,70.89a4.46,4.46,0,0,1,3.43,3.19,5,5,0,0,1-1.07,3.62c-1.45,2.13-3.95,3.88-6.47,3.35-2.85-.61-4.43-4.25-3.24-6.91a6.4,6.4,0,0,1,7.35-3.25m-3.45,8.24a4.43,4.43,0,0,0,3.91-5.4,3.35,3.35,0,1,0-3.91,5.4Z"/></g></g></g></svg>