<svg xmlns="http://www.w3.org/2000/svg" viewBox="0 0 163.4 150.46"><defs><style>.cls-1{fill:#fff;}.cls-2{fill:#ddd2c5;}.cls-3{fill:#662d91;}.cls-4{fill:#b5b5b5;}.cls-5{fill:#ac87cc;}.cls-6{fill:#0071bc;}.cls-7{fill:#9e9e9e;}</style></defs><title>Dog</title><g id="Layer_2" data-name="Layer 2"><g id="Layer_1-2" data-name="Layer 1"><g id="Dog"><path class="cls-1" d="M29.47,70.42a2,2,0,0,0,.85-2.67,1.43,1.43,0,0,0-2.47.17,2.41,2.41,0,0,0,.25,1.5C28.34,70,28.91,70.74,29.47,70.42Z"/><path class="cls-1" d="M20.57,68.76a.59.59,0,0,0-.23-.94,1,1,0,0,0-1.06.31,1.33,1.33,0,0,0,.08,2c.67.38,1.65-.56,1.15-1.14Z"/><path class="cls-2" d="M91.76,41.74c1.85-1,4.14-.93,6-1.89s2.95-4,1.09-5c-1.29-.7-2.81.22-4.15.84s-3.42.62-3.75-.82a11.05,11.05,0,0,0-3.07-5.45,2.14,2.14,0,0,0-1.06-.67c-1.32-.27-2,1.63-1.64,2.92s1.41,2.41,1.4,3.77a5.15,5.15,0,0,1-.74,2.29c-1.68,3.28-3.51,6.47-5.34,9.66l-2.88,5c-3,5.28-6.07,10.57-8.77,16A6.26,6.26,0,0,0,68,71.28a2.21,2.21,0,0,0,1.67,2.21q9.23-14,18.6-28a11.16,11.16,0,0,1,3.47-3.75h0"/><path class="cls-3" d="M38,69.84c-.49,5.19,5.11,10,10.16,8.67-2.49.92-5.33.26-7.86,1.08"/><path class="cls-4" d="M43,77.94c-.2-2,.11-4.45-.53-6a4.18,4.18,0,0,0-3.9-2.82c-1.71.14-3.07,2.33-2.06,3.71,2.93,4-.34,9.5-3.51,13.32l-2.41-6.88c-.45,4.2-6.81,6.16-9.55,2.94-.59,1.71,1.07,3.53,2.86,3.78s3.54-.57,5.13-1.43c1.28-.69,2.71,1.25,2.11,2.58S28.93,88.93,27.48,89A12.42,12.42,0,0,1,15,80.11c-.57-2.16-.55-4.51-1.6-6.49s-3.86-3.3-5.54-1.82c-1.47,1.29-1,3.61-1.1,5.57s-1.86,4.35-3.52,3.32c-1.06-.66-1-2.17-.91-3.41l1.43-13c.28-2.53.58-5.14,1.83-7.37s3.69-4,6.22-3.61,4.45,3.52,3.05,5.65c-.58.89-1.26,2.51-.2,2.53a6.8,6.8,0,0,0,3.57-7c-.15-.9.92-1.47,1.8-1.72a20.66,20.66,0,0,1,8.61-1.15c2.89.41,5.76,2.19,6.65,5,.42-3.15,5.18-3.88,7.59-1.81s3,5.51,3.46,8.66c.61,4.32,1.62,10.15,2,14.49.05.54.23.74-3,1"/><path class="cls-1" d="M29.48,70.36a2,2,0,0,0,.85-2.67,1.42,1.42,0,0,0-2.46.18,2.38,2.38,0,0,0,.24,1.49C28.36,70,28.93,70.69,29.48,70.36Z"/><path class="cls-1" d="M20.57,68.76a.59.59,0,0,0-.23-.94,1,1,0,0,0-1.06.31,1.33,1.33,0,0,0,.08,2c.67.38,1.65-.56,1.15-1.14Z"/><path class="cls-5" d="M38,69.84A10.58,10.58,0,0,1,43,77v.8s-1.91-.54-3.74-3.81A8.26,8.26,0,0,1,38,69.84Z"/><path class="cls-5" d="M12.59,74.94c.38-2.07-3.23-2.7-4.42-1s-.61,4.08,0,6.08c1.18-1.2,3.08-3,4.27-4.23"/><path class="cls-6" d="M62.7,62.6A200.86,200.86,0,0,1,79.3,33.3c.66,2.39,2.77,5.42,4.86,4.08,1.55-1,1-3.44-.1-4.91s-2.68-2.84-2.73-4.68c-8.92,7.77-14.49,18.57-19.86,29.1"/><path class="cls-6" d="M86.69,50.82c-.29-.94.49-2.41.71-1.94,1.87,4,3.95,11.12,5.27,15.31"/><path class="cls-6" d="M93.4,66.88c6-6,13.95-21.21,17.27-24.8L121.5,52.6a2.59,2.59,0,0,0,1.76,1c1,0,1.54-1.07,1.91-2l9-21.65a13.73,13.73,0,0,1,3.28-5.36c1.6-1.38,4.18-1.89,5.82-.55a68.9,68.9,0,0,0,0-7.74,2.39,2.39,0,0,0-.8-2,2.44,2.44,0,0,0-2.17.18l-6.55,2.74c2.54,3.1-.21,7.58-2.65,10.76a75.7,75.7,0,0,0-10.64,19.16l-8.91-11a79.74,79.74,0,0,0-15.73,19.4c-.7,1.22-2.76.49-3.29-.81s-.18-2.78-.25-4.19-.92-3-2.32-3c-1.09,0-1.85,1-2.44,1.94"/><path class="cls-4" d="M43.75,110c.09.63-1.09.66-1.29.06a2,2,0,0,1,.59-1.75A38.18,38.18,0,0,1,50,100.81c2.37-1.79,5.13-3,7.54-4.73,5-3.63,8.2-9.26,11.19-14.71L68.25,79c.93.58,1.84-1.17,1.11-2s-2-.77-3.09-.65l1.57-2.24c-.64-1.72-3.42-1.34-4.45.18s-1,3.48-1.25,5.29C61,86.49,54.49,91,48.53,94.7c-2.05,1.27-4.86,2.51-6.67.9s-1-4.87-2.52-6.76c-1.3-1.59-3.79-1.56-5.7-.81s-3.58,2-5.54,2.66A8.63,8.63,0,0,1,19,87.85c-1,4.34-4.84,7.67-5.66,12.06-.66,3.52.71,7,1.79,10.47a67.25,67.25,0,0,1,.63,38.26,10.81,10.81,0,0,0,5.06-6.2l-.45,5.16c3.78.35,6.3-4.06,6.41-7.86.09-3.18-.75-6.51.4-9.49s5.76-4.72,7.44-2"/><path class="cls-5" d="M27.85,129.05V125l-3.67-13L26,105.32l5.7-1.87L37,107l2.51,6.5,1,16.64-.5,1.27-2.56-1.94s-2.8-2.57-7.51-.39C27.46,130.16,27.85,129.05,27.85,129.05Z"/><path class="cls-7" d="M14,141.7l1.84-.84s.24-1.6.34-4.08c.3-6.84.4-20.33-2-24.82,0,0-5.84.67-7.22,2.45-1.6,2.06-1.63,6.81,4.79,15.28-2,5.22,2.48,3.56-3.44,6.66S7.26,144.17,14,141.7Z"/><path class="cls-7" d="M39.94,131.38s2.5-5.76.36-14.7c0,0,4.44-4.14,6.67,10.26a9.09,9.09,0,0,0,7.3,6.83c6.29,1.27,1.08,6.8,1.08,6.8L48.66,142l-5-2.12Z"/><path d="M49.2,15.68C84.51,7.32,120.52,1.66,156.77,0c2-.09,2.72,2.5,2.84,4.47l3.78,64.47a1.81,1.81,0,0,1-.16,1.08,1.85,1.85,0,0,1-1.3.66q-44.57,8.79-88.64,19.87c-.05-.77.88-1.19,1.63-1.38q41.85-10.82,84.19-19.63a4.09,4.09,0,0,0,2.11-.87c.84-.8.86-2.12.82-3.28Q160.9,34.67,158.3,4c-.08-1-.29-2.11-1.19-2.47a2.65,2.65,0,0,0-1.19-.09C135,3.09,114,4.73,93.32,8.2c-6,1-11.9,2.16-17.83,3.31l-27.31,5.3C47.88,16.3,48.62,15.81,49.2,15.68Z"/><path d="M10.47,127.76a9.17,9.17,0,0,1,1.75,3.43,4,4,0,0,1-1.37,3.66c-1.07.88-2.58,1.18-3.46,2.24a3.19,3.19,0,0,0,0,3.83A3.82,3.82,0,0,0,11,142.29c1-.18,2-.73,3-.59a4.9,4.9,0,0,1-7.06,1.39,4.9,4.9,0,0,1-.11-7.2c.94-.81,2.17-1.22,3.11-2s1.5-2.33.69-3.26a26.19,26.19,0,0,1-4.48-8.18,15.16,15.16,0,0,1-1.2-4.84A5.92,5.92,0,0,1,6.59,113a3.74,3.74,0,0,1,4.6-.47c-1.49.3-3.12.68-4,1.89s-.79,3-.43,4.6A26.25,26.25,0,0,0,10.47,127.76Z"/><path d="M48.63,27.38c2.2,12.75,3.95,25.58,5.69,38.4a6,6,0,0,1-.29,3.7l-8.52-53C47.28,19.84,48,23.64,48.63,27.38Z"/><path d="M48.34,130.14l7,2.73a4.42,4.42,0,0,1,2.07,1.3,3.91,3.91,0,0,1,.57,2.31c0,1.71-.37,3.62-1.76,4.61a6.89,6.89,0,0,1-1.91.82,14.12,14.12,0,0,1-4.74.86,9.2,9.2,0,0,1-5.87-2.92,23.44,23.44,0,0,1-3.77-5.5c-.88-1.62-1.73-3.26-2.53-4.91a2.9,2.9,0,0,1-.42-1.55,1,1,0,0,1,1.1-.93,4.16,4.16,0,0,0,.76,2.4L42,135c1.47,2.63,3.24,5.51,6.16,6.27,1.17.3,2.68.06,3.16-1.05.39-.87,1.67-.45,2.62-.37A2.71,2.71,0,0,0,56,135.15a7.93,7.93,0,0,0-3.11-1.35A8.68,8.68,0,0,1,48.34,130.14Z"/><path d="M93.67,67.19c-1.9-.52-2.91-2.54-3.68-4.35-1.13-2.64-2.27-5.27-3.4-7.9a1.21,1.21,0,0,1-.14-.69c.09-.51.79-.68,1.24-.43A2.5,2.5,0,0,1,88.6,55,98.57,98.57,0,0,1,93.67,67.19Z"/><path d="M30.53,65.35c1.46.71,1.66,2.74,1.21,4.29C31.35,71,30.36,72.37,29,72.38c-1.7,0-2.7-2-2.56-3.71a4.23,4.23,0,0,1,1.24-2.79,2.66,2.66,0,0,1,2.88-.53m-1.05,5.06a2,2,0,0,0,.85-2.67,1.42,1.42,0,0,0-2.46.18,2.38,2.38,0,0,0,.24,1.49C28.36,70,28.93,70.74,29.48,70.41Z"/><path d="M19.5,65.39a2.5,2.5,0,0,1,2.57,2,4.79,4.79,0,0,1-.65,3.4c-.49.9-1.41,1.82-2.4,1.53S17.8,71,17.63,70.17a6,6,0,0,1-.06-2.86,2.54,2.54,0,0,1,1.93-1.92m1.05,3.37a.59.59,0,0,0-.23-.94,1,1,0,0,0-1.06.31,1.33,1.33,0,0,0,.08,2c.67.38,1.65-.56,1.15-1.14Z"/><path d="M55.06,137.34a3.26,3.26,0,0,1-2.54.24,2.33,2.33,0,0,1-1.26-.89A3.27,3.27,0,0,1,55.06,137.34Z"/><path d="M23,146.33A1.31,1.31,0,0,1,24,144a2.55,2.55,0,0,1-1.18,2.35Z"/><path d="M49.57,139.64a2.82,2.82,0,0,1-2.31-1.17,2.81,2.81,0,0,1,2.94,1l-.6.38Z"/><path d="M14.16,136.38a3,3,0,0,1,1,1.25.94.94,0,0,1-1.39,0,.93.93,0,0,1,.31-1.35Z"/><path d="M95.21,64.44a.73.73,0,0,1,.35,1.13.74.74,0,0,1-1.18-.16l.78-.79Z"/><path d="M27,113.5a.7.7,0,0,1-.39.62.86.86,0,0,1,0-1.29,1,1,0,0,1,.41.68Z"/><path d="M101.13,56.21a.75.75,0,0,1,.52-.91.56.56,0,0,1-.42.89Z"/><path d="M43.74,110.05c.1.63-1.08.67-1.29.06a2,2,0,0,1,.59-1.74A37.9,37.9,0,0,1,50,100.84c2.37-1.79,5.13-3,7.54-4.74,5.05-3.63,8.2-9.26,11.2-14.7L68.24,79c.94.57,1.85-1.17,1.11-2s-2-.76-3.09-.64l1.57-2.25c-.64-1.71-3.42-1.33-4.45.18s-1,3.49-1.24,5.29C61,86.51,54.48,91,48.52,94.73c-2.05,1.27-4.86,2.5-6.66.9s-1-4.87-2.53-6.77c-1.3-1.58-3.78-1.56-5.69-.81s-3.59,2.06-5.55,2.67A8.63,8.63,0,0,1,19,87.87c-1,4.35-4.83,7.67-5.66,12.06-.66,3.52.72,7.06,1.8,10.48a67.42,67.42,0,0,1,.63,38.26,10.94,10.94,0,0,0,5.06-6.21l-.46,5.17c3.78.34,6.3-4.07,6.41-7.86.09-3.19-.75-6.52.4-9.49s5.76-4.73,7.44-2c-3.63-.69-7.24,3.38-6.13,6.91a12,12,0,0,1-2.63,11.58,12,12,0,0,1-11.39,3.39c-1.69-.41-3.44-2.65-1.94-3.53,3.16-1.86,3.6-6.17,3.68-9.83.24-10.15.38-20.75-4-29.92C9.09,100.43,13.06,93,16.93,87A13.07,13.07,0,0,1,12.59,75c.38-2.07-3.23-2.71-4.42-1s-.6,4.08,0,6.08l3.56-3.6c-.75,3.28-2.63,7.06-6,7.2-2.48.09-4.61-2-5.33-4.43s-.38-4.94,0-7.4L1.92,61.23c.49-3.48,1.44-7.57,4.72-8.87,2.16-.86,4.59-.14,6.91-.15,4.95,0,9.58-3.3,14.51-2.77,4.57.5,9,4.25,13.29,2.57,1.6-.64,3.47.3,4.46,1.71a11.52,11.52,0,0,1,1.61,4.85l1.68,9.7c.58,3.3,1.09,7-.68,9.8q-1-7.35-2.06-14.68c-.45-3.15-1-6.58-3.46-8.66s-7.17-1.34-7.59,1.81c-.89-2.78-3.76-4.56-6.65-5a20.66,20.66,0,0,0-8.61,1.15c-.88.25-1.95.82-1.8,1.72a6.8,6.8,0,0,1-3.57,7c-1.06,0-.38-1.64.2-2.53,1.4-2.13-.53-5.28-3.05-5.65s-5,1.39-6.22,3.61-1.55,4.84-1.83,7.37l-1.43,13c-.14,1.24-.15,2.75.91,3.41,1.66,1,3.46-1.36,3.52-3.32s-.37-4.28,1.1-5.57c1.68-1.48,4.49-.15,5.54,1.82s1,4.33,1.6,6.49A12.42,12.42,0,0,0,27.48,89c1.45-.1,3.08-.61,3.69-1.94s-.83-3.27-2.11-2.58c-1.59.86-3.34,1.68-5.13,1.43s-3.45-2.07-2.86-3.78c2.74,3.22,9.1,1.26,9.55-2.94L33,86.1c3.17-3.82,6.44-9.3,3.51-13.32-1-1.38.35-3.57,2.06-3.71a4.18,4.18,0,0,1,3.9,2.82A12.28,12.28,0,0,1,43,77a10.59,10.59,0,0,0-5-7.14c.43,5,5.11,10,10.16,8.67-2.49.92-5.33.26-7.86,1.08s-4.25,4.68-1.93,6a9.78,9.78,0,0,1,4.88,9.57C49.85,92,57,88.37,59.85,81.62c2.12-5.08,1.27-10.85.39-16.28l-6.66-41.1a1.7,1.7,0,0,0-2,.84,3.55,3.55,0,0,1,6.68-1.91,5.78,5.78,0,0,1-3.41-.38l7.33,45.87a4.4,4.4,0,0,0,1,2.49,1.53,1.53,0,0,0,2.34-.06L77.5,49.36c2.48-4.47,4.78-10.58,1.15-14.18a279.59,279.59,0,0,1-16,27.42A200.86,200.86,0,0,1,79.3,33.3c.66,2.39,2.77,5.42,4.86,4.08,1.55-1,1-3.44-.1-4.91s-2.68-2.84-2.73-4.68c-8.92,7.77-14.49,18.57-19.86,29.1A63.77,63.77,0,0,1,79.15,28.27,4.31,4.31,0,0,1,81.36,27c.86-.11,1.87.53,1.81,1.39,4-2.32,10,1.52,9.49,6.14a12.44,12.44,0,0,1,5.06-1.11,4.23,4.23,0,0,1,3.94,2.87c.46,1.9-1,3.8-2.74,4.69S95.17,42,93.29,42.51a2.84,2.84,0,0,0-1.94,1.23c-.44.87,0,1.9.47,2.76l3.28,6.32a163.88,163.88,0,0,1,14-16.51c.89-.92,2.07-1.9,3.29-1.51a3.43,3.43,0,0,1,1.59,1.41l6.31,8.52c2.35-5.55,4.75-11.18,8.52-15.87,1.49-1.85,3.21-3.6,4-5.84s.25-5.18-1.88-6.21l10.57-3.95a2.53,2.53,0,0,1,2-.16c.74.39.89,1.36,1,2.19q.26,3.56.53,7.11c.14,1.83-1.09,4.54-2.6,3.49s-3.74-.37-5,1a12.73,12.73,0,0,0-2.33,5,92.63,92.63,0,0,1-10.54,22.64c-.35.55-.79,1.15-1.44,1.24a2.35,2.35,0,0,1-1.8-.9l-10.7-10.13-7.81,10a43.42,43.42,0,0,1,8-12.23L121.5,52.6a2.59,2.59,0,0,0,1.76,1c1,0,1.54-1.07,1.91-2l9-21.65a13.73,13.73,0,0,1,3.28-5.36c1.6-1.38,4.18-1.89,5.82-.55a68.9,68.9,0,0,0,0-7.74,2.39,2.39,0,0,0-.8-2,2.44,2.44,0,0,0-2.17.18l-6.55,2.74c2.54,3.1-.21,7.58-2.65,10.76a75.7,75.7,0,0,0-10.64,19.16l-8.91-11a79.74,79.74,0,0,0-15.73,19.4c-.7,1.22-2.76.49-3.29-.81s-.18-2.78-.25-4.19-.92-3-2.32-3c-1.09,0-1.85,1-2.44,1.94L74.14,70c-1.91,2.91-3.9,6.2-3.27,9.62A425.55,425.55,0,0,1,141,63.68c2.63-.37,6.13-2,5.26-4.5a3.92,3.92,0,0,1,1.94,6.16c-.71.49-.85-1.11-.21-1.68a605.38,605.38,0,0,0-67,14c-5.82,1.56-12.57,4.16-13.9,10-2,8.67-14,10.54-18.88,18-2.09,3.22-3.32,7.88-7.11,8.56,2.78,0,4.42,3.14,4.86,5.88s.55,5.9,2.66,7.71c-1.77.47-3.36-1.37-3.73-3.17s0-3.69-.53-5.45-2.46-3.37-4.07-2.51a21.49,21.49,0,0,1,.14,13.43l-1.87-14.4c-.36-2.73-.75-5.56-2.19-7.92s-4.23-4.11-6.91-3.47c-4.13,1-5.18,6.53-4.14,10.65s3.29,8.16,2.57,12.35A71.15,71.15,0,0,1,23.83,113c-.43-2.46-.67-5.19.75-7.24,1.92-2.78,5.89-3,9.28-2.93a11.58,11.58,0,0,1,4.3,4.92c.65,1.44,1.1,3.12,2.42,4s3.71-.21,3.16-1.69m48-68.31c1.85-1,4.14-.93,6-1.89s2.95-4,1.09-5c-1.29-.7-2.81.22-4.15.84s-3.42.62-3.75-.82a11.05,11.05,0,0,0-3.07-5.45,2.14,2.14,0,0,0-1.06-.67c-1.32-.27-2,1.63-1.64,2.92s1.41,2.41,1.4,3.77a5.15,5.15,0,0,1-.74,2.29c-1.68,3.28-3.51,6.47-5.34,9.66l-2.88,5c-3,5.28-6.07,10.57-8.77,16A6.26,6.26,0,0,0,68,71.28a2.21,2.21,0,0,0,1.67,2.21q9.23-14,18.6-28a11.16,11.16,0,0,1,3.47-3.75Z"/></g></g></g></svg>