<svg xmlns="http://www.w3.org/2000/svg" viewBox="0 0 195.08 82.3"><defs><style>.cls-1{fill:#701813;}.cls-2{fill:#ffe888;}.cls-3{fill:#2d2d2d;}.cls-4{fill:#c7b299;}</style></defs><title>Shape 10</title><g id="Layer_2" data-name="Layer 2"><g id="Layer_1-2" data-name="Layer 1"><g id="Shape_10" data-name="Shape 10"><path class="cls-1" d="M27.15,77.44s2.23-10.27.93-13.35-9-12.91-9-12.91c-.22.54,9-10.37,5.81-27.91-.82-4.53-2.52-6.9-5.62-7.81-1.18-.35-1.38-8.83-.84-12.82.4-3-2.25-2.1-3.61-2.07C9,.68,12.29,11.1,12,13.69c-.25,2.14-6.08,2.51-6.2,2.49.23.48-2.44,1.08-3.46,4.54-1.1,3.76-.57,10.58-.63,16.45-.05,4.35.59,7.59,4.81,15,.8,1.42-.53,3.05-.72,3.34a33.43,33.43,0,0,0-3,6.65S-1.2,74,1.62,76.06A23,23,0,0,0,27.15,77.44Z"/><path class="cls-2" d="M4.32,17.52S20.89,31.52,24.49,33s-5.41,18.19-5.41,18.19l7.55,10.35,1.08,4.62-1,.49A57,57,0,0,1,4.41,62.82c-.38-.15-2.13-.22-1.76-1.55S5.6,57,5.79,55.53a6.44,6.44,0,0,0-.68-4.35s2.15-1.36,1.13-1.62C2.57,48.63-1,36,2.09,22.84,2.63,20.53,3.38,20,4.32,17.52Z"/><path class="cls-3" d="M125.68,58.59c-.67-.13-1.51-.45-1.5-1.14,21.6,1.78,42.9,8.52,64.51,6.88,2-.15,4.58-1.13,4.27-3.09-.19-1.26-1.54-1.93-2.73-2.39a151.38,151.38,0,0,0-51-10.14c-3.27-.08-6.75-.11-9.46-1.94,3.24-.42,4.7-4.43,4.34-7.68C133.17,30.81,125.5,25,118,21.35c-12.18-6-26.18-9.1-39.42-6.19a84.6,84.6,0,0,0-9.7,2.94c-11.34,4-23.05,8.82-30.62,18.17-1.62,2-1.17,4.91-.63,7.43l5.73,27.07a5.93,5.93,0,0,0,.8,2.26,5.74,5.74,0,0,0,2.65,1.77c12.7,5.24,26.82,5.54,40.56,5.76,11.93.2,24,.38,35.63-2.22,3.5-.78,8.19-1.78,8.84-6.47l-1.76-12.4Z"/><path class="cls-4" d="M46.67,32c-4.25,2.44-6,8.09-4.75,12.83s5,8.52,9.39,10.76,9.28,3.15,14.15,3.71a118.49,118.49,0,0,0,23.29.39c10.42-.85,21-3.17,29.8-8.75,4-2.53,7.85-6.15,8.35-10.84.53-5-2.92-9.59-6.82-12.78C110,19,96,16.46,83.08,18.17S58,25.46,46.67,32Z"/><path d="M.06,71.66C.29,70,1.16,68.48,1,66.84c-.4-3.51,1.77-6.71,3.17-10s1.71-7.74-1.28-9.63c-1.51-1-1.72-3.06-1.78-4.85L.74,31.08C.62,27.3.54,23.37,2,19.9s5.09-6.34,8.83-5.75V4.37a5.16,5.16,0,0,1,.52-2.78c.92-1.5,3-1.67,4.77-1.56s4,1.25,3.31,2.81a12,12,0,0,0,3.83,14.37,5.93,5.93,0,0,1,2,3.66c.91,3.95.56,8.07.17,12.11-.46,4.85-1,9.86-3.43,14.09a9.1,9.1,0,0,0-1.59,3.68c-.17,2.3,1.76,4.11,3.29,5.84a22.06,22.06,0,0,1,5.13,18.13,6.6,6.6,0,0,1-1,2.79,6.89,6.89,0,0,1-3.11,2.08,28.48,28.48,0,0,1-14.12,1.8,15,15,0,0,1-7.45-2.75,7.86,7.86,0,0,1-3.17-7M8.66,47a2.88,2.88,0,0,1-2.15,5.17c.83,1.69.22,3.75-.73,5.38s-2.23,3.1-2.86,4.88c-1,3-.11,6.33-1.19,9.27s2.05,5.71,5,6.81a23.12,23.12,0,0,0,18-.79,5.35,5.35,0,0,0,2.11-1.54,5.26,5.26,0,0,0,.78-2.73,23.5,23.5,0,0,0-3.2-13.78,1.8,1.8,0,1,0,.5,3.43,2.58,2.58,0,1,1-1.07-4,18.25,18.25,0,0,1-4.18-4.85,6.18,6.18,0,0,1,0-6.13,23.89,23.89,0,0,0,4-13.26,3.24,3.24,0,0,0-.19-1.28,3.66,3.66,0,0,0-1.83-1.51A57,57,0,0,1,6.08,20.54c-.74-.79-1.5-2-.83-2.86A119.41,119.41,0,0,0,20,29.33c1.1.73,2.72,1.39,3.57.38a2.69,2.69,0,0,0,.49-1.5c.46-3.9.39-8.83-3.14-10.54-2.88-1.39-3.38-5.2-3.51-8.39L17.2,3.77,12,3.3l.32,7.8c.08,2.14-.68,5.13-2.81,4.87-2.55-.32-5,1.61-6,4s-1.12,5-1.14,7.59L2.22,38.92c0,2.94.27,6.44,2.84,7.86.91.5.85,1.8,1.18,2.78s2.1,1.5,2.17.46c-.63-1.28-1.27-2.79-.68-4.09s3-1.39,3.13,0L8.66,47M16.82,1.27A8.15,8.15,0,0,0,13,1.79a9.9,9.9,0,0,0,4.74.42C18,1.79,17.34,1.33,16.82,1.27Z"/><path d="M40.64,36.88c1.54-3.77,5.27-6.11,8.83-8.07,11.37-6.27,23.67-11.34,36.61-12.43s26.64,2.2,36.26,10.92c3,2.74,5.71,6.2,6.17,10.26A13.77,13.77,0,0,1,125,47.81a27.59,27.59,0,0,1-8.93,6.54c-13.67,6.84-29.53,7.75-44.79,6.93-6.34-.34-12.78-1-18.58-3.56S41.8,50.36,40.3,44.2a12,12,0,0,1,.34-7.32M46.78,32c-4.25,2.44-6,8.09-4.75,12.83s5,8.52,9.39,10.77,9.28,3.14,14.15,3.7a118.49,118.49,0,0,0,23.29.39c10.42-.85,21-3.17,29.8-8.75,4-2.52,7.85-6.15,8.35-10.84.53-5-2.92-9.59-6.82-12.78-10.1-8.28-24-10.82-37-9.11S58.11,25.45,46.78,32Z"/><path d="M132.67,64.44l-.15,7.91c0,1.6-.12,3.35-1.19,4.54a6.17,6.17,0,0,1-2.4,1.46c-10.18,4.08-21.47,4.05-32.43,3.91q-7.86-.11-15.74-.25c-11.15-.21-22.63-.55-32.87-5-2.09-.91-4.23-2.08-5.33-4.08a11.81,11.81,0,0,1-1.07-3.3L35.9,43.88c-1.29-6,2.94-11.72,7.72-15.48C50.27,23.17,58.28,20.05,66.16,17a75.91,75.91,0,0,1,12.51-4c9.77-1.92,19.88.09,29.42,2.92,6.81,2,13.66,4.56,19.09,9.15s9.23,11.63,8.33,18.68c-.17,1.29,0,3.19,1.29,3.18a137.39,137.39,0,0,1,53.37,10.32c2.43,1,5.29,2.82,4.87,5.42s-3.9,3.48-6.63,3.55c-21.1.56-42-3.54-62.71-7.62-.67-.13-1.51-.45-1.49-1.14,21.59,1.78,42.89,8.52,64.5,6.88,2-.15,4.59-1.13,4.27-3.09-.19-1.25-1.54-1.93-2.73-2.39a151.38,151.38,0,0,0-51-10.14c-3.27-.08-6.75-.11-9.46-1.94,3.24-.42,4.7-4.43,4.34-7.68C133.19,30.82,125.53,25,118,21.36c-12.18-6-26.18-9.1-39.42-6.19a84.6,84.6,0,0,0-9.7,2.94c-11.34,4-23.05,8.82-30.62,18.17-1.62,2-1.17,4.91-.63,7.43L43.4,70.78A5.79,5.79,0,0,0,44.21,73a5.66,5.66,0,0,0,2.64,1.77c12.7,5.24,26.82,5.54,40.56,5.76,11.93.2,24,.38,35.63-2.22,3.5-.78,7.55-2.43,8.21-6,.32-1.74-1.17-4-2.79-3.3a12.31,12.31,0,0,0,1.73-8.49C131.91,60.18,132.7,62.66,132.67,64.44Z"/><path d="M119.89,65.93l-1.36,0a1.56,1.56,0,0,1,2.4-.66l-1,.7Z"/><path d="M183.48,59.22a2,2,0,0,1,.89-.67c1-.33,1.95.38,2.73,1.06a2.38,2.38,0,0,1,0,3.44,2.59,2.59,0,0,1-3.5-.25,2.86,2.86,0,0,1-.08-3.58m.68,2.34a1.79,1.79,0,0,0,3-.75l-2-1.06a1.57,1.57,0,0,0-.76,1.67Z"/><path d="M26.74,66.64A12.12,12.12,0,0,1,19.07,68a36.3,36.3,0,0,1-7.64-2.07l-5.11-1.8a3,3,0,0,1-1.91-1.32c-.33-.73.37-1.82,1.09-1.49,5.48,2.47,11.28,5,17.27,4.44C24.19,65.64,25.93,65.46,26.74,66.64Z"/><path d="M8.16,33.73a1.3,1.3,0,0,0-.34-1.54c-.4-.41-.92-.67-1.32-1.07a2.34,2.34,0,0,1,.55-3.63c1.32-.56,3,1,2.39,2.31a1.12,1.12,0,0,0-1.8-.59A1.11,1.11,0,0,0,8.23,31a2.08,2.08,0,0,1,1.45,2.71A2.61,2.61,0,0,1,6.8,35.19,3.54,3.54,0,0,1,4.29,33Z"/><path d="M16.91,38.05c-1.17-.52-.92-2.24-.48-3.45a1,1,0,0,1,.37-.55c.48-.27,1,.44.9,1s-.43,1.05-.38,1.6.92,1,1.11.43a2.42,2.42,0,0,1,.89-1.34c.48-.27,1.26,0,1.25.54a23.06,23.06,0,0,0-1.42,3.35A3.71,3.71,0,0,1,16.58,42c-1.21.18-2.53-1.11-2-2.2,0-.47.73-.06,1.08.25a1.25,1.25,0,0,0,1.78-.27A1.23,1.23,0,0,0,16.91,38.05Z"/><path d="M14.29,53.78a22.25,22.25,0,0,0-.57,2.31,3,3,0,0,1-3.49-1.61,2.49,2.49,0,0,1,1.69-3.27,2.14,2.14,0,0,1,2.37,2.57m-1.69-1a.84.84,0,1,0-.28,1.43c.5-.18.64-1,.16-1.22Z"/><path d="M19.43,60.23c-1.19-.5-2.57-.63-3.6-1.42s-1.3-2.71-.11-3.21a.69.69,0,0,1,.85.17c.3.48-.43,1.06-.28,1.61s1.15.41,1.63,0,1.12-1,1.69-.7.43,1,.3,1.56Z"/><path d="M10.7,34.55A2.18,2.18,0,0,1,13.08,33a2.1,2.1,0,1,1-.82,4.11,2.18,2.18,0,0,1-1.56-2.57m2.32.92a.89.89,0,0,0,.45-1,1.1,1.1,0,0,0-1.65.14c-.28.57.67,1.28,1,.74Z"/><path d="M79.33,28.82c.27.41-.17,1-.65,1.05a5.59,5.59,0,0,1-1.46-.13c-1.31-.1-2.45.83-3.55,1.56S71,32.56,70,31.74a2.83,2.83,0,0,0-2.71-.27A8.4,8.4,0,0,0,64.91,33c-.38.32-1-.22-.93-.72a1.93,1.93,0,0,1,.93-1.16,9.87,9.87,0,0,1,2.78-1.59,3.37,3.37,0,0,1,3.06.39c.75.58,1.82,0,2.62-.47C75.18,28.32,77.7,27.42,79.33,28.82Z"/><path d="M99.08,25.57c-.75.5-1.26,1.55-2.16,1.49a4.65,4.65,0,0,1-1.23-.49c-1.38-.5-2.68.77-3.69,1.83-.37.39-.94.78-1.37.48s-.15-1.17.25-1.66c1.17-1.43,2.8-3,4.57-2.5,1.4.41,2.83-.41,4.19-.92s3.26-.56,3.9.76C102.33,25.52,100.37,24.71,99.08,25.57Z"/><path d="M87.45,43.33c-.27-.14-.5-.36-.78-.5a2.27,2.27,0,0,0-2.44.62c-.66.61-1.14,1.39-1.84,1.95-.34.27-.85.48-1.19.2s-.09-1.11.31-1.54a17.7,17.7,0,0,1,3.13-2.66c.78-.52,1.89-.94,2.56-.3a2.42,2.42,0,0,0,2.57.1,4.82,4.82,0,0,1,2.59-.68c.9.15,1.57,1.42.86,2-.67-.79-2-.41-2.86.12S88.39,43.79,87.45,43.33Z"/><path d="M115,34.08a2.52,2.52,0,0,1,3.81.37l-3.2,1a2.7,2.7,0,0,1-1.4.19c-.88-.19-1.5-1.23-2.4-1.14-.67.06-1.1.71-1.66,1.08s-1.62.13-1.46-.52A6.82,6.82,0,0,1,110.85,33a2.37,2.37,0,0,1,2.81.37C114,33.8,114.58,34.5,115,34.08Z"/><path d="M48.5,42.53c-.54,0-1.08-.33-1.59-.18s-.77.8-1.12,1.26-1.25.61-1.36,0a2.11,2.11,0,0,1,1-2.06,6.31,6.31,0,0,1,2.24-.83L50.73,40c1.92-.44,4.05-.86,5.75.14a1.33,1.33,0,0,1,.73.88c0,.39-.34.83-.71.68a8.3,8.3,0,0,0-7.13.42A2.32,2.32,0,0,1,48.5,42.53Z"/><path d="M108.91,45.48c-.66-.45-1.56,0-2.17.46s-1.24,1.14-2,1.15a8.38,8.38,0,0,0-1.32-.1c-.54.11-.89.62-1.34.95s-1.22.4-1.42-.12a3.42,3.42,0,0,1,3.54-2.38,3.07,3.07,0,0,0,2-.81,2.89,2.89,0,0,1,2-.76C108.91,44,109.46,45,108.91,45.48Z"/><path d="M57.75,34.1a4.83,4.83,0,0,0-3.13-.61,10.47,10.47,0,0,1-2.9.44,3.06,3.06,0,0,1,6,.17Z"/><path d="M61.54,46.57a9.29,9.29,0,0,1,2.84-2.5,3.16,3.16,0,0,1,3.55.38.85.85,0,0,1,.29.65c0,.47-.67.62-1.12.49a6.33,6.33,0,0,0-1.3-.47c-.74,0-1.33.6-1.71,1.24a4.08,4.08,0,0,1-1.35,1.73c-.65.35-1.71-.06-1.61-.79A1.57,1.57,0,0,1,61.54,46.57Z"/></g></g></g></svg>