<svg xmlns="http://www.w3.org/2000/svg" viewBox="0 0 154.07 124.04"><defs><style>.cls-1{fill:#29abe2;}.cls-2{fill:#f7931e;}.cls-3{fill:#8cc63f;}.cls-4{fill:#fbb03b;}.cls-5{fill:#ff0;}.cls-6{fill:#ed1c24;}.cls-7{fill:#f281b7;}.cls-8{fill:red;}.cls-9{fill:#ffeda1;}.cls-10{fill:#c65d5d;}.cls-11{fill:#ead9c5;}.cls-12{fill:#d9e021;}.cls-13{fill:#f15a24;}.cls-14{fill:#9e005d;}.cls-15{fill:#662d91;}</style></defs><title>Full Stack</title><g id="Layer_2" data-name="Layer 2"><g id="Layer_1-2" data-name="Layer 1"><g id="Full_Stack" data-name="Full Stack"><path class="cls-1" d="M92.18,36.85l-2.56-.39c-4.18,3.53-4.71,3.62-8.77,6.73-2.27,1.74-4.67,4-7.46,3.4a165.13,165.13,0,0,0-34.53-4Q52.14,49.36,66,54.84c2,.8,4.46,1.55,6.31.38A162.41,162.41,0,0,1,96.12,42.75c1.3-.55.45-2.62-.79-3.31s-2.92-1.2-3.15-2.59"/><path class="cls-2" d="M39.45,45.43c-.65.66.34,1.65,1.19,2a26.22,26.22,0,0,0,9.62,1.87,82.5,82.5,0,0,1-10.37-5.11"/><path class="cls-3" d="M45.14,50.47a7.26,7.26,0,0,1,3.68,3.64,7.73,7.73,0,0,0,1.3,2.5c1.8,1.76,4.79,0,7.28.38a85.22,85.22,0,0,0,33.08-2l-7.76-4.46c-2.82.87-5.08,2.92-7.58,4.49s-5.66,2.7-8.35,1.5c-8.57-3.82-13.65-5.77-23-7"/><path class="cls-4" d="M87.2,57.21c-9.94,1.54-16.58,2.48-25.1,1.53a28.69,28.69,0,0,0-6.2-.39,20.93,20.93,0,0,1-4.58.45c-1.52-.18-3.11-1.35-3-2.89A2.1,2.1,0,0,0,46.22,54a6,6,0,0,0-3,.86l-4.66,2.27c9.77,7.68,23.11,8.67,35.52,9.3,4.54.24,6.5-6.9,10.8-7.52"/><path class="cls-5" d="M153,34.17A248.76,248.76,0,0,1,120.84,26c-1-.31-2.5-.27-2.51.75a34.34,34.34,0,0,1-7.64,21.13,87.87,87.87,0,0,1,22.47,8.6c2.19,1.21,4.71-.84,6.31-2.77a190.61,190.61,0,0,0,12.44-17.61"/><path class="cls-6" d="M127.86,91.69a3.28,3.28,0,0,0-1.62,1c4.41,6.08,4.62,17.29-.69,24-1.19,1.51-2.6,2.86-3.66,4.47a65,65,0,0,1,18.63,2l1.28-.82c1.75-.92,2.52-3,3.06-4.88A60.41,60.41,0,0,0,146,89.89c-.18-.93-.87-2.12-1.72-1.72a51.46,51.46,0,0,1-14.39,4.39"/><path class="cls-7" d="M31.68,15.79,28,34.23l14.09.22,0-6-1.52-9.09A24.1,24.1,0,0,0,36.63,7a13.1,13.1,0,0,0-3.76-3.94C30,1.3,26.47,1.22,23.16,1.67A21,21,0,0,0,12.4,5.91c-3.78,3.14-5.78,8-6.5,12.85s-.33,9.8-.09,14.7c.06,1.18-3.38,2.56-.06,2.7,3.14-1.17,20.49,1.28,10.31-2.1-1-.34-3.94-8.57-3.16-12.14.37-1.69.85-2.19.38-3.28a.74.74,0,0,1-.09-.63c.22-.57.53-.32.89-.35l8.53,1.14,7.32-2.46"/><path class="cls-1" d="M38.79,104.12c-.58.56.9.91.46.23a20.39,20.39,0,0,1,11-2.74c2,.09,4.1-.22,4-2.5-.07-1.23-.5-2.08-.53-3.31a31.21,31.21,0,0,1,1.17-9.12A13.47,13.47,0,0,0,55.6,83c0-2.69-1.94-5-4.15-6.55s-4.51-3-6.69-4.58c-.11-.72-1-1.23-1.68-2.66L19.8,66.34,17.22,94.48l-8.4,10.24,1.71,2.59s10.15,5.08,11.85,2.84c5.24-7,5.61-9,5.89-11.72a6,6,0,0,1,.11-.74L30.18,90l.51-10.13,8.9,11.06L40,96.87Z"/><path class="cls-8" d="M19.07,35.77c-1.64.17-.81,1.63-1.88,2-10.86,3.4-11.72,15-11.38,16a3.62,3.62,0,0,0,2,3,13.59,13.59,0,0,0,3.61,1.15,34,34,0,0,1,9.7,3.95,1.68,1.68,0,0,0,2.28-.49,4.49,4.49,0,0,0,.48-2.27c0-.28-.06-.65-.34-.69-1.12-.12-15.74-7.51-8.38-12a3.91,3.91,0,0,1,5,.83C21.76,49,23.77,50.85,23,54.3c-1.3,5.84-3.64,12-3.2,12,.78,0,23.68,4.34,23.28,2.86-1.25-4.78.27-7.28.27-7.28s-6.54-4.67-6.32-4.6c1,.36,4.54-2.13,4.54-3.07a10.92,10.92,0,0,1-.4-2.36c-.2-1.81,4.26-2.35,4.26-2.35l-5.93-2.4c-.46-.24-.31-1.24-.06-1.7l.45-1.25-6-4.68,5.44-4.39-8-1.41A3.75,3.75,0,0,1,30,33.22L29,32.58Z"/><path class="cls-9" d="M28.6,58.17a5.25,5.25,0,0,1-1.39.21c-1.76.32-2.29,2.87-1.26,4.34s2.94,2,4.73,2.19a6.35,6.35,0,0,0,4.63-.9c1.26-1,1.62-3.21.32-4.17a8.1,8.1,0,0,0-3.85-1.79C29.54,57.57,28.6,58.17,28.6,58.17Z"/><path class="cls-9" d="M12.9,21.91a55.14,55.14,0,0,0,1.75,6.56c.85,2.56,2.27,5.38,4.91,5.93A8.44,8.44,0,0,0,23.34,34c1.67-.44,3.52-.22,5.13-1.09A10.54,10.54,0,0,0,30.88,31c1.79-2,2.66-5.8,2.59-8.6A34.44,34.44,0,0,0,32.24,16l-9,3-9.91-.35Z"/><path class="cls-10" d="M24.41,28.56a.94.94,0,0,0,.05.58c.25.37.89.28,1.24,0a9.06,9.06,0,0,1,1-.87.93.93,0,0,0,0-1.49,1.32,1.32,0,0,0-1.62.16A2.31,2.31,0,0,0,24.41,28.56Z"/><path class="cls-11" d="M43.54,80.59c-.42-1.23,0,0-1-.94A8.17,8.17,0,0,0,40,78.23L19.6,70.06a2.27,2.27,0,0,0-1.24-.24,2.29,2.29,0,0,0-1.07.67,29.91,29.91,0,0,1-14.4,7.09c-1,.18-.87,1.86-.51,2.8A14.66,14.66,0,0,1,1.76,92a86.66,86.66,0,0,0,40.76-11"/><path class="cls-12" d="M42.13,22.63a160.68,160.68,0,0,0,31.24-.84,12.21,12.21,0,0,0,4.22-1.07,12.79,12.79,0,0,0,3.56-3.21L88.47,9,53.74,10.18a3.34,3.34,0,0,0-1.6.33,3.17,3.17,0,0,0-.78.77L42.13,22.63"/><path class="cls-13" d="M84.37,16.22a3,3,0,0,0-1.08.73l-4.06,4.79a2.44,2.44,0,0,1-1.47.64,140.63,140.63,0,0,1-31.34,1.93,14,14,0,0,0,9.1,3.33,41.86,41.86,0,0,0,9.81-1.24c9.28-1.93,19.45-3.86,28.73-5.78-2.86-1.33-6.53-2.69-9.39-4-.2-.1-.08-.42-.3-.39"/><path class="cls-14" d="M84.72,23.66C77.4,25.12,69.54,26.58,62.22,28c-4.31.86-9.18,1.85-12.67-.81A4.3,4.3,0,0,0,44.43,27a14.92,14.92,0,0,0-4.19,3.2c11.94-1.59,24.14,1.4,36.08-.24a3.55,3.55,0,0,0,1.93-.68C80.22,27.5,82.75,25.42,84.72,23.66Z"/><path class="cls-2" d="M79.56,30.31a2.78,2.78,0,0,1-2.17.94A114.18,114.18,0,0,1,60,31.43c-5.76-.37-11.63-1.18-17.25.14,7.14,4.76,15.85,6.38,24.29,7.91,2.69.48,5.6,1,8.08-.22l18.46-8.65c.3-.14.65-.35.65-.68a.76.76,0,0,0-.52-.76l-9-3.22s-1.46-1-2.86,1.23C81.35,28,79.56,30.31,79.56,30.31Z"/><path class="cls-15" d="M94.14,31.61c-6,2.94-12.22,5.7-18.25,8.64-2.48,1.2-5.52.66-8.24.21-8.06-1.32-16.23-2.59-23.16-6.92-.87-.71-1.71.42-2.38,1l-6.72,5.31c4.51,2,9.65,1.83,14.6,2a93.31,93.31,0,0,1,21.15,3.1c4,1.08,8.21-1.24,11.38-4s6-6,9.93-7.53"/><path d="M28.27,98.17c-.51.08-.61-.71-.48-1.22l2.12-8.11a203.14,203.14,0,0,1-27.7,4.93c-1.06.12-2.66-.54-2.09-1.45A13,13,0,0,0,.71,79.89a2.39,2.39,0,0,1,1-2.84,8.85,8.85,0,0,1,3.13-1,22.85,22.85,0,0,0,11.88-6.72c.54-.57,1.26-1.23,2-.94l20.76,8.2a10.73,10.73,0,0,1,4.08,2.35,3.72,3.72,0,0,1,.74,4.35,8.18,8.18,0,0,0-1.84-3.42,7.85,7.85,0,0,0-2.57-1.41L19.53,70.27A2.36,2.36,0,0,0,18.29,70a2.43,2.43,0,0,0-1.07.67,29.82,29.82,0,0,1-14.4,7.09c-1,.19-.8,1.65-.44,2.59A14.66,14.66,0,0,1,1.76,92a86.66,86.66,0,0,0,40.76-11c.74.41-.08,1.49-.84,1.86L30.51,88.32A17.74,17.74,0,0,1,28.27,98.17Z"/><path d="M17.89,61.73,8,58A5.8,5.8,0,0,1,4.8,55.84a4.94,4.94,0,0,1-.37-3A19.44,19.44,0,0,1,18.06,36.71c0,1.18-1.4,1.79-2.5,2.27A15.2,15.2,0,0,0,6.88,49.7a4.07,4.07,0,0,0,0,2c.38,1.31,1.77,2,3,2.57l6.59,2.93c-.45.91-1.81.62-2.73.19l-8-3.75a3.67,3.67,0,0,0,2,3,13.64,13.64,0,0,0,3.62,1.14,34.37,34.37,0,0,1,10,4.13,1.56,1.56,0,0,0,2-.67A4.45,4.45,0,0,0,23.82,59c0-.28,0-.54-.27-.58A16,16,0,0,1,14,53.68a4.61,4.61,0,0,1,3.87-7.8C17.22,47.71,14.29,48.1,14,50c-.2,1.25.84,2.32,1.86,3.06A21,21,0,0,0,28.89,57c.38.27.13.93-.3,1.12a5.37,5.37,0,0,1-1.39.21c-1.76.32-2.3,2.87-1.26,4.34s2.94,2,4.72,2.19a6.33,6.33,0,0,0,4.63-.9c1.27-1,1.63-3.21.33-4.17,1.57-.12,2.66,1.87,2.15,3.36A4.84,4.84,0,0,1,34.21,66a9.7,9.7,0,0,1-8-1.49,7.84,7.84,0,0,0-1.82-1.17,7.5,7.5,0,0,0-1.77-.27A19.4,19.4,0,0,1,17.89,61.73Z"/><path d="M152.21,37.16a104.18,104.18,0,0,1-13.67,19.05c-1.23,1.36-3.07,2.81-4.7,2a120.17,120.17,0,0,0-25.08-9.48,35.55,35.55,0,0,0,8.74-23.07,1.59,1.59,0,0,1,1.55-1.4,4.82,4.82,0,0,1,2.21.55c9.38,3.92,19.47,5.72,29.43,7.78,1.31.28,2.8.69,3.38,1.89a265.76,265.76,0,0,1-33.23-8.38c-1-.32-2.5-.28-2.51.75a34.29,34.29,0,0,1-7.64,21.12,88.27,88.27,0,0,1,22.47,8.61c2.19,1.2,4.71-.84,6.31-2.77a192,192,0,0,0,12.44-17.61C152.32,35.93,152.45,36.75,152.21,37.16Z"/><path d="M39.28,109.46c.28-1.78,2.41-3.08,2.11-4.86a1.43,1.43,0,0,1-2.1-.25,20.81,20.81,0,0,1,11.44-2.72,3,3,0,0,0,2.7-2.16,10.5,10.5,0,0,0,.28-3.67,31.21,31.21,0,0,1,1.17-9.12A13.85,13.85,0,0,0,55.64,83c0-2.69-1.94-5-4.15-6.55s-4.76-2.54-6.94-4.11c-.1-.72,1.05-.74,1.7-.43,2.82,1.34,5.7,2.73,7.88,5s3.56,5.53,2.67,8.52a42.86,42.86,0,0,0-1.73,11.53,10,10,0,0,1-.52,4,3,3,0,0,1-3.22,1.9c-1.73-.46-3.24,1.67-2.95,3.45s1.65,3.13,2.88,4.45,2.44,2.89,2.32,4.68c-.18,2.92-4,4.43-6.73,3.44s-4.6-3.52-6.28-5.92a5.06,5.06,0,0,1-1.29-3.46m7.15-6.36a3.62,3.62,0,0,0-2.94,1.6c-.72.92-1.17,2-1.82,3a6,6,0,0,0-.72,1.21c-.65,1.7.79,3.43,2.11,4.69l2.67,2.54a5.83,5.83,0,0,0,2.78,1.78,3.06,3.06,0,0,0,3.38-3.46c-.37-1.79-2.25-2.78-3.46-4.15a6.52,6.52,0,0,1-1.4-5.84c.11-.4.22-.91-.09-1.18A.85.85,0,0,0,46.43,103.1Z"/><path d="M17.22,94.48a20,20,0,0,1-7.16,9.27,1.26,1.26,0,0,0-.13,1.73,3.59,3.59,0,0,0,1.6,1q4.35,1.83,8.85,3.27a2,2,0,0,0,1.09.14,2.07,2.07,0,0,0,1-.8,46.33,46.33,0,0,0,5.61-8.77c.68-.13.73,1,.43,1.61a41.65,41.65,0,0,1-5.36,8.39,2.69,2.69,0,0,1-1.36,1c-.55.13-1.39.11-1.41.68-.1,2.79,1.84,5.62.82,8.22s-4.93,3.28-7.45,1.83S9.84,118,8.67,115.3c-.81-1.88-1.55-4.12-.51-5.88a11.66,11.66,0,0,0,1-1.47,1.28,1.28,0,0,0-.33-1.59A1.84,1.84,0,0,1,8.33,104a6.47,6.47,0,0,1,1.84-1.92,20.55,20.55,0,0,0,6.55-9.75c.84.17.8,1.38.5,2.17M18,110.19a16,16,0,0,1-5-1.72,2.79,2.79,0,0,0-1.16-.44,1.76,1.76,0,0,0-1.6,1.06,4.1,4.1,0,0,0-.27,2,12.82,12.82,0,0,0,5,9.35,3.32,3.32,0,0,0,2.45.87,2.6,2.6,0,0,0,1.9-1.86,7.68,7.68,0,0,0,.16-2.79l-.27-4.23C19.14,111.51,18.88,110.34,18,110.19Z"/><path d="M40.57,19.39a23.77,23.77,0,0,0-3.89-12.3,13,13,0,0,0-3.76-3.94c-2.82-1.79-6.4-1.86-9.71-1.41A21.07,21.07,0,0,0,12.45,6C8.68,9.12,6.68,14,6,18.83s-.32,9.8-.08,14.7c.06,1.18-.59,2.88-1.67,2.41l-.12-5.81c-.1-4.66-.2-9.39.85-13.94s3.37-9,7.21-11.62a27.24,27.24,0,0,1,8.69-3.44c2.87-.75,5.86-1.47,8.78-1A13.69,13.69,0,0,1,38.5,6.62,27.73,27.73,0,0,1,42,17.29a2.75,2.75,0,0,1-.09,1.61A1,1,0,0,1,40.57,19.39Z"/><path d="M41.24,33.62a1.33,1.33,0,0,0,.86-.74c.33-1-1.16-1.5-2.19-1.36s-2.48.09-2.6-.94a53.25,53.25,0,0,0,5.46-3.86c.75-.6,1.53-1.64.95-2.39s-2.67-.44-2.69-1.55a1.29,1.29,0,0,1,.39-.82L51.63,8.86,88.76,7.54c.6,0,1.39.12,1.46.71a1.23,1.23,0,0,1-.36.83l-5,6.26,8.69,4.07c.92.43,2,1.07,2,2.08a20.12,20.12,0,0,0-16,8.82,2.76,2.76,0,0,1-2.17.89A115.64,115.64,0,0,1,60,31.39c-5.76-.38-11.63-1.19-17.25.13,7.14,4.76,15.85,6.39,24.29,7.91,2.7.48,5.6,1,8.08-.21l18.46-8.65c.31-.15.66-.36.65-.69s-.4-.57-.74-.69l-9-3.22a17.62,17.62,0,0,1,9.37,1.93c.93.48,2,1.34,1.7,2.35-.18.72-.92,1.13-1.58,1.45L75.87,40.52c-2.48,1.2-5.4.79-8.13.34-8-1.31-16.35-2.72-23.28-7-.73-.45-1.65.1-2.33.64l-6.72,5.31c4.51,2,9.65,1.83,14.6,2a93.31,93.31,0,0,1,21.15,3.1c4,1.08,8.21-1.24,11.38-4s6-6,9.94-7.53c-3.23,4-7.33,7.11-11.39,10.22-2.28,1.74-5,3.58-7.77,3a164.36,164.36,0,0,0-34.52-4Q52.06,49.3,65.93,54.77c2,.8,4.46,1.56,6.31.38A163.43,163.43,0,0,1,96.05,42.68c1.31-.55.45-2.62-.79-3.3s-2.91-1.2-3.15-2.6c1.9.43,3.92.93,5.18,2.41s1.11,4.24-.72,4.89a59.84,59.84,0,0,0-12,5.9l7.36,4.62c.59.37,1.23,1.17.71,1.62C82.56,58.09,72.31,60,62.15,58.78A28,28,0,0,0,56,58.39a21,21,0,0,1-4.58.45c-1.53-.19-3.12-1.35-3-2.89A2.09,2.09,0,0,0,46.28,54a6,6,0,0,0-3,.86l-4.65,2.26c9.77,7.68,23.05,8.64,35.46,9.27,4.54.24,6.33-7,10.86-7.49l-7.19,8.35a2.91,2.91,0,0,1-2.35.65c-6.64-.17-13.31-.41-19.81-1.74s-12.88-3.83-18-8.07a1.51,1.51,0,0,1-.6-.79c-.15-.68.59-1.18,1.22-1.48l7.51-3.59a1.44,1.44,0,0,1-.63-1.78,7.27,7.27,0,0,1,3.68,3.65,7.78,7.78,0,0,0,1.3,2.49c1.8,1.76,4.79,0,7.28.39a85,85,0,0,0,33.08-2l-7.76-4.46c-2.82.87-5.08,2.92-7.58,4.5s-5.66,2.69-8.35,1.49a99,99,0,0,0-27-7.64c-1.44-.19-3.15-.53-3.74-1.86a4.62,4.62,0,0,1,3.39-1.59c-.64.66.34,1.65,1.2,2a26,26,0,0,0,9.62,1.87,77.5,77.5,0,0,1-15.62-8.5c-.44-.31-.94-.77-.79-1.29a1.33,1.33,0,0,1,.53-.62l4.91-3.77a25,25,0,0,1-7.12-1.26c2.29-2.14,6.14.85,9.07-.24m1-11a159.9,159.9,0,0,0,31.24-.84,12.43,12.43,0,0,0,4.22-1.06,12.94,12.94,0,0,0,3.56-3.21L88.58,9,53.85,10.15a3.22,3.22,0,0,0-1.6.33,3.31,3.31,0,0,0-.78.76L42.24,22.59M84,16.45a1.16,1.16,0,0,0-.65.47l-4.07,4.8a2.44,2.44,0,0,1-1.47.63,140.54,140.54,0,0,1-31.33,1.93,14,14,0,0,0,9.1,3.33,41.71,41.71,0,0,0,9.8-1.24l27.84-5.78-8.58-4a1.13,1.13,0,0,0-.64-.16m.2,7.48-22,4.36C58,29.15,53,29.88,49.55,27.22a5.05,5.05,0,0,0-5-.29,14.92,14.92,0,0,0-4.19,3.2c11.94-1.59,24.14,1.4,36.08-.24a3.52,3.52,0,0,0,1.93-.68Z"/><path d="M146.56,87.46a63.71,63.71,0,0,1-1.16,32.09,5.62,5.62,0,0,1-1.19,2.39,2,2,0,0,1-2.45.45c1.74-.92,2.51-3,3.05-4.88A60.41,60.41,0,0,0,146,89.89c-.18-.93-.87-2.12-1.72-1.72a51.46,51.46,0,0,1-14.39,4.39c-.9.14-2.26-.27-1.94-1.12a56.79,56.79,0,0,0,17.31-5.25C145.86,85.88,146.4,86.77,146.56,87.46Z"/><path d="M125.55,116.71c-1.19,1.51-2.6,2.86-3.66,4.47a65,65,0,0,1,18.63,2c-.63,1.06-2.17.89-3.37.63a62.17,62.17,0,0,0-15.39-1.42,1.09,1.09,0,0,1-1-1.12,2.5,2.5,0,0,1,.64-1.49c1-1.31,2.4-2.29,3.53-3.51,2.81-3,3.88-7.36,3.76-11.5s-1.3-8.16-2.47-12.13A20.77,20.77,0,0,1,125.55,116.71Z"/><path d="M12.9,21.92a54.79,54.79,0,0,0,1.75,6.57c.85,2.56,2.27,5.38,4.91,5.93A8.44,8.44,0,0,0,23.34,34,10.09,10.09,0,0,0,28,31.89c.39-.37,1.09.15,1,.69a1.84,1.84,0,0,1-1,1.23,12.93,12.93,0,0,1-7.31,2.13,7.47,7.47,0,0,1-5.1-1.8,9,9,0,0,1-1.94-3.23,28.67,28.67,0,0,1-1.87-8,1.39,1.39,0,0,1,.19-1C12.28,21.55,12.83,21.57,12.9,21.92Z"/><path d="M14.53,19.17a1.76,1.76,0,0,1-1.25-.53c-.28-.38,0-1.08.41-1a40.66,40.66,0,0,0,18-1.83c.48-.16.88.54.66,1a1.94,1.94,0,0,1-1.22.82A37.19,37.19,0,0,1,14.53,19.17Z"/><path d="M38.78,92.74a2.59,2.59,0,0,1-.09-1.2.77.77,0,0,1,.9-.6,13.54,13.54,0,0,1,1,5,27,27,0,0,1-1.76,8.19,12.11,12.11,0,0,1-1.39,3.19,3.26,3.26,0,0,1,0-2.56,32.11,32.11,0,0,0,1.73-8.17A14.57,14.57,0,0,0,38.78,92.74Z"/><path d="M23,54.3c-.19.8-1.52.6-1.86-.15a4.31,4.31,0,0,1,.05-2.41,6.56,6.56,0,0,0-1-4.5.93.93,0,0,1,.9-1.35c-.26.27,0,.72.3.92s.71.26,1,.53a1.5,1.5,0,0,1,.31.6A11.57,11.57,0,0,1,23,54.3Z"/><path d="M34.57,19.31c.35.27.67.71.51,1.12s-.94.54-1.42.28a6.15,6.15,0,0,0-1.44-.79c-.54-.11-1.22.41-1,.89a2.7,2.7,0,0,1,.47,1.71c-.11.6-.83,1.09-1.33.75s.13-1.36-.3-1.83-.93-.18-1.27.15a8.85,8.85,0,0,1-.95,1.07c-.39.28-1.07.24-1.2-.22s.14-.65.37-.9a9.22,9.22,0,0,1,3.41-2.6A4.31,4.31,0,0,1,34.57,19.31Z"/><path d="M15.92,23.61a10.35,10.35,0,0,1,3.78-2.23c1.26-.41,2.84-.5,3.75.47.59.62.44,2-.41,1.95a3.19,3.19,0,0,0-1.13-1.09A1.09,1.09,0,0,0,20.5,23c-.43.79.49,2.08-.28,2.53a.84.84,0,0,1-1.1-.53,2.38,2.38,0,0,1,.05-1.37c-.52-.28-1.14,0-1.69.25S16.14,24.15,15.92,23.61Z"/><path d="M23,28.15a3.61,3.61,0,0,1,4.19-2.62,1.84,1.84,0,0,1,1.08.65c.5.73.05,1.72-.46,2.45a4.85,4.85,0,0,1-2,1.84,2.16,2.16,0,0,1-2.52-.5A2.23,2.23,0,0,1,23,28.15m1.43.41a1,1,0,0,0,.11.58c.24.37.82.28,1.17,0s.61-.65,1-.87a.93.93,0,0,0,0-1.49,1.31,1.31,0,0,0-1.62.17A2.25,2.25,0,0,0,24.41,28.56Z"/><path d="M120.21,59.44a42.75,42.75,0,0,0-6.89-2.6c-1-.25-2.26-.78-2.13-1.8l3.8,1.29c2.92,1,6,2.07,8.05,4.35Z"/><path d="M35.16,92.58a3.27,3.27,0,0,1-1.28.63,1.12,1.12,0,0,1-1.22-.55A50.5,50.5,0,0,0,41,86.88c.34-.29.88.19.81.63s-.46.74-.83,1Z"/><path d="M152.46,90.53A10,10,0,0,0,151.23,85c-.27-.47-.34-1.35.2-1.29a12.61,12.61,0,0,1,1,11.55C151.86,93.75,152.35,92.11,152.46,90.53Z"/><path d="M4.85,70.66c-.68.39-1.74.64-2.07-.07,2.28-1.58,4.62-3.08,7-4.46.36.64-.28,1.37-.86,1.82A34.48,34.48,0,0,1,4.85,70.66Z"/><path d="M120.4,17.71a23.34,23.34,0,0,1,4.83,4c.53.57,1,1.17,1.51,1.78-.33.18-.73-.08-1-.33A28.68,28.68,0,0,1,120.4,17.71Z"/><path d="M130.87,25.48a7,7,0,0,1-3.18-1c-.36-.22-.73-.55-.72-1A6.35,6.35,0,0,1,130.87,25.48Z"/><path d="M16.48,62.68a5.19,5.19,0,0,1,3.46,1A2.73,2.73,0,0,1,16.48,62.68Z"/><path d="M120.53,95.73l-.62-2.68-.23-1a11.34,11.34,0,0,1,1.51,9.63A17.22,17.22,0,0,0,120.53,95.73Z"/><path d="M21.17,45.73a1.48,1.48,0,0,1,.22-2.13A2.65,2.65,0,0,1,22,46a.62.62,0,0,1-.88-.16Z"/><path d="M45.15,65.62A3.35,3.35,0,0,1,45,69.8Z"/><path d="M123.93,60.62c.32,0,.46.39.47.72-.35.23-.77-.43-.46-.7Z"/><path d="M152,95.68c0-.21.41-.09.42.12s-.21.37-.39.46l-.11-.59Z"/><path d="M19.79,66.32a.73.73,0,0,1,1,.25,2.1,2.1,0,0,1,.28,1.08.7.7,0,0,1-.05.45c-.22.43-.93.13-1.07-.33s0-1-.13-1.43Z"/></g></g></g></svg>