<svg xmlns="http://www.w3.org/2000/svg" viewBox="0 0 72.23 98.29"><defs><style>.cls-1{fill:#fcee7d;}.cls-2{fill:#3f3e72;}.cls-3{fill:#eacdb0;}.cls-4{fill:#eda9ae;}</style></defs><title>Me</title><g id="Layer_2" data-name="Layer 2"><g id="Layer_1-2" data-name="Layer 1"><g id="Me"><path class="cls-1" d="M68.74,92.94c-.7-.17-1.22-1.28-.54-1.53,1.74-.63,1.79-3,1.57-4.86-2.61-21.22.83-42.92-2.72-64-1.19-7.06-3.71-14.71-10-18.15C52.18,1.72,46.2,2.29,40.67,3,32.83,4.11,24.89,5.44,17.81,9S4.56,18.62,2.75,26.32A37.71,37.71,0,0,0,2,34.19,218,218,0,0,0,3.61,65.78c.45,3.6,1,7.25.46,10.84-.47,3.12-1.74,6.07-2.38,9.17s-.54,6.59,1.43,9.07a2.77,2.77,0,0,0,1.08.9c1.28.51,2.68-.72,3-2.06a14.12,14.12,0,0,0-.09-4.1c-.21-4.82,3.28-9.18,7.53-11.46s9.16-2.87,14-3.43c.9-.11,1.15-1.32,1-2.2s-.55-1.87-.07-2.64a3.44,3.44,0,0,1,2.11,3.5"/><path class="cls-2" d="M8.08,95.22S4.39,75.91,29.92,75.13s26.89-6,32.59,14.58C62.51,89.71,44.44,97.17,8.08,95.22Z"/><path class="cls-3" d="M15.07,54.26c3.58,5.68,8,11.48,14.46,13.32.28.08,0,1.84.09,2.27.55,2.17.77,4.25-1.25,7.71-1.42,2.44,5.83,8,6.52,8,.3,0,2.3.16,2.7-.14,2.07-1.48,3.67-7.17,5.62-9.52.36-.43-4.19-3.08-3.83-5,.4-2.12.86-3.66,1.46-3.86,12.08-3.9,20.43-17,18.86-29.62a14.65,14.65,0,0,0-1.82-5.86A20.1,20.1,0,0,0,53.65,27l-6-5.27A27.83,27.83,0,0,0,41.07,17c-5.9-2.66-13.14-.75-18.11,3.4s-8,10.15-10.22,16.24a20,20,0,0,0-1.56,8C11.41,48.15,13.22,51.31,15.07,54.26Z"/><path class="cls-4" d="M42,57.89h0a15.89,15.89,0,0,1-7.57,1.39c-.38,0-.63.45-.52.81a1.48,1.48,0,0,0,.74.8,7.27,7.27,0,0,0,8.12-.45c.32-.25.52.09.67.18l.36-.34a2,2,0,0,1,.47-2.44c-.51-.64-1.52-.29-2.27,0"/><path d="M10.87,35A35.68,35.68,0,0,1,21.78,19.05C26.88,15,33.6,12.8,40,13.86c2.87.48,5.78,1.69,7.51,4C49.85,21,53.35,23,56.06,25.78c6,6.15,7.54,15.94,4.67,24s-9.65,14.51-17.51,18c-1.41.63-3.06,1.39-3.36,2.91-.4,2,2,3.56,4.11,3.42s3.93-1.25,6-1.55c3.72-.54,7.39,1.76,9.56,4.82s3.15,6.79,4.09,10.42c.26,1,.39,2.38-.54,2.87-1.42.76-2.45-1.49-2.62-3.09-.38-3.77-1.6-7.64-4.33-10.27s-7.24-3.66-10.43-1.6c-3.56,2.3-4.46,7.47-8.08,9.68a26.37,26.37,0,0,1,5.2-9.19,4.62,4.62,0,0,1-4.47-5c.19-1.29-1.73-1.59-3-1.48A20,20,0,0,1,22,65.54a35.85,35.85,0,0,1-9.22-10.78,24.36,24.36,0,0,1-3.51-9A23.18,23.18,0,0,1,10.87,35m4.19,19.25c3.58,5.68,8,11.49,14.46,13.32A19.59,19.59,0,0,0,40.83,67c12.08-3.9,20.43-17,18.86-29.61a14.7,14.7,0,0,0-1.82-5.87A20.06,20.06,0,0,0,53.64,27l-6-5.28A27.51,27.51,0,0,0,41.06,17c-5.9-2.67-13.14-.75-18.11,3.39s-8,10.15-10.23,16.24a20.22,20.22,0,0,0-1.55,8C11.4,48.12,13.21,51.27,15.06,54.22Z"/><path d="M35.33,84.16c.55.31.19,1.28-.44,1.42a2.26,2.26,0,0,1-1.74-.66,18.73,18.73,0,0,1-5.09-6.23,1.66,1.66,0,0,1-.23-1.25c.16-.41.83-.59,1-.19A16,16,0,0,0,35.33,84.16Z"/><path d="M28.72,74.69c.9-.1,1.15-1.31,1-2.2s-.55-1.87-.07-2.64a3.35,3.35,0,0,1-.75,6.44C24,77,19,77.75,14.92,80.4s-7.08,7.74-5.7,12.43C10,95.43,7.7,98.59,5,98.27c-2-.24-3.49-2.11-4.2-4-2.48-6.7,1.54-13.94,2-21.07.24-4-.66-8-1.25-11.9C.38,53.65.39,45.92.39,38.22c0-5.1,0-10.32,1.79-15.11C4.35,17.22,9,12.5,14.41,9.25S25.84,4.07,31.9,2.44C37.08,1.05,42.38-.16,47.73,0S58.56,1.9,62.39,5.65c4.54,4.46,6.15,11.08,7,17.39,2.89,21.1-.27,42.68,2.62,63.77a8.79,8.79,0,0,1,0,4,2.88,2.88,0,0,1-3.09,2.07c-.71-.17-1.23-1.29-.54-1.53,1.74-.63,1.79-3,1.56-4.87-2.61-21.21.84-42.91-2.72-64-1.19-7-3.71-14.7-10-18.14C52.31,1.71,46.34,2.28,40.8,3,33,4.1,25,5.42,18,9S4.7,18.61,2.88,26.31a38.3,38.3,0,0,0-.77,7.86,218.13,218.13,0,0,0,1.64,31.6c.45,3.6,1,7.25.45,10.83-.47,3.13-1.73,6.08-2.37,9.18s-.55,6.59,1.42,9.06a2.74,2.74,0,0,0,1.09.91c1.27.5,2.67-.72,3-2.06a14.85,14.85,0,0,0-.09-4.1C7,84.77,10.52,80.4,14.77,78.13S23.93,75.26,28.72,74.69Z"/><path d="M10.91,67.92l2.61-1.34c.78-.39,2.1-.52,2.16.35a1.23,1.23,0,0,1-.51.93A7.59,7.59,0,0,1,12,69.58c-.84.23-2.14-.15-1.88-1A1.39,1.39,0,0,1,10.91,67.92Z"/><path d="M53.32,33.74a6.43,6.43,0,0,0-5.09-1,11.76,11.76,0,0,0-7.34,4.38c-.36.46-1.19,0-1.23-.57a2.05,2.05,0,0,1,.8-1.5,14.14,14.14,0,0,1,7-4,9.15,9.15,0,0,1,7.69,1.81,4.29,4.29,0,0,1,1.7,3.62C55.33,36.36,54.51,34.7,53.32,33.74Z"/><path d="M41.93,57.87a15.94,15.94,0,0,1-7.58,1.4c-.37,0-.62.44-.52.8a1.57,1.57,0,0,0,.74.81,7.31,7.31,0,0,0,8.13-.45c.32-.25.82.1.85.51A1.44,1.44,0,0,1,43,62a6.52,6.52,0,0,1-5.26,1.51,10.61,10.61,0,0,1-5.09-2.31c-.53-.42-1.09-1-.89-1.68s.84-.8,1.42-1l7.57-2a7.47,7.47,0,0,1,3.07-.35A2.56,2.56,0,0,1,46,58.14a4,4,0,0,1-2.28,2.12,2,2,0,0,1,.48-2.44c-.52-.63-1.53-.29-2.27,0Z"/><path d="M18.78,34.34c2.47-1.51,5.11-3,8-3.21s6.1,1.06,7.24,3.72a1.48,1.48,0,0,1,.08,1.26c-.2.39-.85.51-1.05.12a6.54,6.54,0,0,0-6.58-3.38c-2,.28-3.67,1.46-5.53,2.16C20.11,35.32,18.78,35.23,18.78,34.34Z"/><path d="M26.69,37.64A2.5,2.5,0,0,1,28.63,40a7.45,7.45,0,0,1-.75,3.22,1.25,1.25,0,0,1-2.13.13c.1.44-.57.72-.95.47a1.7,1.7,0,0,1-.58-1.19,6.46,6.46,0,0,1,0-3.24A2.48,2.48,0,0,1,26.69,37.64Z"/><path d="M47.54,39.47a13,13,0,0,1,1.12-1.72c.45-.61,1-1.27,1.75-1.29a4.93,4.93,0,0,1-.51,6.83,1.84,1.84,0,0,1-2.62-.8A3.51,3.51,0,0,1,47.54,39.47Z"/><path d="M39.94,48.58A6.57,6.57,0,0,1,41.65,52c.09,1.28-.95,2.72-2.22,2.53a1.63,1.63,0,0,1-1.2-.86c.55-.47,1.5-.31,2-.88s0-1.49-.45-2.17S39.18,48.8,39.94,48.58Z"/></g></g></g></svg>