<svg xmlns="http://www.w3.org/2000/svg" viewBox="0 0 775.78 256.86"><defs><style>.cls-1{fill:#009245;}.cls-2{fill:#1c428e;}.cls-3{fill:gray;}.cls-4{fill:#c1272d;}.cls-5{fill:#fff;}.cls-6{stroke:#000;stroke-miterlimit:10;stroke-width:0.2px;}</style></defs><title>Name</title><g id="Layer_2" data-name="Layer 2"><g id="Layer_1-2" data-name="Layer 1"><g id="Name"><path d="M683.16,143.88H703c8.71,0,17.43-.12,26.13,0,7,.12,14.1.9,21.13.76,6.48-.13,12.93-1.32,19.42-1.63,6.15-.29,6.46.26,5.91,6.17a8.81,8.81,0,0,0,0,.89c-.3,23.47-.54,46.94-.93,70.4-.15,8.7.09,17.49-4.41,25.49-1.57,2.78-.51,4.66,2.62,5.47.62.16,1.07,1,1.59,1.52-.59.37-1.15,1-1.78,1.07-4.52.67-9,1.55-13.59,1.77q-15.26.75-30.53.92-18,.22-36,0c-10-.12-20.08-.23-30.08-.94-11.62-.83-23.19-2.47-34.81-3.44-7.31-.62-14.7-.39-22-1-11.17-1-22.31-2.33-33.46-3.51-.44-.05-.9,0-1.34,0-11.38-.3-22.75-.58-34.12-.9-9.58-.27-19.18-.35-28.74-1-8.16-.53-16.27-2-24.43-2.5-4.62-.3-9.3.61-14,.75a6.63,6.63,0,0,1-6.75-6.65c0-6.81-.17-13.62,0-20.42.51-18.27,1.14-36.53,1.78-54.8.19-5.55.79-11.1.8-16.65,0-3.37,2-4.4,4.51-4.43,10.75-.15,21.5-.06,32.25-.06,8,0,15.94-.24,23.89.06,7.38.28,14.73,1.45,22.11,1.63,6.43.16,12.89-.74,19.33-.74,9.67,0,19.34.49,29,.54,8.08,0,16.16-.3,24.24-.35,2.09,0,4.17.61,6.26.62,11.4.06,22.8-.08,34.2.07,7.19.09,14.38.56,22,.86m54.92,2H724.07c-7.22,0-14.44-.11-21.66.07-2.21.06-5.6-1.71-5.73,3.11-.47,18.27-1.13,36.53-1.74,54.8-.27,7.87-.44,15.75-.91,23.6a106.4,106.4,0,0,1-1.35,11.1c-1.85,10.9-1,13.16,8,13,19.14-.24,38.27-.59,57.41-.86,4.57-.07,8.56-.18,9.26-6.43.66-5.8,3.21-11.43,3.59-17.23.81-12.44.76-24.93,1-37.4.31-13.31.34-26.64,1.08-39.93.19-3.42-.81-4.74-3.54-4.67-4.29.12-8.56,1.17-12.85,1.26-6.09.12-12.19-.28-19.19-.46M620.57,246.54a11.1,11.1,0,0,0,3,1.3c9,1,18,2.1,27.08,2.67,9.75.61,19.54.76,29.31.93,8.37.15,8.33,0,8.71-8.19.08-1.67.7-3.32.84-5,.65-7.8,1.31-15.61,1.8-23.42.68-10.94,1.43-21.88,1.75-32.83.29-10.13-.09-20.28.14-30.42.08-3.81-1.94-4.82-5-4.92-11.51-.37-23-.72-34.53-.89-9.55-.15-19.1,0-28.64-.05-2.15,0-3.71-.25-2.88,3.1a48.42,48.42,0,0,1,1,11.68c0,4.8-.64,9.59-.81,14.4q-.55,15.91-.9,31.85c-.12,6.11.12,12.22-.1,18.33-.25,7-.83,14-.81,21.46M544.4,228.62a79.11,79.11,0,0,0-.74,9.92c0,1.06,1.8,2.8,3,3,6.28.86,12.6,1.44,18.93,1.89,13.79,1,27.59,1.81,41.39,2.73a16.74,16.74,0,0,1,3.82.51c3.28,1,5-.15,5.33-3.5.61-6,1.49-12,1.74-18.05.5-12.25.66-24.51.95-36.77q.47-19.28.9-38.55a2.63,2.63,0,0,1,0-.89c.92-2.25.36-3.13-2.24-3.17-10.62-.18-21.23-.79-31.85-.78-11.36,0-22.72.65-34.08.75-3.16,0-4,1.82-4.37,4.13a100.18,100.18,0,0,0-.93,10.81c-.37,10.81-.63,21.63-.92,32.44-.31,11.56-.6,23.13-.9,35.58m-1.79-59.14c0-3.73-.23-7.48.07-11.19.28-3.51,1.21-7,1.65-10.47.07-.63-.82-2-1.32-2q-10.75-.58-21.54-.87c-4.11-.11-8.23.11-12.34,0-5.5-.15-11-.57-16.5-.73-4.63-.13-9.41.63-13.89-.25-7.74-1.52-10.64-.05-10.47,6.8a14,14,0,0,0,.77,3,15.74,15.74,0,0,0,1.86-2.5c2-4.17,5.12-3.33,8.43-2.1,4.3,1.6,2.36,4.43,1.46,7.1s-1.75,5.55-2.72,8.29a52.87,52.87,0,0,1-2.26,5.33c-.21.42-.91.61-1.38.91-.28-.57-.91-1.25-.76-1.67,1.47-4.36,1.62-8.31-2.73-11.26a14.4,14.4,0,0,1-2.11-2.16,12.12,12.12,0,0,0-.57,2.6c0,13.89.11,27.78-.1,41.67-.07,4.71-1.3,9.39-1.48,14.11-.3,7.63-.32,15.29-.06,22.92,0,1,2.41,2.63,3.74,2.66,9.75.23,19.52-.1,29.27.18,12.6.37,25.19,1.19,37.79,1.61.8,0,2.34-1.67,2.4-2.64q1.13-18.43,1.86-36.88c.22-5.87-.08-11.75.07-17.63.12-4.65.56-9.31.86-14.86m-65-16.57-4.84.36,1.05,3.9c1.31-.87,2.65-1.71,3.92-2.65C478,154.33,478,153.75,477.64,152.91Z"/><path class="cls-1" d="M288.58,59.25c.89,6.2,1.89,11.93,2.65,17.7a111.83,111.83,0,0,1,.89,11.27c.13,4.24-1.76,6-6.12,6-4.83,0-9.66-.09-14.48,0-4,.1-4.4-2.54-4.43-5.41-.07-7.32,0-14.63,0-21.95,0-4.88-1-5.82-5.77-5.83-9.62,0-9.5,0-7.7,9.49,1.39,7.38,2.5,14.81,3.59,22.25.52,3.5-1.13,5.25-4.78,5-5.25-.34-10.5-.66-15.75-.89-3.9-.17-4.24-3.56-4.39-5.85-.88-13.87-.93-27.8-2.07-41.64-.76-9.3-2.95-18.47-4.29-27.72-.56-3.85,2.54-5.67,5.39-6.2,4.7-.86,9.59-.65,14.38-1.08,3.2-.29,4,1.84,4.32,4.15.76,6,1.57,12,1.73,18.06.09,3.6.84,5.26,4.71,4.76a45.15,45.15,0,0,1,6.47.08c-.1-2.18-.17-4.37-.32-6.55-.27-3.91-.78-7.81-.83-11.72-.06-4.22,2.75-6.86,7-6.94,3.78-.07,7.57-.08,11.35,0,3.48.08,5.54,1.85,5.78,5.43.32,4.71.57,9.41.91,14.11.57,7.67,1.19,15.34,1.79,23.45"/><path d="M288.58,59.25c.89,6.2,1.89,11.93,2.65,17.7a111.83,111.83,0,0,1,.89,11.27c.13,4.24-1.76,6-6.12,6-4.83,0-9.66-.09-14.48,0-4,.1-4.4-2.54-4.43-5.41-.07-7.32,0-14.63,0-21.95,0-4.88-1-5.82-5.77-5.83-9.62,0-9.5,0-7.7,9.49,1.39,7.38,2.5,14.81,3.59,22.25.52,3.5-1.13,5.25-4.78,5-5.25-.34-10.5-.66-15.75-.89-3.9-.17-4.24-3.56-4.39-5.85-.88-13.87-.93-27.8-2.07-41.64-.76-9.3-2.95-18.47-4.29-27.72-.56-3.85,2.54-5.67,5.39-6.2,4.7-.86,9.59-.65,14.38-1.08,3.2-.29,4,1.84,4.32,4.15.76,6,1.57,12,1.73,18.06.09,3.6.84,5.26,4.71,4.76a45.15,45.15,0,0,1,6.47.08c-.1-2.18-.17-4.37-.32-6.55-.27-3.91-.78-7.81-.83-11.72-.06-4.22,2.75-6.86,7-6.94,3.78-.07,7.57-.08,11.35,0,3.48.08,5.54,1.85,5.78,5.43.32,4.71.57,9.41.91,14.11.57,7.67,1.19,15.34,1.79,23.45M232.12,32.81c.9,11.13,1.92,22.24,2.65,33.37.51,7.77.77,15.57.87,23.36,0,2.88.89,3.86,3.81,3.84a103.21,103.21,0,0,1,10.37.82c2.4.22,4.29-.27,3.79-3.25-1.44-8.64-2.86-17.29-4.53-25.89-1-5.2.55-7.59,5.59-7.6,3.29,0,6.63-.39,9.83.14,1.88.31,4.3,1.69,5.07,3.27,1.06,2.19,1,5,1,7.59.13,6.27.12,12.54,0,18.81-.05,2.45.76,3.59,3.3,3.35,3.29-.3,6.82-1.39,9.81-.55,4.09,1.14,5.2,0,4.82-3.65-.81-8-1.81-16-2.64-24-.41-3.89-.62-7.81-.92-11.71-.59-7.72-1.53-15.42-1.67-23.15-.09-4.88-2.13-7.74-7.17-7.77-2.24,0-4.63-.49-6.66.16-1.63.52-4,2.4-4,3.72-.09,4.11,1,8.23,1.18,12.37.15,3.09.24,6.45-.85,9.2-.37.94-4.45.41-6.83.53a11.88,11.88,0,0,1-1.79,0c-8.76-.83-8.85-1-9-9.9a89.27,89.27,0,0,0-1-13.48c-.27-1.62-2.15-4-3.54-4.17a25.24,25.24,0,0,0-9.41.82c-1.51.4-3.65,2.27-3.72,3.57C230.37,25.85,231.23,29.12,232.12,32.81Z"/><path class="cls-2" d="M13,89C7.92,82.61,1.57,77.29.83,68.75-.07,58.2-.75,48,5.23,38c5.56-9.23,10.6-18.77,18.6-26.07C30.64,5.72,38,.37,48.25.84,66.94,1.7,82.83,7.49,94.63,23,101,31.3,104.9,40.15,104.78,50.42c-.1,8.29-4.33,15.34-8.71,22.19A62.12,62.12,0,0,1,74.63,92.73c-4.77,2.8-9.4,6.3-14.58,7.84-8.34,2.46-17,2.1-25.62,0C26.25,98.66,19.1,95.22,13,89"/><path class="cls-3" d="M128.18,37.29C127,41,125,44.61,124.74,48.35c-.91,14.11,3.77,26.86,10.59,39,6.4,11.35,16.18,16.15,29,15.91,6.85-.12,13-2.25,18.82-5.4,4.66-2.52,9.65-4.83,13.51-8.31,8.54-7.69,13.62-17.7,17.64-28.43,3.16-8.41,2.3-15.56-3.8-22.1-3.81-4.09-7.16-8.76-11.51-12.15-5.24-4.09-10.94-8.53-17.15-10.21-6.43-1.75-13.77-.93-20.62-.23a79.08,79.08,0,0,0-17.05,4.11C136.41,23.14,132.65,30.22,128.18,37.29Z"/><path d="M12.81,88.59C7.69,82.21,1.33,76.86.59,68.28-.31,57.68-1,47.38,5,37.39c5.57-9.28,10.62-18.86,18.64-26.21C30.46,4.94,37.86-.44,48.11,0,66.84.89,82.77,6.72,94.59,22.29c6.34,8.35,10.29,17.25,10.17,27.57-.1,8.33-4.34,15.42-8.73,22.3A62.25,62.25,0,0,1,74.55,92.38c-4.78,2.82-9.42,6.33-14.62,7.87-8.35,2.48-17,2.11-25.67,0-8.19-2-15.36-5.42-21.45-11.71m63.4-77.28C68.75,8.77,61.46,5.43,53.8,3.87,40.67,1.19,30.3,7.92,22.41,17.16,16,24.72,10.87,33.72,6.52,42.73.32,55.6,2.81,73,13.86,84.3c6.65,6.78,14.53,11.46,23.92,12.42,7.26.75,15.43,2,21.86-.41,13.52-5.17,25.82-13.14,33.54-26.19,4.27-7.22,8.76-14.36,7.3-23.59C98,31.07,89.4,20.06,76.21,11.31Z"/><path d="M139.16,19.15c6.81-2.32,13.28-5.12,20-6.3a72.16,72.16,0,0,1,21-.8c4.82.61,9.53,3.6,13.89,6.2,8.88,5.29,15.72,12.92,21.8,21.13,5.34,7.21,4.88,15.4,1.56,23.12A183.77,183.77,0,0,1,205.82,85c-4.64,7.67-11.93,12.73-19.95,16.3s-16.32,7.27-25.55,6.37c-10.33-1-18.52-5.13-25.26-13.76-7.83-10-10.31-21.82-13.86-33.26-3.92-12.68,6.06-34.76,18-41.45m-11,18.14C127,41,125,44.61,124.74,48.35c-.91,14.11,3.77,26.86,10.59,39,6.4,11.35,16.18,16.15,29,15.91,6.85-.12,13-2.25,18.82-5.4,4.66-2.52,9.65-4.83,13.51-8.31,8.54-7.69,13.62-17.7,17.64-28.43,3.16-8.41,2.3-15.56-3.8-22.1-3.81-4.09-7.16-8.76-11.51-12.15-5.24-4.09-10.94-8.53-17.15-10.21-6.43-1.75-13.77-.93-20.62-.23a79.08,79.08,0,0,0-17.05,4.11C136.41,23.14,132.65,30.22,128.18,37.29Z"/><path class="cls-4" d="M544,38.64c-4.78,7.12-9.41,13.92-14.4,20.43a63.66,63.66,0,0,1-9,9.59c-4.13,3.52-2.27,7.81-2.3,11.88,0,6.1,0,12.19,0,18.29,0,2.2-.25,4.39-.27,6.59,0,5.78-1.63,8.07-7.33,8.36a46.84,46.84,0,0,1-12.39-1.33c-4.4-1-5.89-3.86-4.42-8.63,2.83-9.22,1.8-18.64,1.46-27.93-.12-3.35-3.27-6.61-5.12-9.87-1.72-3-3.58-6-5.33-9q-5.57-9.56-11.08-19.14a26.18,26.18,0,0,1-2.19-4c-1.69-4.68-.11-6.88,4.81-6.88,3.58,0,7.24.45,10.73-.1,5.36-.85,8.74,1.56,10.95,5.83,3,5.76,5.5,11.75,8.28,17.61.34.7,1.12,1.61,1.72,1.63a2.54,2.54,0,0,0,1.78-1.53c2.18-6.27,4.26-12.57,6.32-18.88s5-7.77,11.51-6.12c4.22,1.07,8.59,1.57,12.86,2.49,2.3.49,5.51.68,6.49,2.18.84,1.3-.82,4.3-1.54,6.49-.21.63-1,1.07-1.53,2"/><path d="M544,38.64c-4.78,7.12-9.41,13.92-14.4,20.43a63.66,63.66,0,0,1-9,9.59c-4.13,3.52-2.27,7.81-2.3,11.88,0,6.1,0,12.19,0,18.29,0,2.2-.25,4.39-.27,6.59,0,5.78-1.63,8.07-7.33,8.36a46.84,46.84,0,0,1-12.39-1.33c-4.4-1-5.89-3.86-4.42-8.63,2.83-9.22,1.8-18.64,1.46-27.93-.12-3.35-3.27-6.61-5.12-9.87-1.72-3-3.58-6-5.33-9q-5.57-9.56-11.08-19.14a26.18,26.18,0,0,1-2.19-4c-1.69-4.68-.11-6.88,4.81-6.88,3.58,0,7.24.45,10.73-.1,5.36-.85,8.74,1.56,10.95,5.83,3,5.76,5.5,11.75,8.28,17.61.34.7,1.12,1.61,1.72,1.63a2.54,2.54,0,0,0,1.78-1.53c2.18-6.27,4.26-12.57,6.32-18.88s5-7.77,11.51-6.12c4.22,1.07,8.59,1.57,12.86,2.49,2.3.49,5.51.68,6.49,2.18.84,1.3-.82,4.3-1.54,6.49-.21.63-1,1.07-1.53,2m-66.76-.9c3.43,5.74,6.91,11.46,10.29,17.23,2.95,5,5.28,10.56,8.87,15.06,2.63,3.29,2.93,6.48,2.77,10.11-.2,4.21-.56,8.41-.88,12.61-.27,3.61-.51,7.23-.91,10.82-.45,3.93.9,5.57,4.88,5.88,2.57.2,5.12.63,7.69.86,3,.27,5.22-1.6,5.23-4.06.05-9.43-.52-18.86-.73-28.29-.1-4.48-1.06-9.18,3.8-12.34a27.28,27.28,0,0,0,7.18-6.33c5.52-7.49,10.67-15.25,15.89-22.95a46.39,46.39,0,0,0,2.48-4.62c-1.66-.08-3.33-.11-5-.28-.5-.06-.95-.68-1.46-.75-4.66-.67-9.32-1.52-14-1.75a5.17,5.17,0,0,0-4,2.7c-3,8.15-5.7,16.44-8.55,24.67a4,4,0,0,1-1.46,2c-.29.17-1.42-.44-1.72-1-1.7-2.87-3.25-5.82-4.85-8.73-2.69-4.86-5.33-9.74-8.09-14.56a6.5,6.5,0,0,0-6.44-3.55c-3.89.13-7.81-.56-11.72-.75a9.48,9.48,0,0,0-2.79.77,20.47,20.47,0,0,0,.86,2.79A34.76,34.76,0,0,0,477.2,37.74Z"/><path class="cls-3" d="M319,29.23c-6.11,4.75-9.63,11.62-11.36,18.53-2.91,11.69-2.11,23.78,3.48,34.76,1.82,3.57,5.42,6.66,8.91,8.85,6.21,3.89,13.41,2.92,20.44,2.93,13.08,0,22.35-7.45,28.4-17.12,12-19.26,2.32-38.48-16.07-48.13a81.78,81.78,0,0,0-10.37-4.14c-3.39-1.21-7-3.34-10.25-3A17.35,17.35,0,0,0,319,29.23Z"/><path class="cls-2" d="M449.42,33.26l-5.68-3.58c-6.58-4.14-14.32-3.64-21.5-5.4-9.24-2.27-16.11,1.33-21,8.88a96.74,96.74,0,0,0-8.63,16.11c-5.15,12.76-7.37,25.62-2.12,39.31,3,7.9,8.34,12.74,15.8,13.42,15,1.35,30.05,1,42.35-9.81,6.64-5.8,12.7-12.32,13.68-21.6C463.82,56.5,459.31,44.22,449.42,33.26Z"/><path class="cls-5" d="M166.26,86.13a54.22,54.22,0,0,0,6.78-.94c11.46-3,15.85-13.58,10.5-22-2.39-3.78-6.78-6.33-10.43-9.25-1.83-1.46-4.46-2.11-5.91-3.83s-2.38-4.24-2-6.1c.25-1.19,3.25-2.06,5.15-2.6,3.62-1,4.91,2.52,7.28,4,1.37.86,3.38.69,5.1,1,0-1.53.47-3.19,0-4.55A19.27,19.27,0,0,0,179.62,36c-3.15-3.93-11.39-5.59-14.86-1.1-2.57,3.32-5.25,6.75-6.87,10.56-2.1,4.93,1.58,9.4,7.11,10.35,2.79.48,6.1,1.37,7.93,3.27,3.35,3.49,3.8,10.6,1,14.2C171,77,163.84,78.12,160.05,74.51c-2.69-2.55-5-5.5-8-7.73-1.66-1.27-4.11-1.6-6.26-2-.33-.06-1.63,1.91-1.43,2.65,1.38,5,1.81,10.79,7.53,13.32C156.35,82.67,160.89,84.34,166.26,86.13Z"/><path class="cls-5" d="M418.51,62.38c-.21-.8-.4-1.62-.64-2.42-1.88-6.25,1.82-10.71,8.06-9.66,3.05.52,6.07,1.22,9.13,1.69.55.09,1.75-.53,1.75-.82a43.1,43.1,0,0,0-.59-9.25c-.19-.8-2.92-1.33-4.51-1.43-6.88-.43-13.78-.61-20.66-1-2.51-.13-3.4.86-3.33,3.34.12,4.92.23,9.85,0,14.76-.45,9-1.36,18-1.56,27,0,1.66,2.19,4.6,3.75,4.88,7.46,1.35,15,2.08,22.58,2.81,1.26.13,3.51-.53,3.73-1.29a6.57,6.57,0,0,0-.56-5c-.54-.83-2.71-.59-4.15-.85-2.91-.52-6.05-.55-8.66-1.75-1.71-.78-1.52-10.12.37-11.19,2.42-1.38,5.54-1.57,8.39-2.15.41-.08,1,.71,1.45.72,2,0,4.25.6,4.33-2.74.06-2.7-.94-3.82-3.61-3.5s-5.42.73-8.14.86S420.2,66.21,418.51,62.38Z"/><path d="M389.83,96.88c-4.07-9-6.53-17.62-5.63-27.51a82.64,82.64,0,0,1,8.46-29.26c4.42-9,10-17.4,20.73-20,3.61-.88,7.58-1.6,11.14-1a112.25,112.25,0,0,1,17.24,4.79c8,2.7,13,8.64,17.13,15.76A55.07,55.07,0,0,1,466,64c.16,2.27,1,4.6.7,6.77-.2,1.32,3.44,4.87-1.74,4.3-.21,0-.58.89-.76,1.41-5.54,15.5-17.32,24-32.46,28.38a54.44,54.44,0,0,1-28.81.66c-4.76-1.21-8.77-5.39-13.12-8.68m59.59-63.62-5.68-3.58c-6.58-4.14-14.32-3.64-21.5-5.4-9.24-2.27-16.11,1.33-21,8.88a96.74,96.74,0,0,0-8.63,16.11c-5.15,12.76-7.37,25.62-2.12,39.31,3,7.9,8.34,12.74,15.8,13.42,15,1.35,30.05,1,42.35-9.81,6.64-5.8,12.7-12.32,13.68-21.6C463.82,56.5,459.31,44.22,449.42,33.26Z"/><path d="M374.37,44.24c4.59,12.82,4.57,25.08-3.4,36.33s-18.82,17.66-32.86,18.1c-7.21.23-14.25-.16-20.93-3.52-4.93-2.49-7.43-6.82-9.77-11.36-5.08-9.88-5.32-20.62-4.35-31.25.81-8.78,4.86-16.6,10.65-23.28,4.35-5,9-10.08,16.11-10.68,3.86-.32,8.11-.22,11.68,1.08,6.46,2.35,13.19,4.86,18.59,8.93s9.44,10.2,14.28,15.65M319,29.23c-6.11,4.75-9.63,11.62-11.36,18.53-2.91,11.69-2.11,23.78,3.48,34.76,1.82,3.57,5.42,6.66,8.91,8.85,6.21,3.89,13.41,2.92,20.44,2.93,13.08,0,22.35-7.45,28.4-17.12,12-19.26,2.32-38.48-16.07-48.13a81.78,81.78,0,0,0-10.37-4.14c-3.39-1.21-7-3.34-10.25-3A17.35,17.35,0,0,0,319,29.23Z"/><path d="M720,188.75a6.49,6.49,0,0,0-.92-2.3,27.89,27.89,0,0,0-2.17-2.18c-.47,1-1.3,2-1.33,3-.12,5.81,0,11.63-.15,17.44,0,1.28-1.2,2.52-1.85,3.77-.55-1.2-1.62-2.44-1.56-3.61.43-7.52,1.28-15,1.63-22.53.16-3.28-.62-6.6-.74-9.91,0-.79.86-1.61,1.34-2.41a13.43,13.43,0,0,1,1.25,2.16c3.87,11.1,11.1,20.24,17.42,29.91a30.48,30.48,0,0,0,3.81,4.67,10.86,10.86,0,0,0,2.75,1.51c.38-1,1.1-2.08,1.08-3.11-.21-9.12-.55-18.24-.84-27.36a5.67,5.67,0,0,1,0-2.22,20.67,20.67,0,0,1,1.85-2.94c.56,1,1.58,2.06,1.62,3.12q.62,15.69.94,31.39c.1,5-3.11,7.09-6.75,3.86-4.85-4.31-8.81-9.65-13-14.72A44.06,44.06,0,0,1,720,188.75Z"/><path d="M654.62,192.33c-3.93.6-7.61.67-10.84,1.91-5.79,2.23-1.38,7.43-2.37,11.15-.16.61,2.66,2.79,4.22,2.93,4.64.4,9.33.05,14,.2,1.32,0,2.62.82,3.93,1.27-1.32.75-2.57,2-4,2.15a68.47,68.47,0,0,1-8.48.11c-12.63,0-12.31,0-12.74-12.76-.29-8.45-1.71-16.85-2.51-25.29-.29-3,1.49-4.1,4.31-4.08,6.56,0,13.12-.06,19.68.08,1.2,0,2.39.92,3.58,1.42-1.2.7-2.38,1.94-3.61,2-5.11.23-10.24.28-15.35,0-3.32-.16-4.61.94-4.23,4.26.42,3.59.44,7.24,1.07,10.78.14.84,2.07,2,3.09,1.93,3.2-.27,6.37-1.08,9.55-1.66a1.68,1.68,0,0,1,.89,0c1.43.61,2.83,1.26,4.25,1.9C657.75,191.22,656.41,191.77,654.62,192.33Z"/><path d="M591.89,181.58c.3,6.59.86,12.73.8,18.87,0,3.49-1,7-1.73,10.44a13.35,13.35,0,0,1-1.37,2.89c-.42-1.17-1.24-2.34-1.21-3.5.1-3.46.73-6.91.78-10.37.14-7.62-1.07-8.35-8.53-6.71a43.11,43.11,0,0,1-10.52.84c-3.6-.12-5.53.46-5.21,4.74a44.84,44.84,0,0,1-.86,9.9c-.13.9-1.2,1.65-1.84,2.47-.55-.9-1.6-1.81-1.58-2.69.07-3.17.71-6.32.77-9.48.13-7.16,0-14.32.1-21.48,0-1.32.8-2.63,1.24-3.94.76,1.3,2,2.54,2.18,3.9a53.42,53.42,0,0,1,.05,9.38c-.2,3,1,4,3.86,3.71,5.71-.63,11.43-1.47,17.16-1.68,2.64-.1,2.36-1.33,2.34-3a63.22,63.22,0,0,1,.09-8.49c.17-1.34,1.45-2.55,2.22-3.81a21.19,21.19,0,0,1,1.22,3.51A30.92,30.92,0,0,1,591.89,181.58Z"/><path d="M506.54,171.5a101,101,0,0,1,11.36-.58,3.68,3.68,0,0,1,2.72,1.8,24.52,24.52,0,0,1,1.09,5.12c-1.33-.63-2.88-1-4-1.94-3.62-3.1-13-1.82-16.42,2.68A24.17,24.17,0,0,0,496,193.79c.08,5.07,3.06,8.12,7.14,10.12a11.27,11.27,0,0,0,11.06-.52c1.16-.67,2.8-.53,4.22-.76a17.45,17.45,0,0,1-2.23,3.08c-3.53,3.18-11.08,3.74-14.82,1.4-11.8-7.36-10.61-15.65-5.27-26C498.31,176.81,501.06,172.83,506.54,171.5Z"/><path class="cls-5" d="M70.67,73.83c-3.31-15.06-6.36-30.18-9.79-45.21-.72-3.15-.69-7.82-5.58-7.79s-9.52.91-14.26,1.53c-.29,0-.53.93-.66,1.45-.92,3.51-2,7-2.68,10.53-2.42,12-4.88,24-7,36-.51,2.92-1.64,6.75,2.33,8.53C36,80.21,44.1,77.46,44.71,75c.7-2.91.72-6,1-9.44,0-2.39-.33-4.41.11-6.24.32-1.33,1.66-2.42,2.54-3.62.61,1,1.58,1.93,1.77,3A118.31,118.31,0,0,1,52,71.34c.69,9.92,2.62,12,10.9,11.21C67.89,82,71.54,77.77,70.67,73.83Zm-15.73-30c-1.55,2-5,2.62-7.68,3.69-.46.18-1.78-.46-1.79-.74a84.63,84.63,0,0,1,.11-9.29c.24-3,2.66-2.45,4.65-2.46a9.75,9.75,0,0,1,2.46.23C55.5,37.85,57,41.16,54.94,43.85Z"/><path class="cls-6" d="M45.74,65.52c-.31,3.45-.33,6.53-1,9.44C44.1,77.46,36,80.21,33,78.9c-4-1.78-2.84-5.61-2.33-8.53,2.11-12.05,4.57-24,7-36,.72-3.54,1.76-7,2.68-10.53.13-.52.37-1.42.66-1.45,4.74-.62,9.5-1.51,14.26-1.53s4.86,4.64,5.58,7.79c3.43,15,6.48,30.15,9.79,45.21.87,3.94-2.78,8.21-7.81,8.72-8.28.82-10.21-1.29-10.9-11.21a118.31,118.31,0,0,0-1.8-12.68c-.19-1.07-1.16-2-1.77-3-.88,1.2-2.22,2.29-2.54,3.62-.44,1.83-.11,3.85-.11,6.24M57.39,28.33c-.84-4.28-3.65-5.54-7.63-4.89-1.24.2-2.67.25-3.61.93-1.51,1.09-3.49,2.47-3.84,4.05-1,4.57-1.08,9.36-2,14C38.4,52,36.12,61.51,34.18,71.11c-.25,1.22.37,3.61,1,3.81a5.7,5.7,0,0,0,4.67-.68,8.19,8.19,0,0,0,2.18-4.8A75,75,0,0,0,43,57.3c-.13-4.56,2.14-5.62,6-5.22s4.5,3.19,4.86,6.4c.62,5.36,1.24,10.75,2.33,16,.9,4.42,4.13,5.68,8.4,4,2.48-1,3.35-2.36,2.28-4.94a36.27,36.27,0,0,1-2.25-6.66C62.12,54.39,59.78,41.8,57.39,28.33Z"/><path d="M52.69,35.28c2.81,2.57,4.31,5.88,2.25,8.57-1.55,2-5,2.62-7.68,3.69-.46.18-1.78-.46-1.79-.74a84.63,84.63,0,0,1,.11-9.29c.24-3,2.66-2.45,4.65-2.46a9.75,9.75,0,0,1,2.46.23m-1.12,4.25c-1.13.23-2.43.2-3.31.79a2.6,2.6,0,0,0-.37,2.54c.42.65,1.65.79,2.53,1.16A13.38,13.38,0,0,0,51.57,39.53Z"/><path d="M177.46,49.39c-1.29-.84-2-1.94-3-2.47a35.61,35.61,0,0,0-4.87-1.75c.83,1.55,1.29,3.57,2.56,4.53,2.05,1.56,4.75,2.23,7,3.62,8.25,5.23,12.1,14.16,9.63,22-2.92,9.29-10.23,14.55-20.56,14.36-10.92-.2-20.1-3.87-25.15-14.34a20.71,20.71,0,0,1-2.14-8c-.07-2,1-5.77,2.09-5.94,3-.48,6.68-.39,9.14,1.08,3,1.79,4.8,5.41,7.45,7.9,2.46,2.29,5.26,3.6,9.05,2.45,2.95-.9,3.69-2.45,3.48-5.08-.24-3-.36-6.1-3.66-7.56a15.8,15.8,0,0,0-3.64-.92c-8.53-1.55-11.27-4.61-10.55-12.92.62-7.15,4.77-12.7,10.43-16.51,4.92-3.31,13.07-.75,16.86,4.41a79.73,79.73,0,0,1,4.87,7.82c1.37,2.45,2,5.41-1,6.75-2.15,1-5,.44-8,.58m-11.2,36.74a54.22,54.22,0,0,0,6.78-.94c11.46-3,15.85-13.58,10.5-22-2.39-3.78-6.78-6.33-10.43-9.25-1.83-1.46-4.46-2.11-5.91-3.83s-2.38-4.24-2-6.1c.25-1.19,3.25-2.06,5.15-2.6,3.62-1,4.91,2.52,7.28,4,1.37.86,3.38.69,5.1,1,0-1.53.47-3.19,0-4.55A19.27,19.27,0,0,0,179.62,36c-3.15-3.93-11.39-5.59-14.86-1.1-2.57,3.32-5.25,6.75-6.87,10.56-2.1,4.93,1.58,9.4,7.11,10.35,2.79.48,6.1,1.37,7.93,3.27,3.35,3.49,3.8,10.6,1,14.2C171,77,163.84,78.12,160.05,74.51c-2.69-2.55-5-5.5-8-7.73-1.66-1.27-4.11-1.6-6.26-2-.33-.06-1.63,1.91-1.43,2.65,1.38,5,1.81,10.79,7.53,13.32C156.35,82.67,160.89,84.34,166.26,86.13Z"/><path d="M426.57,81.65c4.08,0,7.72-.1,11.34.08a3,3,0,0,1,2,1.77c2.48,8.44-2.45,13.79-11.28,12.51-5.11-.74-10.24-1.37-15.38-1.78-8.48-.67-11.21-3.14-10.83-11.7.52-12,1.62-24.08,2.43-36.12a41.66,41.66,0,0,0,.12-6.79c-.33-3.53,1.63-3.82,4.35-3.69q12.12.54,24.25.9c4.68.13,6.18,1.55,6.43,6.19.16,3,.5,6,.89,9s-1.25,4-3.91,3.59c-3.76-.6-7.47-1.49-11.23-2-1.17-.16-3.3.13-3.52.75a16.18,16.18,0,0,0-.88,6.26c0,.49,2.17,1.27,3.32,1.24,3.31-.09,6.62-.53,9.93-.82s4.86.65,5.52,4.42c1.49,8.47-1.15,11.58-9.47,8.78-3.24-1.08-4.44.51-5.16,2s.33,3.56,1,5.39m-8.06-19.27c-.21-.8-.4-1.62-.64-2.42-1.88-6.25,1.82-10.71,8.06-9.66,3.05.52,6.07,1.22,9.13,1.69.55.09,1.75-.53,1.75-.82a43.1,43.1,0,0,0-.59-9.25c-.19-.8-2.92-1.33-4.51-1.43-6.88-.43-13.78-.61-20.66-1-2.51-.13-3.4.86-3.33,3.34.12,4.92.23,9.85,0,14.76-.45,9-1.36,18-1.56,27,0,1.66,2.19,4.6,3.75,4.88,7.46,1.35,15,2.08,22.58,2.81,1.26.13,3.51-.53,3.73-1.29a6.57,6.57,0,0,0-.56-5c-.54-.83-2.71-.59-4.15-.85-2.91-.52-6.05-.55-8.66-1.75-1.71-.78-1.52-10.12.37-11.19,2.42-1.38,5.54-1.57,8.39-2.15.41-.08,1,.71,1.45.72,2,0,4.25.6,4.33-2.74.06-2.7-.94-3.82-3.61-3.5s-5.42.73-8.14.86S420.2,66.21,418.51,62.38Z"/><path class="cls-5" d="M326.21,85.23a27.91,27.91,0,0,0-2.76-.86c-6.07-.35-6.1-.45-6.22-6.32-.23-11.35-.63-22.7-.85-34-.11-5.73,7.43-9.89,12.34-6.72a5.61,5.61,0,0,1,1.88,4c.23,5.06,0,10.14.13,15.2a62.69,62.69,0,0,0,1,11.22c.27,1.27,2.38,2.76,3.84,3a16.68,16.68,0,0,0,6.87-.5c7.74-2.06,12.15,1.14,12.42,9.26.25,7.79-5.37,11.45-14,9.2-4.72-1.23-9.47-2.32-14.66-3.48"/><path d="M326.21,85.23a27.91,27.91,0,0,0-2.76-.86c-6.07-.35-6.1-.45-6.22-6.32-.23-11.35-.63-22.7-.85-34-.11-5.73,7.43-9.89,12.34-6.72a5.61,5.61,0,0,1,1.88,4c.23,5.06,0,10.14.13,15.2a62.69,62.69,0,0,0,1,11.22c.27,1.27,2.38,2.76,3.84,3a16.68,16.68,0,0,0,6.87-.5c7.74-2.06,12.15,1.14,12.42,9.26.25,7.79-5.37,11.45-14,9.2-4.72-1.23-9.47-2.32-14.66-3.48m.9-32.7a63.05,63.05,0,0,0-.12-8.48c-.17-1.29-1.89-3.55-2.38-3.41-1.68.44-4.47,1.76-4.47,2.75,0,11.5.31,23,.84,34.5,0,1,2,2.49,3.25,2.77,7.27,1.61,14.57,3.14,21.94,4.21,1.89.27,5.36.3,5-3.29-.25-2.75,2.43-7.44-3.9-7.14-4.16.2-8.34.13-12.51,0-3.5-.1-6.48-1.14-6.78-5.31C327.64,63.91,327.41,58.67,327.11,52.53Z"/></g></g></g></svg>