<svg xmlns="http://www.w3.org/2000/svg" viewBox="0 0 512.87 366.52"><defs><style>.cls-1{fill:#d8d7d6;}.cls-2{fill:#fff2d9;}.cls-3{fill:#efe1ca;}.cls-4{fill:#d6c0a5;}.cls-5{fill:#c4b29d;}.cls-6{fill:#878787;}.cls-7{fill:#b5b5b5;}.cls-8{fill:#e0c9a4;}.cls-9{fill:#e5c48f;}.cls-10{fill:#5ea6b7;}.cls-11{fill:#61a4af;}.cls-12{fill:#7ab7c1;}</style></defs><title>Park</title><g id="Layer_2" data-name="Layer 2"><g id="Layer_1-2" data-name="Layer 1"><g id="Park"><path class="cls-1" d="M107,346.37S402.61,419,505,288.46C536.7,248,464,156.18,441.67,139.88a262.49,262.49,0,0,0-85.61-41c-39-10.28-74.14-10.17-90.42-10.17-24.44,0-71.2-5.41-140.28,10.59-40.07,9.28-78.27,29.38-102.81,63C-31.51,236.27,17.55,320.46,107,346.37Z"/><path class="cls-2" d="M225.23,154.54c.83-.9.77-2.3.65-3.52q-1.94-19.62-3.65-39.25c-.68-7.76-1.28-15.94,2-23C228,80.47,236.52,75.16,245.36,73s18.07-1.64,27.15-1.09c7.86.47,16.23,1.11,22.52,5.84,7.33,5.51,10,15.11,12.24,24L304,70.55c1.73-1.72,4,1.57,4.2,4q3.14,33.58,6.28,67.18c.74,7.92,10.64,10.82,18.53,11.78A994.07,994.07,0,0,0,329.75,53a4.26,4.26,0,0,0-.5-2c-.67-1-2.05-1.29-3.27-1.45l-53.87-7-7.08,12a8.87,8.87,0,0,1,4.75-11.2,462.12,462.12,0,0,0-76.15.52,627.8,627.8,0,0,1,12.15,111.56,33.8,33.8,0,0,0,17.38.14,4.2,4.2,0,0,0,2.07-1"/><path class="cls-3" d="M198.24,12.93A973,973,0,0,0,321.48,24.07c4.51.12,8.12-3.51,11.14-6.87L341.73,7Q278.19,2.32,214.41,3.41c-3.5.06-7.1.16-10.3,1.56s-5.94,4.47-5.87,8"/><path class="cls-4" d="M349,143.37c5.67-3,6-10.83,5.52-17.21Q351.27,82,348.05,37.78c-8.62.83-15.71,9.42-14.9,18a788.43,788.43,0,0,1,3.25,94.11L349,143.37"/><path class="cls-5" d="M331,40.64a15.44,15.44,0,0,0-1.54,3,2.55,2.55,0,0,0,1,3,37.44,37.44,0,0,1,13.19-10.49c1.26-.6,2.65-1.21,3.32-2.44a6.19,6.19,0,0,0,.49-3.09c-.1-6.29-.32-13-3.9-18.17a2.09,2.09,0,0,0-1.13-.95c-.73-.16-1.38.44-1.88,1l-9.92,10.65c-1,1.11-2.12,2.38-2.08,3.89s1.2,2.74,2,4a9.79,9.79,0,0,1,.39,9.59"/><path class="cls-6" d="M408.67,200.6c-2.55.94-6.24,1.41-7.22-1.13-3.2-8.28-10.35-14.56-18.29-18.56s-16.71-6-25.38-7.92c-1.26,1.2-.53,3.49.93,4.44s3.3,1,5,1.06a43.17,43.17,0,0,1,35.83,24.18,4.77,4.77,0,0,0,9.09-2.07Z"/><path class="cls-7" d="M105.65,136c6.23,3.57,13.95.62,20.84-1.4a73.44,73.44,0,0,1,23.86-2.88c1.22.06,1.7-1.8.93-2.75a4.68,4.68,0,0,0-3.34-1.25A82.82,82.82,0,0,0,106.2,135C105.71,134.73,105.15,135.7,105.65,136Z"/><path class="cls-2" d="M318.56,26.57A935.18,935.18,0,0,1,197.14,15.93a21,21,0,0,1-2.7,18.46l30.23.66c31.91.71,64,1.44,95.29,7.88a7.69,7.69,0,0,0,8.62-5.22,7.69,7.69,0,0,0-4.57-9c.86.4.41,1.87-.49,2.16a4.46,4.46,0,0,1-2.77-.45A13.35,13.35,0,0,0,306,35a7.35,7.35,0,0,1-1.35-6.27,29.39,29.39,0,0,0,13.93-2.13"/><path class="cls-2" d="M219.91,89q-1.28-9.57-2.54-19.14c-.26-1.95-.45-4.16.82-5.67,1.14-1.35,3.06-1.66,4.81-1.88a485.74,485.74,0,0,1,80.88-3c-.48,2.45-3.74,2.92-6.24,2.83a496.67,496.67,0,0,0-74.06,3.08c-1.51.18-3.51,1-3.15,2.48a81.18,81.18,0,0,1,2.18,16.56C222.67,86.3,222,89.08,219.91,89Z"/><path class="cls-8" d="M241,76.68A20.07,20.07,0,0,0,226.83,91a38,38,0,0,0-.64,10.38q.8,24.64,3.64,49.18c2.69-.2,4.73-2.74,5.28-5.39s-.05-5.37-.6-8a255.22,255.22,0,0,1-4.55-32c-.67-8.53-.28-18.51,6.58-23.63,1.83-1.37,4.25-2.61,4.5-4.89"/><path class="cls-9" d="M191.4,38l1,1.94a790.48,790.48,0,0,1,94.5,2c-2-2.63-5.79-3-9.12-3.09q-36.36-1.25-72.75-2c-4.59-.1-9.28-.18-13.67,1.16"/><path class="cls-9" d="M294.09,41.81a128.9,128.9,0,0,0,21.58,4.91,16.37,16.37,0,0,0,7-.11c-1-1.32-2.85-1.69-4.5-2C310.17,43.27,302.17,41.9,294.09,41.81Z"/><path class="cls-10" d="M172.23,205.07a223.89,223.89,0,0,0-34,10.92c-5.21,2.14-10.84,5-12.78,10.29-1.76,4.83.28,10.44,3.92,14.08s8.6,5.62,13.55,7c25.11,7.07,51.91,1.1,76.92-6.33,7.32-2.17,15.88-5.91,16.83-13.49.57-4.51-2.05-9-5.65-11.72s-8.07-4.12-12.48-5.22c-10-2.49-14.59-3.62-24.92-3.87l-2.27-.14s-3.16-37.37-5-39.29c-3.28-3.34-8,3.9-8,3.9l1.71,34.71Z"/><path class="cls-11" d="M180,220.7s-26.15,1.83-15.66,8.74,22.43,7.23,26.46,4.87,22.45-9.5,3.95-13.61C185.49,218.64,180,220.7,180,220.7Z"/><path class="cls-12" d="M191.25,205.36s-2.76-32.71-4.92-38.05c-4.86-2.1-8.23,2.05-6.58,12.64s3.54,50.86,3.54,50.86,8-2.18,8-8.22S192.14,215,191.25,205.36Z"/><path d="M361.47,100.55c27.63,4.2,53,17.85,75.9,33.88,7.65,5.35,15.14,11,21.62,17.77a134.82,134.82,0,0,1,16.08,21.1,272.27,272.27,0,0,1,33.51,75.82c3.58,13.28,5.59,29.11-3.6,39.34a85.42,85.42,0,0,0-4.16-56.66c-10.51-23.79-19.49-48.75-35.66-69.1C439.74,130.71,400,114.16,361.47,100.55Z"/><path d="M22.06,158.29C38.67,135.67,63.38,120,89.59,110s54.11-14.78,81.85-19c5.15-.79,10.67-1.5,15.36.77-30.38,4.24-61,8.55-89.9,18.78s-56.35,26.95-74.35,51.78C20.84,162.56,21,159.69,22.06,158.29Z"/><path d="M143,247.37c25.11,7.06,51.91,1.09,76.92-6.33,7.32-2.18,15.88-5.92,16.83-13.5.57-4.5-2.05-9-5.65-11.72s-8.07-4.12-12.47-5.22a142.83,142.83,0,0,0-30.66-4.13c10.08-4.16,21.56-1.39,32,1.78,4.6,1.4,9.27,2.91,13.16,5.73s6.94,7.23,6.95,12c0,9.4-10.4,14.88-19.33,17.78-24.25,7.86-50.3,12.7-75.21,7.31-6.62-1.43-13.33-3.72-18.2-8.42s-7.42-12.34-4.58-18.48c2.7-5.82,9.15-8.74,15.08-11.18,11-4.53,22.6-9.15,34.46-8a225.37,225.37,0,0,0-34,10.92c-5.21,2.14-10.84,5-12.77,10.29-1.77,4.84.27,10.45,3.91,14.08S138,246,143,247.37Z"/><path d="M98.72,135.47a87.29,87.29,0,0,1,45.68-11,20.47,20.47,0,0,1,6.61,1.06,12,12,0,0,1,7.51,10.53,2,2,0,0,1-.23,1.19c-.85,1.3-2.81-.31-3.13-1.83s-.79-3.61-2.34-3.57c-.82.58-.74,1.8-.42,2.74a5.13,5.13,0,0,1,.58,2.88c-.24,1-1.77,1.51-2.2.61-1.76-3.74-7-3.79-11.08-3.13a169.85,169.85,0,0,0-25.15,6.13,3.1,3.1,0,0,0-1.77,1.08c-.82,1.28.12,3.67-1.34,4.07a3.57,3.57,0,0,1-2.22-3.33c.06-1.92-1.65-3.54-3.51-4.05A13.22,13.22,0,0,0,100,139a7,7,0,0,1-.3,7.6,15.24,15.24,0,0,1-3-5.56c-.45-2.08.19-4.55,2-5.59m6.85.5c6.22,3.57,13.94.62,20.83-1.4a73.44,73.44,0,0,1,23.86-2.88c1.22.06,1.71-1.8.93-2.75a4.64,4.64,0,0,0-3.34-1.25A82.78,82.78,0,0,0,106.12,135C105.62,134.72,105.06,135.69,105.57,136Z"/><path d="M410.15,199.66c1.64,1.12,1.5,3.76.2,5.26s-3.33,2.1-5.28,2.49c-3.18.63-7.59,0-8-3.18-.87-6.37-6.3-11-11.43-14.88s-11-7.94-17.54-8.5c-2.45-.21-4.93.07-7.37-.26s-5-1.46-6.1-3.64-.09-5.47,2.33-5.92a6.28,6.28,0,0,1,2.54.22c8.64,1.91,17.38,3.88,25.31,7.82s15.1,10.11,18.47,18.3c1,2.35,4.81.85,6.9,2.29m-1.48.92c-2.55.94-6.24,1.42-7.22-1.12-3.2-8.29-10.34-14.57-18.28-18.56s-16.71-6-25.38-7.92c-1.26,1.2-.54,3.49.92,4.43s3.31,1,5,1.07a43.16,43.16,0,0,1,35.83,24.17,4.77,4.77,0,0,0,9.09-2.07Z"/><path d="M71.41,155.76c.87-2,3.79-1.23,5.67-.19l73.59,40.83c-.72,2-3.71,1.33-5.57.3Z"/><path d="M234.51,111.51q2.66,17,5.29,33.89a33.77,33.77,0,0,1-33.29,14.24c-2.18-.39-4.79-1.56-4.81-3.79a550.11,550.11,0,0,0-13-114.73c-1.46-6.61,7.26-12.47,5.44-19C191.35,12,200,.35,210.57.19q63.33-1,126.59,3.26c4.94.33,9.07,4.23,11.12,8.73s2.43,9.57,2.77,14.5l7.83,112.75-26,17.21c-4.93-.71-10-1.45-14.37-3.78s-8.1-6.61-8.34-11.58a182.78,182.78,0,0,0-8.26-46.08c-1.56-4.92-3.44-10-7.15-13.55-5.7-5.53-14.32-6.42-22.24-7-12.84-1-28.19-.79-35.45,9.85-5.23,7.66-4,17.85-2.58,27m-9.28,43c.84-.9.77-2.29.65-3.52q-1.92-19.6-3.65-39.24c-.68-7.77-1.27-16,2-23C228,80.42,236.52,75.11,245.36,73s18.07-1.64,27.15-1.1c7.86.47,16.23,1.11,22.53,5.85,7.32,5.5,10,15.1,12.23,24L304,70.5c1.74-1.72,4,1.57,4.2,4q3.14,33.6,6.28,67.18c.74,7.92,10.64,10.82,18.53,11.78A991.25,991.25,0,0,0,329.75,53a4.15,4.15,0,0,0-.5-2c-.67-1-2.05-1.29-3.27-1.45l-53.87-7-7.08,12a8.88,8.88,0,0,1,4.75-11.2,462.12,462.12,0,0,0-76.15.52,627.8,627.8,0,0,1,12.15,111.56,33.8,33.8,0,0,0,17.38.14,4.12,4.12,0,0,0,2.07-1m-27-141.56A975,975,0,0,0,321.48,24.07c4.51.12,8.12-3.52,11.13-6.88s6.08-6.77,9.11-10.16Q278.2,2.32,214.4,3.41c-3.49.06-7.09.15-10.29,1.56s-5.94,4.46-5.88,8M318.47,26.55A935.18,935.18,0,0,1,197.06,15.91a21,21,0,0,1-2.71,18.46l30.24.67c31.91.7,64,1.43,95.29,7.87a7.67,7.67,0,0,0,8.61-5.22,7.67,7.67,0,0,0-4.57-9c.87.4.42,1.87-.48,2.16a4.46,4.46,0,0,1-2.77-.45A13.36,13.36,0,0,0,305.89,35a7.34,7.34,0,0,1-1.34-6.27,29.21,29.21,0,0,0,13.92-2.13M349,143.1c5.68-3,6-10.83,5.52-17.21q-3.21-44.19-6.44-88.39c-8.62.84-15.7,9.43-14.89,18a788.43,788.43,0,0,1,3.24,94.11L349,143.1M331,40.37a15.67,15.67,0,0,0-1.53,3,2.55,2.55,0,0,0,1,3,37.5,37.5,0,0,1,13.18-10.49c1.27-.6,2.66-1.21,3.33-2.44a6.22,6.22,0,0,0,.48-3.09c-.09-6.29-.31-13-3.89-18.17a2,2,0,0,0-1.14-.95c-.72-.16-1.37.43-1.87,1l-9.92,10.65c-1,1.11-2.12,2.38-2.09,3.89s1.21,2.74,2,4a9.76,9.76,0,0,1,.38,9.59M241,76.66A20.05,20.05,0,0,0,226.81,91a38.28,38.28,0,0,0-.64,10.37q.79,24.66,3.64,49.19c2.69-.2,4.73-2.75,5.28-5.39s0-5.38-.59-8a255,255,0,0,1-4.56-32c-.67-8.52-.27-18.51,6.58-23.62,1.84-1.37,4.26-2.62,4.51-4.89M191.4,38l1,1.94a790.48,790.48,0,0,1,94.5,2c-2-2.63-5.8-3-9.12-3.08q-36.37-1.26-72.76-2c-4.59-.1-9.27-.18-13.66,1.16M294.09,41.8a128.45,128.45,0,0,0,21.58,4.91,16.37,16.37,0,0,0,7-.11c-1-1.31-2.85-1.69-4.51-2C310.17,43.26,302.17,41.89,294.09,41.8Z"/><path d="M50,173.05l27.23,8.77c5.69,1.83,11.37,3.67,16.9,5.92s10.84,4.9,16.49,6.7c8.51,2.72,17.68,3.49,25.67,7.47-.91,2.14-4,1.82-6.23,1.12-22.27-7-44.3-14.77-66.33-22.52-5-1.74-10.13-3.62-13.73-7.46Z"/><path d="M302.12,305.41a3.5,3.5,0,0,1-2.34,1.8l-70.93-61.8c3.78-.49,7.13,2.24,10,4.79Q270,278.34,302.12,305.41Z"/><path d="M37.62,267.28c0-2.74,3-4.36,5.55-5.34q37.33-14.4,75.69-26c-.86,3.2-4.51,4.61-7.67,5.57Q77.05,251.93,43.81,265C41.76,265.78,39.71,266.59,37.62,267.28Z"/><path d="M33.1,248.94a3.74,3.74,0,0,1-2.58-.12c-.76-.45-1-1.76-.22-2.16l77.82-14.81c1.95-.37,4-.74,5.89-.1-1.05,1.89-3.45,2.48-5.57,2.89Z"/><path d="M181.88,233.1c-.73-.15-.94-1.08-1-1.82q-2-25.54-4-51.08a24.71,24.71,0,0,1,.31-8.54,8,8,0,0,1,3.47-4.94,4.78,4.78,0,0,1,5.71.59c-3.46,1.18-7.65,3.43-7.22,7.06q3.34,28.11,4.18,56.44C183.32,231.85,182.9,233.3,181.88,233.1Z"/><path d="M217.31,255.53c-.1-.86,1.36-.46,1.87.24l11.62,15.84q12.6,17.14,25.18,34.3c.49.67,1,1.61.47,2.26-.72.92-2.14-.05-2.85-1q-6.89-9-13.76-18.08C231.66,278.37,223.44,267.56,217.31,255.53Z"/><path d="M410.1,196c-.75.06-1.25-.71-1.57-1.38-2.16-4.5-3.55-9.49-6.8-13.28-4.06-4.72-10.33-6.81-16.27-8.69-6.52-2.06-13.18-4.14-20-4.06-1.69,0-3.38.17-5.06.32,3.18-4,9.45-3.05,14.4-1.67l11.27,3.13c4.46,1.24,9,2.52,12.84,5.12,6,4.06,9.48,10.84,12,17.62C411.24,194.22,411.25,195.94,410.1,196Z"/><path d="M218.93,194.87a1.64,1.64,0,0,1-1.22-1.77l20.2-34.63c1.07-1.84,2.33-3.83,4.37-4.42.72.26.45,1.33.06,2Q230.63,175.45,218.93,194.87Z"/><path d="M252.19,217.6a2.21,2.21,0,0,1-1.25.24,1.09,1.09,0,0,1-.75-.59,71,71,0,0,1,24.09-9.91C267.31,211.52,259.73,214.57,252.19,217.6Z"/><path d="M187.56,180.2c1.22-1,2.53,1.17,2.64,2.75q.59,8.09,1.16,16.17c-1.64.71-2.74-1.74-2.85-3.53Q188,187.9,187.56,180.2Z"/><path d="M175.46,266.87l-.7,13c-.07,1.44-.87,3.43-2.24,3l.11-12.91a4.58,4.58,0,0,1,.53-2.59,1.6,1.6,0,0,1,2.3-.49Z"/><path d="M298.79,98.85a17.54,17.54,0,0,1-5.47-.66,128.27,128.27,0,0,0-56.57.39c-1,.11-1.48-1.36-.91-2.17a3.85,3.85,0,0,1,2.61-1.24A145.88,145.88,0,0,1,290,95.09C293.23,95.66,296.61,96.46,298.79,98.85Z"/><path d="M262.55,227.51l-6,.89a16.63,16.63,0,0,1,10.92-4.18,7.94,7.94,0,0,1-4.93,3.11Z"/><path d="M184.53,275.67a1.91,1.91,0,0,1-1.3-2.48,2.65,2.65,0,0,1,2.49-1.63,6.75,6.75,0,0,1-1.22,3.9Z"/><path d="M246.27,178.37l3.64-4.05a4.27,4.27,0,0,1-3.48,5.18Z"/><path d="M54.67,234.58a1.47,1.47,0,0,1,.75-2,1.17,1.17,0,0,1-.71,2Z"/><path d="M28.29,255.21c.15-1.47,2.44-.91,3.57,0a1.94,1.94,0,0,1-3.32-.11Z"/><path d="M52.66,247.9c.57-.45,1.13.77.65,1.32a1.58,1.58,0,0,1-1.36-.49c-.28-.42.28-1.14.65-.8Z"/><path d="M313.62,64.67c1.2-2.23,3.9-3.24,6.43-3.45a8.15,8.15,0,0,1,5.1,1,4.19,4.19,0,0,1,1.93,4.53c-1.12,3.64-4.71,6.65-8.49,6.25s-6.78-5-5-8.31m9.59.54A3.46,3.46,0,0,0,322,63.94,3.71,3.71,0,0,0,317.1,65a3.58,3.58,0,1,0,6.11.18Z"/><path d="M199.41,62.69l1.51-.35a6,6,0,1,0,9-7.17c2-1.56,5.29.16,5.94,2.63s-.6,5.09-2.29,7c-2.08,2.34-5.07,4.09-8.19,3.88S199.28,65.81,199.41,62.69Z"/><path d="M219.74,89.75q-1.28-9.57-2.54-19.14c-.25-2-.44-4.17.82-5.67,1.14-1.35,3.06-1.67,4.82-1.88A484.56,484.56,0,0,1,303.71,60c-.47,2.46-3.74,2.92-6.23,2.84a493.89,493.89,0,0,0-74.06,3.08c-1.52.17-3.51,1-3.16,2.48A81.71,81.71,0,0,1,222.45,85C222.51,87,221.8,89.81,219.74,89.75Z"/><path d="M321.23,53.61c-.27,2.41-3.49,3.13-5.88,2.72s-5.1-1.25-7.07.17a5.05,5.05,0,0,1-6.69-.92,2.55,2.55,0,0,1-.39-3c.62-.87,2.39-.58,2.36.49,0,1.41,2,1.94,3.27,1.39s2.35-1.66,3.74-1.92c2.55-.47,5.19,2.14,7.53,1a10.38,10.38,0,0,1,1.8-1C320.57,52.4,321.47,53,321.23,53.61Z"/><path d="M286.84,52.66c-2.23.36-4.42,1.35-6.67,1.08s-4.47-2.66-3.41-4.66a1.23,1.23,0,0,1,.31-.4c1.23-1,2.1,1.84,3.59,2.41s2.7-1.45,4.26-1.82c1.12-.27,2.25.35,3.39.55s2.66-.49,2.46-1.62c-.31-1.74,2.86-2.2,3.55-.57s-.65,3.48-2.28,4.16S288.58,52.38,286.84,52.66Z"/><path d="M219,46.63a2.16,2.16,0,0,1,1.77-1.1,4.57,4.57,0,0,0,5,3c3.64-.7,6.9,2.13,9.52,4.75-.08,1.87-3,1.67-4.45.43s-3-3.06-4.71-2.42A5.62,5.62,0,0,1,219,46.63Z"/><path d="M205,55.1a46.64,46.64,0,0,1-4.93,6.1A4.16,4.16,0,0,1,205,55.1Z"/><path d="M258,47.69c2.63-.17,4.74,3.2,3.43,5.49l-7-5.53c-.6-.47-1.27-1-1.29-1.82,0-1.6,2.28-1.86,3.84-1.53l.77,3.11Z"/><path d="M202.27,21.82a6.59,6.59,0,0,1-1.19,4.26c-1-1.33-2-2.79-1.94-4.44s1.68-3.33,3.21-2.72a29.89,29.89,0,0,0,15.46,1.77,15.81,15.81,0,0,1,4.43-.36,3.94,3.94,0,0,1,3.38,2.52c.41,1.43-.82,3.22-2.29,2.94a2.76,2.76,0,0,1-1.1-2.84A38.77,38.77,0,0,1,202.27,21.82Z"/></g></g></g></svg>