<svg xmlns="http://www.w3.org/2000/svg" viewBox="0 0 124.26 156.71"><defs><style>.cls-1{fill:#b5b47f;}.cls-2{fill:#998675;}.cls-3{fill:#a67c52;}.cls-4{fill:#8c6239;}.cls-5{fill:#754c24;}.cls-6{fill:#c69c6d;}.cls-7{fill:#4e9eb7;}.cls-8{fill:#afafaf;}.cls-9{fill:#fffdb6;}.cls-10{fill:#3d7ca3;}.cls-11{fill:#498ead;}.cls-12{fill:#5c7f99;}.cls-13{fill:#c1272d;}</style></defs><title>Shape 8</title><g id="Layer_2" data-name="Layer 2"><g id="Layer_1-2" data-name="Layer 1"><g id="Shape_8" data-name="Shape 8"><polygon class="cls-1" points="35.41 27.52 36.34 34.79 48.21 32.43 52.97 30.01 52.97 21.71 35.41 27.52"/><path class="cls-2" d="M27,126.32c0-4-3-5.43-5.86-7.13a54.55,54.55,0,0,1-6.45-4.53c-1.36-1.09-2.36-2.61-3.62-3.84A5.84,5.84,0,0,0,9.33,110a14.4,14.4,0,0,0,0,1.61c.21,2.39.38,4.79.71,7.18.21,1.57.92,1.78,2.46,1.29a43.15,43.15,0,0,1,5.06-1.16c.22,0,.68.38.77.67.62,2,1.17,4,1.78,6,.06.22.38.37.58.55.15-.3.46-.62.41-.88-.15-.78-.51-1.53-.63-2.32-.06-.38.24-.81.38-1.22.29.22.58.43.86.66a10.19,10.19,0,0,1,2,1.72,25.83,25.83,0,0,1,1.9,3.37s-.36.37-.51.35"/><path class="cls-2" d="M5.82,96c.41-1.23-2.31.36-1.08-.32,2.34-1.29,4.42-3,6.68-4.46s4.56-2.68,6.83-4a12.38,12.38,0,0,0,2-1.41A4.85,4.85,0,0,0,21,84.53c-.55-.08-1.17-.35-1.64-.19A7.18,7.18,0,0,0,17,85.68c-2,1.72-3.89.75-5.83.1a12.6,12.6,0,0,1-2.53-1A4.13,4.13,0,0,1,7,83.18L5.17,85.9l1.91,4.56-1.64,3Z"/><path class="cls-2" d="M15.67,79.43c-2.16-.1-3,2-4.53,2.86-.11.06.06,1,.24,1.09,1.89.55,3.59,1.75,5.79.15,1.66-1.21,4-1.49,6-2.2.53-.18,1-.45,1.53-.68-.63-.35-1.23-.94-1.89-1a57.55,57.55,0,0,0-7.14-.22"/><path class="cls-3" d="M7,103.41C6,102.6,5.13,101.75,4.17,101a3,3,0,0,0-1.07-.29c0,.43-.14,1,.09,1.27a30.93,30.93,0,0,0,2.75,2.48,3.78,3.78,0,0,0,.95.45A4.3,4.3,0,0,0,7,103.41"/><path class="cls-4" d="M11,137.24c0,.37-.59.74-.91,1.11-.26-.37-.67-.7-.75-1.1A19.74,19.74,0,0,1,9,134.1c-.15-4.47-.15-8.95-.4-13.41-.16-2.82-.69-5.61-1-8.43-.06-.63.38-1.32.28-1.93a4.91,4.91,0,0,0-.9-2.54,39,39,0,0,0-4.1-3.47A3.23,3.23,0,0,0,1.8,104c.19.28.38.56.55.86s.64.84.66,1.28c.17,3.34.21,6.7.4,10,.08,1.42.59,2.82.63,4.24,0,1.68-.27,3.37-.29,5.06,0,2.44-.4,4.85-.58,7.25-.12,1.68,1,3.47,1.67,5.15.47,1.14,1.27,2.14,1.78,3.26.19.41,0,1,0,1.52"/><path class="cls-4" d="M31.11,156.34c-.24-.06-.41-.46-.61-.71.28-.22.55-.57.87-.63a14.23,14.23,0,0,0,3.12-.44c.77-.32,1.85-1.26,1.82-1.88q-.27-6.84-1-13.64c-.45-4.35-1.21-8.67-1.67-13-.21-2,.67-3,2.58-3.72,3.64-1.41,7.22-3,10.91-4.26,4-1.39,8.12-2.5,12.18-3.72A25.16,25.16,0,0,0,63,113.16c.54-.26.79-1.13,1.18-1.72a5.14,5.14,0,0,0-1.83-.21c-5.41,1.45-10.84,2.87-16.19,4.52s-10.37,3.49-15.56,5.19a2.2,2.2,0,0,1-1.74-.13c-3.73-2.93-7.4-5.94-11.08-8.93-2.6-2.12-5.18-4.27-7.8-6.37-.09-.07-.68.25-.67.29a3.7,3.7,0,0,0,.61,1.64c2.92,2.79,5.8,5.64,8.92,8.19a56,56,0,0,0,6.35,3.91c1.84,1.14,3.69,2.31,4.19,4.65a13.13,13.13,0,0,1,.06,1.78c.1,1.88.28,3.77.33,5.65.05,2.51,0,5,0,7.53v11.7c0,.34.13.78,0,1a16.4,16.4,0,0,1-1.42,1.72"/><path class="cls-4" d="M108.77,96.46c1.19-.31,1.09-1.2,1-2.13a14.19,14.19,0,0,1,0-2.16,6.59,6.59,0,0,1,.23-1,6.27,6.27,0,0,0-1.06.24c-2.46,1.05-4.92,2.09-7.36,3.19-3,1.36-6,2.77-9,4.16-2.52,1.16-5,2.34-7.59,3.45-3.53,1.54-7.06,3.09-10.64,4.5-2.09.83-4.3,1.34-6.39,2.17-.51.2-1.16,1.21-1,1.61.25.74,1,1,2,.55,1.92-1,3.89-1.78,5.89-2.55,3.74-1.44,7.5-2.85,11.29-4.17,4.8-1.68,9.65-3.25,14.47-4.88,2.69-.91,5.37-1.85,8.22-3"/><path class="cls-3" d="M115,89.84c-1.43-1.1-2.69,0-3.87.47s-.37,1.51,0,2.2.88,2,1.57,2.19c1.83.56,3.52-1.55,3-3.5a5.26,5.26,0,0,0-.65-1.36"/><path class="cls-4" d="M117.84,127.51c-.16-.51-.34-1-.45-1.54,0-.1.18-.28.32-.37,2.46-1.67,1.63-4,1.4-6.33a14.44,14.44,0,0,1,0-2.94,8.18,8.18,0,0,0-1.8-6.39A1.73,1.73,0,0,1,117,109c-.25-3.63-.4-7.26-.76-10.88A2.86,2.86,0,0,0,114.83,96c-1.43-.33-2.39.76-2.32,2.26a12.89,12.89,0,0,0,.33,1.94c.69,3.3,1.36,6.61,2.11,9.9.23,1,.85,2,1,3,.53,3.33.94,6.68,1.38,10a3.36,3.36,0,0,1-.11.82c-.19-.23-.37-.47-.58-.69"/><path class="cls-5" d="M124.26,117.54c0,.33-.43.65-.67,1-.23-.29-.6-.54-.65-.86-.85-5.1-1.7-10.2-2.44-15.32-.66-4.55-1.16-9.13-1.78-13.69,0-.37-.4-.7-.62-1.06-.25.32-.71.64-.71,1,0,1.21.18,2.42.32,3.62.08.65.31,1.3.33,1.94a82.43,82.43,0,0,0,2.36,18,14.56,14.56,0,0,1,.08,3.5c0,2,0,4.1,0,6.14,0,.14.46.32.72.39.66.16,1.34.27,2,.4"/><path class="cls-4" d="M67.33,133.18c.21-.49.42-1,.71-1.54,2.12-.26,4.15-.48,6.18-.6,1.61-.09,2.11-.73,1.92-2.33q-.77-6.47-1.39-13a21.9,21.9,0,0,1,0-3.53,1.25,1.25,0,0,1,.68-.93l-.07-.79-8.61,3.11-1.62,15.93Z"/><path class="cls-6" d="M53.68,78.21c.75.28,1.79.35,2.19.89,1.45,2,0,5.79-2,6-1.39.18-2.8.21-4.19.38A11.74,11.74,0,0,0,48,86c.35.6.55,1.5,1.07,1.75,2.2,1.1,4.47,2.06,6.76,3,2,.79,4.18,1.38,6.23,2.16.47.18.79.77,1.17,1.18-.67.23-1.44.81-2,.65C58.73,94,56.34,93,53.86,92.32a21.64,21.64,0,0,1-8-4.17,28.37,28.37,0,0,0-5.18-3.43,56.69,56.69,0,0,0-6.14-2.34c-3.37-1.2-6.72-2-10,.32-.89.64-2.45.66-1.62,2.45a1.59,1.59,0,0,1-.23,1.42A16.45,16.45,0,0,1,19.85,89c-4.48,2.85-9,5.62-13.5,8.47-.57.36-1.32.92-.46,1.78a48.89,48.89,0,0,0,4,4c2.52,1.93,5.2,3.63,7.81,5.44a23.1,23.1,0,0,1,2.53,1.85c2.47,2.28,4.87,4.64,7.32,6.94a3.77,3.77,0,0,0,4.44.74,27,27,0,0,1,3.25-1.37c3.67-1.08,7.37-2.05,11-3.1,3.26-.92,6.52-1.89,9.77-2.82,2.59-.75,5.34-1.15,7.73-2.3s4.78-2.6,7.52-3.28a43.16,43.16,0,0,0,5.94-2.4c4.63-2,9.26-3.91,13.87-5.93,2.74-1.21,5.42-2.56,8.15-3.81,3.7-1.69,7.41-3.36,11.14-5,1.66-.73,3.4-1.28,5.08-2a30.85,30.85,0,0,0,2.86-1.47c.16-.09.25-.32.37-.49-.21,0-.49-.18-.64-.09-1.11.68-1.25-.24-1.79-.88-1.47-1.72-2.29-4-4.56-5.07a5.39,5.39,0,0,1-1.83-1.42c-2.78-3.38-6.39-5.73-9.94-8.17-2.9-2-6.26-3.4-8.48-6.35-.28-.38-1-.46-1.42-.71-2-1.11-4.1-2.16-6.06-3.38-2.85-1.78-5.74-3.32-9.21-2.1-2.22.78-4.35,1.79-6.52,2.7s-4.42,1.91-6.66,2.79c-1.55.6-3.18,1-4.71,1.62C54.81,64,52.73,65,50.63,66L42.9,69.53c-2,.93-4.11,1.83-6.14,2.78a21.37,21.37,0,0,0-2,1.15l1.79.86s.08.11.13.12c1.79.25,3.63,1,5.39,0,2.82-1.6,5.51-3.42,8.39-4.92,3.17-1.65,6.5-3,9.74-4.55,2.52-1.19,5-2.48,7.53-3.64a4,4,0,0,1,4.23.06,12.77,12.77,0,0,0,3.63,2.12,4.92,4.92,0,0,1,3.18,2.68c.4.7.6,1,1.48.7,1.45-.54,3-.9,4.47-1.38,3-1,4.57.11,4.52,3.2,0,1.46-.22,2.92-.33,4.37s-.3,2.8-.34,4.2c0,2.45.13,4.92-.09,7.35a3.38,3.38,0,0,1-1.77,2.17A52.18,52.18,0,0,1,80.87,89c-2.8.94-5.68,1.62-8.22,3.24a47.15,47.15,0,0,1-4.54,2.45A1.23,1.23,0,0,1,67,94.55a1.32,1.32,0,0,1,0-1.13,2.86,2.86,0,0,1,1-1.32c2.52-1.43,5-2.94,7.67-4.12,2.34-1,4.88-1.63,7.31-2.49a4.13,4.13,0,0,0,2.89-4.17c.16-3.33-.54-6.69.63-10,.4-1.11,0-2.13-1.55-1.8a33.13,33.13,0,0,0-5.15,1.39c-2.23.9-4.34,2.09-6.53,3.1s-4.74,2-7,3.18a3.34,3.34,0,0,0-1.53,2.06c-.42,2-.38,4-.81,5.94A18,18,0,0,1,62.26,89a1.06,1.06,0,0,1-.8.36,1.75,1.75,0,0,1-.52-1.06c.27-2.94.55-5.88.93-8.81a7.63,7.63,0,0,1,.93-3.08c1.6-2.52,4.45-3.26,6.94-4.48,2-1,4.16-1.74,6.13-2.81,1.26-.68,1.2-1.84.09-2.37a22.42,22.42,0,0,0-3.34-1.56c-1.5-.45-2.8-1.84-4.59-1s-3.32,1.49-5,2.22c-3.73,1.62-7.5,3.15-11.18,4.87a53.53,53.53,0,0,0-6.06,3.38c-1.25.79-1.14,1.48.43,1.82,2.38.51,4.74,1.14,7.45,1.72"/><path class="cls-7" d="M36.69,81a12.28,12.28,0,0,0,1.8.68c1.87.39,3.77.64,5.64,1.07a22.65,22.65,0,0,0,8.27.6c.68-.09,1.23-1.15,1.84-1.76-.55-.43-1-1.11-1.66-1.25q-7-1.61-14-3a63.72,63.72,0,0,0-8.63-1.45c-2.94-.18-5.75-.58-8.19-2.21-1.26-.84-2.72-2-3.15-3.31-.52-1.59-.09-3.51,0-5.28.15-2.53.48-5.05.47-7.58a2.57,2.57,0,0,0-1.58-1.77c-1-.33-1.6.54-1.81,1.55-.33,1.6-.71,3.18-1,4.79a37.32,37.32,0,0,0-1,6.15,14,14,0,0,0,1.05,5.26,5.72,5.72,0,0,0,2.61,2.6,15.28,15.28,0,0,0,3.93,1c3,.64,6.1,1.19,9.11,1.92A58.75,58.75,0,0,1,36.69,81"/><path class="cls-8" d="M67,94.56c.57.15-4.44-.28-3.77-.52a4.44,4.44,0,0,0-1.45-1c-2-.78-4.18-1.37-6.23-2.17C53.28,90,51,89.07,48.81,88c-.52-.25-.45-1.37-.79-2,.56-.16.74-.62,1.32-.69,1.39-.16,2.61-.37,4-.54,2-.26,3.75-3.47,2.29-5.44-.4-.54-1.44-.61-2.19-.89h.42c-2.71-.58-5.07-1.21-7.45-1.72-1.57-.34-2.09-1.17-.58-2a55.4,55.4,0,0,1,6.06-3.39c3.69-1.71,7.14-3.11,10.87-4.73,1.67-.73,3.8-1.87,5.46-2.63s2.94.86,4.44,1.3A24.62,24.62,0,0,1,76,66.79a1.4,1.4,0,0,1,0,2.6"/><path class="cls-8" d="M73.27,74c2.19-1,4.3-2.2,6.54-3.09A33.16,33.16,0,0,1,85,69.54c1.5-.33,2.09.92,1.69,2-1.17,3.29-.47,6.65-.63,10a4.14,4.14,0,0,1-2.89,4.17c-2.43.86-5,1.45-7.31,2.49a84.46,84.46,0,0,0-7.67,4.12,2.86,2.86,0,0,0-1,1.32"/><path class="cls-9" d="M74.74,82.57l0-1.43c-.48.15-1.17.16-1.38.49a5.77,5.77,0,0,0-.45,1.86A19.65,19.65,0,0,0,74.74,82.57Z"/><path class="cls-10" d="M21.85,68.82c1,0,1.76-.15,1.42,1.43s1.2,2.44,2.44,2.69c2.85.56,5.58,1,8.31-1.22,2.08-1.71,5-2.41,7.5-3.59,2.19-1,4.34-2.12,6.53-3.11,3.27-1.48,6-.15,5.69-4.11"/><path class="cls-11" d="M24.19,13.94c-1.69-1.49-3.91-1.73-5.94-2.38-.27-.08-1.14.64-1.12,1,.06,1.65.38,3.3.51,5,.19,2.58.35,5.18.44,7.77.07,2.39,0,4.78.05,7.17,0,.22.3.48.52.64,1.9,1.39,3.76,2.87,5.75,4.12,1.33.84,2.25.32,2.37-1.2a21.08,21.08,0,0,0,0-3.81c-.42-4.21-.87-8.41-1.39-12.6a44.15,44.15,0,0,0-1.2-5.63"/><path class="cls-12" d="M24.56,43.09a42.22,42.22,0,0,1-4.37.39c-.17,0-.32.2-.48.3a2.13,2.13,0,0,0,.42.38c1.24.64,2.51,1.24,3.74,1.92a7.42,7.42,0,0,1,1.62,1.29,1.53,1.53,0,0,0,2.14.31,4.64,4.64,0,0,1,2.09-.37c2.77-.09,5.49-.22,8.07-1.51,1-.52,2.39-.34,3.57-.61,3.22-.72,6.43-1.51,9.65-2.27a3.64,3.64,0,0,0,1-.16c.71-.41,1.51-.64.54-1.83-1.64-2-3.54-1.82-5.61-1.2-2.93.87-5.9,1.66-8.76,2.75-1.39.54-2.51,1.73-3.83,2.48a5.21,5.21,0,0,1-1.89.29c0-.56-.09-1.24.19-1.64s.94-.26,1.42-.41a8,8,0,0,0,1-.41c-.23-.18-.48-.35-.7-.55a3.2,3.2,0,0,1-.6-.62c0-.08.14-.44.21-.44"/><path class="cls-11" d="M32.9,49.05c-.9.15-1.77.5-2.67.67-3.38.64-6.22-.58-8.8-2.64-.95-.75-2-1.45-2.9-2.22-1.4-1.14-4.57-.15-5.75,1.73s-.64,4.19-.65,6.31c0,1.1.12,2.9.24,4s.28,2.37.43,3.55a1.69,1.69,0,0,0,.19.38c.17-.16.46-.32.47-.49a18.94,18.94,0,0,0,0-2.26A4.56,4.56,0,0,1,15.68,54c1.66-1.15,4.6.25,5.13,2.21,1,3.53,0,6.9-.65,10.3-.27,1.48.21,2.33,1.7,2.34,1,0,1.76-.15,1.42,1.43l3.17-.71c.89.12,1.13-.25,1.21-.58Z"/><path class="cls-10" d="M47.12,33.4l-.43.61a2.92,2.92,0,0,0,1,.23c2.56-.38,5.1-.86,7.67-1.17,3-.37,3.48-.84,3.43-3.92-.07-3.91-.3-7.82-.32-11.73,0-2.69.26-5.39.31-8.08,0-1.51-.81-1.94-2.2-1.37-1.88.77-3.77,1.54-5.71,2.13-5.21,1.56-10.42,3.13-15.68,4.48a35.49,35.49,0,0,1-6.53.73c-1.51.09-1.79.64-1.35,2.44s.65,3.56.9,5.36.57,3.85.68,5.79a40.88,40.88,0,0,1,0,6c-.17,2.1.59,3.12,2.71,3a12.7,12.7,0,0,0,2.11-.34c3.39-.75,6.79-1.5,10.17-2.29.36-.09.65-.47,1-.72-.44-.1-.94-.4-1.3-.27a17.23,17.23,0,0,1-7.32,1.23c-1.19-.11-2.27,0-1.08-1.62.2-.26.08-.8,0-1.19-.2-1.3-.46-2.59-.68-3.88a2.18,2.18,0,0,1,1.81-2.72c1.66-.47,3.59-.56,4.91-1.5,1.78-1.26,3.7-1.51,5.64-2,.4-.09.79-.2,1.19-.3a5.81,5.81,0,0,0-1-1.13c-.81-.58-1.78-1.07-1.4-2.28A7.74,7.74,0,0,1,54.41,14a2.5,2.5,0,0,1,2,2.58c0,1.55-1.14,2.55-1.36,3.79a32,32,0,0,0-.36,7.82c.13,1.62-.28,2.53-1.65,3.09-1.83.74-3.7,1.4-5.9,2.1"/><path class="cls-10" d="M28.05,52a7.87,7.87,0,0,1,.31,3.3A9.68,9.68,0,0,0,28,60.07a19.87,19.87,0,0,1,.07,4.16c0,1.51.87,2.17,2.3,1.79,4.33-1.14,8.67-2.25,13-3.45a45.82,45.82,0,0,0,6.4-2.15,3.59,3.59,0,0,0,1.84-2.26,27.18,27.18,0,0,0,.1-4.61c0-1.06.22-2.11.34-3.16a26.32,26.32,0,0,0,.31-3,2.57,2.57,0,0,0-.61-1.78c-.32-.27-1.17-.07-1.71.12-2.81,1-5.5,2.2-8.63,2-1.58-.08-3.19.65-4.8.92-1.22.21-2.48.22-3.71.42-.91.14-1.77.5-2.67.67,0,0-2.85-.66-3,.08a8.5,8.5,0,0,0-.09,1C27.19,52,28.05,52,28.05,52Z"/><path class="cls-13" d="M40.7,19.32c-2-1.33-5.5-.77-6.67,1.2a1.77,1.77,0,0,0,.43,1.7c1.15.71,5.34-.29,6.38-1.27C41.4,20.42,41.63,20,40.7,19.32Z"/><path class="cls-13" d="M54.24,15.85c-2.34-.43-4.27.6-6,1.93a2,2,0,0,0-.13,1.93c.75,1.21,1.88,1.28,3.31.89a3.87,3.87,0,0,0,2.82-4.75"/><path class="cls-12" d="M35,12.22c2.73-.65,5.49-1.24,8.21-2,3.32-.9,6.61-1.9,9.91-2.9a11.72,11.72,0,0,0,1.82-.88,10.42,10.42,0,0,0-1.77-1.17c-1.44-.57-3-.91-4.39-1.56-2-.92-3.89-1.7-6.12-.91a4.67,4.67,0,0,1-2.1.34c-3.3-.47-6,1.4-9,2.16-3.37.84-6.67,2-10,3.09a7.37,7.37,0,0,0-1.31.73c.37.41.67,1,1.13,1.21,1.57.8,3.22,1.45,4.8,2.23,2.91,1.43,5.7.58,8.84-.36"/><path d="M121.52,99.41c-.35,3.06.53,5.79,1.09,8.57.52,2.58.9,5.19,1.35,7.79a8.42,8.42,0,0,1,.3,1.76c0,.34-.44.66-.67,1-.23-.28-.6-.54-.66-.85-.84-5.1-1.69-10.2-2.43-15.32-.66-4.55-1.17-9.13-1.78-13.69,0-.37-.4-.71-.62-1.06-.25.32-.71.64-.71,1,0,1.21.18,2.42.32,3.62.07.65.31,1.29.32,1.94a82.44,82.44,0,0,0,2.37,18,15.09,15.09,0,0,1,.08,3.5c0,2,0,4.1,0,6.14,0,.14.46.32.73.39.66.16,1.34.27,2,.4-.4.53-.69,1.28-1.21,1.53-1.36.65-2.57,1.31-3.15,2.82-.12.31-.69.45-1,.67-.15-.52-.33-1-.45-1.54,0-.1.19-.28.32-.38,2.47-1.67,1.64-4,1.41-6.32a13.85,13.85,0,0,1,0-3,8.24,8.24,0,0,0-1.8-6.39A1.67,1.67,0,0,1,117,109c-.25-3.63-.4-7.27-.77-10.89a2.82,2.82,0,0,0-1.43-2.1c-1.43-.33-2.38.76-2.32,2.25a11.77,11.77,0,0,0,.34,1.94c.69,3.31,1.35,6.62,2.1,9.91.24,1,.86,2,1,3,.53,3.33.94,6.68,1.37,10a2.85,2.85,0,0,1-.1.81c-.2-.22-.38-.46-.58-.68-2.24-2.38-1.86-5.51-2.44-8.37-.78-3.85-1.59-7.68-2.39-11.52-.25-1.23-.41-2.48-.75-3.69-.45-1.58-1.3-1.82-2.73-.9-.27.17-.57.49-.83.46-3.2-.31-5.66,1.74-8.48,2.64q-7,2.23-14,4.77c-4.77,1.75-9.48,3.68-14.21,5.54-1.14.45-2.27,1-3.42,1.38-.75.27-.8.51-.49,1.32a9.76,9.76,0,0,1,.47,6.17,13,13,0,0,0,.1,4c.08,1.34-1.21,3.93-2.34,4.4a1.18,1.18,0,0,1-1.13-.29,2.12,2.12,0,0,1-.33-1.61,12.24,12.24,0,0,0,.88-7.88,12.19,12.19,0,0,1,0-2.42c0-.6.18-1.56-.08-1.71a2.92,2.92,0,0,0-2.07-.25c-3,.89-5.94,1.87-8.87,2.92-3.32,1.19-6.61,2.49-9.92,3.72-2.21.83-4.46,1.53-6.62,2.45a3.53,3.53,0,0,0-1.77,1.78,3.27,3.27,0,0,0,1.52,4.48,1.07,1.07,0,0,1,.35.77c0,1.21,0,2.43,0,3.65q.33,8.19.7,16.38c0,.89.35,1.77.31,2.64-.06,1.35-.61,2.35-2.25,2.28-.7,0-1.41.3-2.12.3a12.91,12.91,0,0,1-2.62-.36c-.25,0-.42-.46-.62-.7.28-.22.55-.57.87-.63a14.23,14.23,0,0,0,3.12-.44c.77-.33,1.85-1.26,1.82-1.89q-.27-6.83-1-13.63c-.45-4.35-1.21-8.67-1.67-13-.21-2,.67-3,2.58-3.72,3.64-1.41,7.22-3,10.91-4.27,4-1.38,8.12-2.49,12.18-3.71A25.16,25.16,0,0,0,63,113.18c.54-.26.79-1.13,1.18-1.72a5.14,5.14,0,0,0-1.83-.21c-5.41,1.45-10.84,2.87-16.19,4.52S35.81,119.26,30.62,121a2.2,2.2,0,0,1-1.74-.13c-3.73-2.93-7.4-5.94-11.08-8.94-2.6-2.12-5.18-4.26-7.8-6.36-.09-.07-.68.25-.66.29a3.57,3.57,0,0,0,.6,1.64c2.92,2.78,5.8,5.64,8.92,8.19a59,59,0,0,0,6.35,3.91c1.84,1.14,3.69,2.31,4.19,4.65a13.13,13.13,0,0,1,.06,1.78c.1,1.88.28,3.76.33,5.65.05,2.51,0,5,0,7.53v11.7c0,.34.13.78,0,1a15.33,15.33,0,0,1-1.42,1.71c-.32-.59-.93-1.18-.94-1.78-.08-4.61,0-9.23-.05-13.84-.05-3.89-.29-7.78-.32-11.67s-3-5.43-5.86-7.13a56.65,56.65,0,0,1-6.46-4.52c-1.35-1.1-2.36-2.62-3.62-3.85A6,6,0,0,0,9.33,110a14.42,14.42,0,0,0,0,1.61c.21,2.39.39,4.8.71,7.18.21,1.57.93,1.78,2.46,1.3a41.85,41.85,0,0,1,5.07-1.17c.21,0,.67.38.76.67.63,2,1.17,4,1.78,6,.07.22.38.37.58.55.15-.29.46-.62.41-.87-.14-.79-.51-1.54-.63-2.33-.05-.38.25-.81.39-1.21.28.21.58.42.86.65a10.79,10.79,0,0,1,2,1.72,25.83,25.83,0,0,1,1.9,3.37s-.36.37-.52.35-.32-.32-.5-.46c-.7-.53-1.42-1-2.13-1.57-.78,1.09-1.58,2.16-2.33,3.27a2.26,2.26,0,0,0-.18.85c-.19-.24-.47-.44-.56-.71-.38-1.24-.76-2.48-1-3.74-.51-2.31-1.28-3-3.57-2.79a17.94,17.94,0,0,0-3.21.39c-.47.12-1.17.76-1.17,1.15,0,2.49.28,5,.42,7.45.1,1.84.2,3.69.17,5.53,0,.37-.59.74-.91,1.11-.26-.37-.67-.7-.75-1.1A19.74,19.74,0,0,1,9,134.07c-.15-4.47-.15-8.95-.4-13.41-.16-2.82-.69-5.61-1-8.43-.06-.63.38-1.32.28-1.93a4.91,4.91,0,0,0-.9-2.54,39,39,0,0,0-4.1-3.47,3.17,3.17,0,0,0-1-.35c.18.29.37.57.54.86s.64.84.66,1.28c.17,3.35.21,6.7.4,10,.08,1.41.59,2.81.63,4.23,0,1.68-.27,3.37-.29,5.06,0,2.44-.4,4.85-.57,7.25-.12,1.68,1,3.47,1.66,5.15.47,1.14,1.27,2.14,1.78,3.26.19.42,0,1,0,1.52-.4-.13-1-.14-1.17-.41-1.75-3-4.67-5.52-4.74-9.3-.05-2.41.63-4.83.59-7.24-.06-4.48-.38-9-.66-13.44-.16-2.57-.63-5.14-.6-7.7,0-1.2.86-2.39,1.35-3.58.35-.84.81-1.64,1.09-2.5a4.38,4.38,0,0,1,2.27-2.7c2.34-1.29,4.42-3,6.68-4.46s4.56-2.68,6.83-4a12.38,12.38,0,0,0,2-1.41A4.85,4.85,0,0,0,21,84.54c-.55-.08-1.17-.35-1.64-.19A7.18,7.18,0,0,0,17,85.69c-2,1.72-3.89.75-5.83.1a12.6,12.6,0,0,1-2.53-1A4.13,4.13,0,0,1,7,83.19c-.13-.25.64-1.1,1.14-1.48a42.63,42.63,0,0,1,3.68-2.44,2.52,2.52,0,0,0,1.3-3c-.42-1.74-.87-3.46-1.35-5.18-.38-1.34-.81-2.67-1.23-4,0-.1-.15-.18-.15-.28.09-2.37.29-4.74.26-7.12a52.54,52.54,0,0,0-.5-6.51c-.48-3.52-.2-6.91,2.4-9.46a10,10,0,0,1,4.74-2.25A43.45,43.45,0,0,1,23.52,41a11,11,0,0,0,1.59-.34l1.22-.28A6.76,6.76,0,0,0,25,39.66a19.37,19.37,0,0,1-9-5.77c-.69-.78-.74-2.28-.76-3.46,0-2,.38-4.08.26-6.1-.19-3.42-.74-6.81-1-10.23C14.41,12,14,9.69,16.24,8.21c.23-.15.46-.53.65-.5C19,8,20.44,6.44,22.25,6S26.13,5,28,4.4c2.72-.83,5.39-1.81,8.12-2.6A62.2,62.2,0,0,1,43.26.08c2.24-.38,4.29.65,6.3,1.5,3.06,1.29,6.07,2.7,9.11,4,1.15.49,2.65,3.24,2.39,4.58a13.24,13.24,0,0,0-.31,2.25c0,3.36-.12,6.73,0,10.08.08,2.29.63,4.58.55,6.85-.06,1.49-.16,3.24-1.68,4.28-2.69,1.83-5.48,2.91-8.89,2.26a11.22,11.22,0,0,0-6.19.91,36.42,36.42,0,0,1-11.32,2.87,2.32,2.32,0,0,0-1.45.65c-1.91,2.23-4.65,2.28-7.2,2.77-1.42.28-2.91.25-4.36.39-.17,0-.32.2-.48.3a2.1,2.1,0,0,0,.41.38c1.25.64,2.52,1.24,3.74,1.92a7,7,0,0,1,1.62,1.29,1.53,1.53,0,0,0,2.14.31,4.71,4.71,0,0,1,2.1-.37c2.77-.09,5.48-.22,8.07-1.51,1-.52,2.39-.34,3.57-.61,3.22-.72,6.43-1.51,9.65-2.27.32-.08.7,0,1-.16.71-.41,1.51-.64.54-1.83-1.64-2-3.54-1.82-5.61-1.21-2.93.88-5.9,1.67-8.76,2.76-1.39.53-2.51,1.73-3.84,2.48a5.16,5.16,0,0,1-1.88.29c0-.56-.09-1.24.19-1.64s.93-.26,1.42-.41a8,8,0,0,0,.95-.41c-.23-.18-.48-.35-.7-.55a3.19,3.19,0,0,1-.6-.62c-.05-.08.14-.44.21-.44,4.26,0,8.17-1.38,12-3a8.71,8.71,0,0,1,8.38.87c2.25,1.61,2.55,3.08,1.32,5.54-1.36,2.73-1.49,5.74-1.54,8.75,0,2.52-.19,5-.36,7.55,0,.22-.42.51-.7.61-2.5.95-5,1.93-7.53,2.78-4.22,1.42-8.45,2.81-12.72,4.11a42.49,42.49,0,0,1-5.27,1.1c-1.77.3-2.08-.38-1.94-2.28.2-3,0-6,.08-8.92a61.18,61.18,0,0,1,.7-6.31c.06-.43.53-.81.81-1.21.3.38.77.73.86,1.16a7.87,7.87,0,0,1,.31,3.3A9.68,9.68,0,0,0,28,60.06a19.87,19.87,0,0,1,.07,4.16c0,1.51.87,2.16,2.3,1.79,4.33-1.15,8.67-2.25,13-3.45a45.82,45.82,0,0,0,6.4-2.15,3.63,3.63,0,0,0,1.85-2.26,28.36,28.36,0,0,0,.09-4.62c0-1.05.22-2.1.34-3.15a26.32,26.32,0,0,0,.31-3,2.61,2.61,0,0,0-.6-1.78c-.32-.27-1.18-.07-1.72.12-2.81,1-5.5,2.19-8.63,2-1.58-.08-3.19.65-4.79.92-1.23.21-2.49.22-3.72.42-.9.14-1.77.49-2.67.66-3.38.64-6.22-.58-8.81-2.64-.95-.75-1.95-1.45-2.89-2.22-1.4-1.14-4.58-.14-5.76,1.73-1.36,2.15-.55,4.48-.66,6.73a19.9,19.9,0,0,0,.2,3c.13,1.38.31,2.76.48,4.14a1.27,1.27,0,0,0,.2.38c.16-.16.46-.32.47-.49a21.3,21.3,0,0,0,0-2.26A4.54,4.54,0,0,1,15.67,54c1.65-1.15,4.59.25,5.13,2.21,1,3.54-.05,6.9-.66,10.3-.26,1.48.22,2.33,1.7,2.34,1,0,1.77-.15,1.42,1.43s1.2,2.44,2.45,2.69c2.84.56,5.57,1,8.31-1.22,2.08-1.71,5-2.41,7.5-3.59,2.18-1,4.33-2.12,6.53-3.11,3.26-1.48,6.16-3.68,9.74-4.59,2.15-.55,4.11-1.79,6.19-2.65.94-.39,2-.5,2.93-.89,2.76-1.18,5.46-2.47,8.22-3.65a4.58,4.58,0,0,1,2.09-.36,15.92,15.92,0,0,1,9,3.35c1.6,1.28,3.74,1.85,5.54,2.91,1.32.78,2.43,1.89,3.71,2.73,2.55,1.66,5.21,3.14,7.7,4.87,2.23,1.54,4.22,3.41,6.45,5,2.83,2,4.75,4.77,7,7.27.79.89,1.71,1.67,2.44,2.59a21.54,21.54,0,0,1,1.65,2.67c.1.18.16.53.06.65-2,2.35-.45,4.86-.31,7.28.12,2,.43,4,.68,6,0,.38.23.73.34,1.28m-67.8-21.2c.75.29,1.79.35,2.19.9,1.45,2,0,5.78-2,6-1.39.18-2.8.21-4.2.37A11.32,11.32,0,0,0,48,86c.34.6.55,1.49,1.07,1.75,2.2,1.09,4.47,2.06,6.76,3,2,.8,4.17,1.39,6.23,2.17.47.18.78.77,1.17,1.17-.67.24-1.44.81-2,.65C58.77,94,56.37,93,53.9,92.32a21.53,21.53,0,0,1-8-4.17,27.74,27.74,0,0,0-5.17-3.42,52.28,52.28,0,0,0-6.15-2.34c-3.37-1.2-6.72-2-10,.32-.89.64-2.45.65-1.63,2.45a1.56,1.56,0,0,1-.22,1.42A16,16,0,0,1,19.89,89c-4.48,2.86-9,5.63-13.5,8.48-.57.36-1.32.92-.46,1.78a44.48,44.48,0,0,0,4,4c2.51,1.93,5.2,3.63,7.81,5.44a22.14,22.14,0,0,1,2.52,1.86c2.47,2.28,4.88,4.63,7.33,6.94a3.77,3.77,0,0,0,4.44.74,26.33,26.33,0,0,1,3.25-1.37c3.67-1.08,7.37-2.06,11-3.1,3.26-.93,6.51-1.89,9.77-2.83,2.59-.74,5.33-1.15,7.73-2.29s4.78-2.61,7.51-3.29a40.45,40.45,0,0,0,6-2.4C82,100.93,86.59,99,91.2,97c2.74-1.2,5.42-2.56,8.15-3.8,3.7-1.69,7.4-3.36,11.13-5,1.67-.72,3.41-1.28,5.09-2,1-.42,1.92-1,2.86-1.48.16-.09.25-.32.37-.48-.22,0-.5-.18-.64-.09-1.11.67-1.25-.24-1.79-.88-1.47-1.72-2.3-4-4.56-5.07A5.41,5.41,0,0,1,110,76.77c-2.79-3.38-6.4-5.74-9.94-8.18-2.91-2-6.27-3.39-8.48-6.34-.29-.38-1-.46-1.42-.72-2-1.11-4.11-2.15-6.07-3.37-2.85-1.78-5.74-3.33-9.2-2.11-2.22.78-4.35,1.8-6.52,2.71s-4.43,1.9-6.67,2.78c-1.54.61-3.17,1-4.71,1.63C54.84,64,52.76,65,50.67,66l-7.73,3.56c-2,.93-4.11,1.82-6.15,2.78a22.63,22.63,0,0,0-1.95,1.15l1.79.86s.08.11.12.12c1.8.24,3.63,1,5.39,0,2.82-1.6,5.52-3.42,8.39-4.92,3.18-1.65,6.51-3,9.75-4.56,2.52-1.19,5-2.47,7.53-3.63a4,4,0,0,1,4.23.05,12.86,12.86,0,0,0,3.62,2.12,5,5,0,0,1,3.19,2.68c.39.71.6,1,1.48.71,1.45-.55,3-.91,4.46-1.38,3-1,4.58.11,4.52,3.2,0,1.46-.21,2.91-.33,4.37s-.3,2.8-.33,4.2c-.05,2.45.13,4.91-.1,7.34a3.33,3.33,0,0,1-1.76,2.18A56.41,56.41,0,0,1,80.91,89c-2.8.93-5.68,1.62-8.22,3.24a48.28,48.28,0,0,1-4.54,2.44,1.2,1.2,0,0,1-1.13-.1,1.34,1.34,0,0,1,0-1.14,2.83,2.83,0,0,1,1-1.31A84.46,84.46,0,0,1,75.68,88C78,87,80.56,86.35,83,85.5c2-.69,2.79-2.09,2.9-4.18.16-3.32-.55-6.69.63-10,.4-1.12-.05-2.14-1.55-1.81a33.16,33.16,0,0,0-5.15,1.4c-2.24.89-4.35,2.08-6.54,3.09s-4.73,2-7,3.19a3.4,3.4,0,0,0-1.54,2c-.41,2-.38,4-.8,6a18.26,18.26,0,0,1-1.62,3.83,1.09,1.09,0,0,1-.8.35A1.72,1.72,0,0,1,61,88.35c.26-2.94.54-5.89.93-8.82a7.64,7.64,0,0,1,.93-3.07c1.59-2.53,4.45-3.27,6.94-4.49,2-1,4.15-1.74,6.12-2.8,1.27-.69,1.2-1.84.1-2.38a24.62,24.62,0,0,0-3.34-1.56c-1.5-.44-2.81-1.84-4.6-1s-3.32,1.49-5,2.21c-3.72,1.62-7.49,3.16-11.18,4.87a55.4,55.4,0,0,0-6.06,3.39c-1.24.78-1.13,1.47.44,1.81,2.38.51,4.74,1.14,7.45,1.72m-6.6-44.82-.43.62a2.66,2.66,0,0,0,1,.22c2.56-.37,5.1-.85,7.67-1.17,3-.37,3.48-.83,3.43-3.92-.07-3.91-.3-7.81-.32-11.72,0-2.7.25-5.39.31-8.08,0-1.51-.82-1.94-2.2-1.37-1.88.76-3.77,1.54-5.71,2.13-5.21,1.56-10.42,3.13-15.68,4.48a34.64,34.64,0,0,1-6.53.72c-1.51.1-1.79.65-1.35,2.45s.65,3.56.9,5.36.57,3.85.68,5.79a40.88,40.88,0,0,1,0,6c-.17,2.09.59,3.12,2.71,3a12.87,12.87,0,0,0,2.11-.34c3.39-.75,6.79-1.5,10.17-2.3.36-.08.65-.46,1-.71-.44-.1-.94-.4-1.3-.28a17.24,17.24,0,0,1-7.32,1.24c-1.19-.11-2.27,0-1.08-1.62.2-.26.08-.8,0-1.19-.2-1.3-.46-2.59-.68-3.89a2.17,2.17,0,0,1,1.81-2.71c1.66-.47,3.59-.56,4.91-1.5,1.78-1.26,3.7-1.51,5.64-2,.4-.09.79-.2,1.19-.3a5.81,5.81,0,0,0-1-1.13c-.81-.58-1.78-1.08-1.4-2.28A7.76,7.76,0,0,1,54.41,14a2.52,2.52,0,0,1,2,2.59c0,1.55-1.14,2.55-1.36,3.79a32,32,0,0,0-.36,7.82c.13,1.62-.28,2.53-1.65,3.09-1.83.74-3.7,1.4-5.9,2.09M36.69,81a12.28,12.28,0,0,0,1.8.68c1.88.39,3.78.65,5.64,1.07a22.9,22.9,0,0,0,8.27.61c.68-.1,1.23-1.15,1.84-1.76-.55-.43-1-1.11-1.66-1.25-4.66-1.08-9.34-2.08-14-3a64.15,64.15,0,0,0-8.64-1.46c-2.93-.18-5.75-.57-8.19-2.2-1.25-.84-2.71-2-3.14-3.31-.52-1.59-.1-3.51,0-5.28.15-2.53.48-5.06.48-7.58a2.56,2.56,0,0,0-1.59-1.77c-1-.33-1.6.53-1.81,1.55-.33,1.59-.71,3.18-1,4.78a35.43,35.43,0,0,0-1,6.16,13.6,13.6,0,0,0,1.05,5.26,5.79,5.79,0,0,0,2.6,2.6,15.78,15.78,0,0,0,3.94,1c3,.63,6.09,1.18,9.1,1.91A60.29,60.29,0,0,1,36.69,81M35,12.2c2.74-.65,5.49-1.24,8.21-2,3.32-.9,6.61-1.9,9.91-2.9a11.72,11.72,0,0,0,1.82-.88,9.46,9.46,0,0,0-1.77-1.16c-1.44-.58-3-.92-4.39-1.57-2-.92-3.89-1.7-6.12-.91a4.67,4.67,0,0,1-2.1.34c-3.3-.47-6,1.41-9,2.16-3.38.84-6.68,2-10,3.09a7.37,7.37,0,0,0-1.31.73c.37.41.67,1,1.13,1.21,1.57.8,3.22,1.45,4.8,2.23C29,14,31.82,13.15,35,12.2M24.19,13.94c-1.7-1.5-3.91-1.73-5.94-2.38-.27-.08-1.14.64-1.13,1,.07,1.65.39,3.3.52,5,.19,2.58.35,5.18.43,7.77.08,2.39,0,4.78.06,7.17,0,.22.3.47.52.64,1.9,1.39,3.76,2.86,5.75,4.12,1.33.84,2.25.32,2.37-1.2a21.08,21.08,0,0,0,0-3.81c-.41-4.21-.86-8.41-1.39-12.6a44,44,0,0,0-1.19-5.63m84.6,82.51c1.18-.3,1.08-1.19,1-2.12a15.58,15.58,0,0,1,0-2.16,6.12,6.12,0,0,1,.23-1,5.41,5.41,0,0,0-1.06.23c-2.46,1-4.92,2.09-7.35,3.19-3,1.36-6,2.78-9,4.16-2.53,1.16-5.05,2.35-7.6,3.46-3.53,1.53-7.06,3.08-10.63,4.5-2.09.83-4.31,1.34-6.4,2.16-.51.2-1.16,1.21-1,1.61.25.74,1,1,2,.56,1.91-1,3.88-1.79,5.88-2.56,3.75-1.44,7.5-2.84,11.29-4.17,4.81-1.67,9.65-3.25,14.47-4.88,2.69-.91,5.37-1.85,8.23-3m-93.11-17c-2.17-.1-3,2-4.54,2.86-.1.06.06,1,.25,1.09,1.89.55,3.58,1.75,5.79.14,1.65-1.2,4-1.48,6-2.19.52-.18,1-.45,1.53-.68-.63-.35-1.24-.94-1.9-1a57.45,57.45,0,0,0-7.13-.22M42.6,32.35c2.15-.41,4.31-.75,6.43-1.26a6.91,6.91,0,0,0,2.76-1.23c.48-.38.49-1.32.71-2-.43-.12-.93-.43-1.3-.32-2.68.78-5.36,1.56-8,2.56-.54.21-1.88.9-.63,2.27m11.64-16.5c-2.34-.43-4.26.59-6,1.93a2,2,0,0,0-.13,1.92c.75,1.22,1.88,1.28,3.31.9a3.87,3.87,0,0,0,2.82-4.75m60.8,74c-1.43-1.09-2.69,0-3.87.48s-.37,1.5,0,2.19.88,2,1.57,2.19c1.83.57,3.52-1.54,3-3.5a5.41,5.41,0,0,0-.65-1.36M52,23c-1.45.64-2.92,1.25-4.33,2a1.15,1.15,0,0,0-.17,1.1,1.38,1.38,0,0,0,1.12.29c.79-.12,1.55-.4,2.34-.56,1.19-.26,1.72-1.36,1-2.79m-9.73,2.78a4.75,4.75,0,0,0-.35,1.65c0,.19.92.51,1.3.39a11.08,11.08,0,0,0,2.74-1.29,1.34,1.34,0,0,0,.16-1.32,1.49,1.49,0,0,0-1.32-.43c-.76.2-1.46.65-2.53,1M7,103.4c-.93-.82-1.84-1.66-2.81-2.43a3,3,0,0,0-1.07-.29c0,.43-.14,1,.09,1.27A32.28,32.28,0,0,0,6,104.42a4.18,4.18,0,0,0,1,.46A3.85,3.85,0,0,0,7,103.4M39,33.91a10.62,10.62,0,0,0,1.7-1.33c.14-.16-.28-1.12-.37-1.11A13.07,13.07,0,0,0,37.5,32c-.29.11-.42.68-.63,1a7.31,7.31,0,0,0,2.08.84m-1.91-4c.29,0,.65.11.84,0a8.43,8.43,0,0,0,1.72-1.54c.14-.17-.26-1.09-.4-1.09a4,4,0,0,0-2.25.46C36.6,28,36.87,29.05,37,29.92Z"/><path d="M68.05,131.63c2.12-.26,4.15-.48,6.18-.59,1.6-.1,2.1-.73,1.91-2.34q-.75-6.46-1.38-13a20.81,20.81,0,0,1,0-3.53,1.25,1.25,0,0,1,.68-.93,1.16,1.16,0,0,1,1,.6,28.33,28.33,0,0,1,.72,4.28c.19,2.57.09,5.17.42,7.72.25,1.9.52,3.65-.3,5.52-1.64,3.77-1.9,4-6,4.06-.67,0-1.36.14-2,.1a15.62,15.62,0,0,1-1.9-.39C67.54,132.68,67.75,132.2,68.05,131.63Z"/><path d="M7.08,90.46a13.16,13.16,0,0,1-.46,1.48A13.31,13.31,0,0,1,5.44,93.5c-.15-.66-.37-1.31-.46-2-.14-1.08-.19-2.18-.28-3.26a6.89,6.89,0,0,1-.11-1.49,1.19,1.19,0,0,1,.58-.87c.29-.07.91.16,1,.38A34.39,34.39,0,0,1,7.08,90.46Z"/><path d="M71.52,84.55a23.78,23.78,0,0,1,.32-3.93,1.78,1.78,0,0,1,2.63-1.28,3.52,3.52,0,0,1,1.92,2.16,3.56,3.56,0,0,1-3.61,4c-.41,0-.78-.54-1.26-.92m3.22-2,0-1.43c-.47.15-1.17.16-1.37.48a5.77,5.77,0,0,0-.45,1.86A19.29,19.29,0,0,0,74.74,82.56Z"/><path d="M43.12,20.19C42,23.06,39.33,23.25,37,24a5,5,0,0,1-1.93.33c-1.28-.11-2.61-.23-3.26-1.68a3.16,3.16,0,0,1,1-3.75c2.68-2.49,5.65-3.07,8.88-1.14a2.22,2.22,0,0,1,1.4,2.43m-2.43-.87c-2-1.33-5.5-.77-6.67,1.2a1.75,1.75,0,0,0,.43,1.7c1.15.71,5.33-.29,6.37-1.27C41.38,20.42,41.61,20,40.69,19.32Z"/></g></g></g></svg>