<svg xmlns="http://www.w3.org/2000/svg" viewBox="0 0 226.15 140.49"><defs><style>.cls-1{fill:#fcee21;}.cls-2{fill:#c1272d;}.cls-3{fill:#7f7f7f;}.cls-4{fill:#202130;}.cls-5{fill:#998675;}</style></defs><title>Taxi</title><g id="Layer_2" data-name="Layer 2"><g id="Layer_1-2" data-name="Layer 1"><g id="Taxi"><path class="cls-1" d="M23.38,100.69c-3,.82-4.06,5.44-1.68,7.48l20.68-8.51c1.93-.8,4.1-1.86,4.59-3.88a14.53,14.53,0,0,1,22.44-8.49c3.14,2.19,7.41.36,10.75-1.5L143.57,50.6c1.4-.78,2-2.46,2.61-3.93,4-9.22,15.85-14.14,25.22-10.49L186.18,29q-1.63-4.65-3.25-9.3a5.87,5.87,0,0,0-2.08-3.27c-1.9-1.16-4.53.37-5.33,2.45s-.31,4.42.22,6.59l5.63-2.34a7.36,7.36,0,0,1-4.5,3.87,2.54,2.54,0,0,1-2.51-.32,2.81,2.81,0,0,1-.63-1.21,10.31,10.31,0,0,1,.34-7.46,6.33,6.33,0,0,1,6.17-3.62c.64-1.61-.9-3.4-2.6-3.72s-3.41.39-5,1.07l-19.78,8.5c-3.56,1.53-7.51,3.08-11.2,1.89-1.66-.53-3.46,0-5.11.57L99.31,34.94c-.83.28-1.46-.75-1.73-1.59l-2.81-8.54a3.87,3.87,0,0,1-.28-2.14c.26-1,1.29-1.66,2.23-2.17L119.65,8c-1.27-3.08-5.83-2.14-8.84-.71a351.38,351.38,0,0,1-47,18.34c-4.46,1.38-9,2.69-13,5.06s-7.54,6-8.75,10.48a83.29,83.29,0,0,1,16.82-7.28,2.39,2.39,0,0,1,1.76-.08,2.46,2.46,0,0,1,1,1.39c1.17,2.8,2.36,5.67,2.48,8.71s-1.06,6.3-3.66,7.86L35.88,66.47c.58,4-1.16,8-3.78,11.13s-6,5.35-9.41,7.57L14.16,90.8c.27,1.21,2.09,1.23,3.1.5S19,89.41,20.14,89a3.61,3.61,0,0,1,4,1.75,10.62,10.62,0,0,1,1.22,4.53c.23,2.09,0,4.87-2,5.42"/><path class="cls-2" d="M19.78,100.83a8.22,8.22,0,0,0,2.62-1.55,2.87,2.87,0,0,0,.87-2.79l-1.18-3.6c-.2-.64-.53-1.38-1.19-1.47a1.89,1.89,0,0,0-.92.2A7.09,7.09,0,0,0,17.55,93a2.45,2.45,0,0,0-.7,2.57c.68,1.62,1.35,3.24,2,4.85.08.2.19.42.39.48a.77.77,0,0,0,.51-.09"/><path class="cls-3" d="M60.8,87.43c-1.38.7-3,.56-4.54.89A9.51,9.51,0,0,0,50,93.63a20.34,20.34,0,0,0-1.71,8.24,11.54,11.54,0,0,0,.64,5,4.65,4.65,0,0,0,3.82,3c.6,0,1.37,0,1.63.53s0,1,.28,1.34a1,1,0,0,0,.53.23,17.91,17.91,0,0,0,18.09-7,9.72,9.72,0,0,0,1.56-3.2c.94-3.85-1.66-7.63-4.35-10.54a15.47,15.47,0,0,0-4.31-3.55,6.14,6.14,0,0,0-5.41-.25"/><path class="cls-4" d="M72.57,42.86q7.58-1.62,15-3.68c1.55-.43,3.36-1.13,3.71-2.7a4.62,4.62,0,0,0-.15-1.95q-.72-3.2-1.45-6.37c-.15-.7-.39-1.49-1-1.77a2.29,2.29,0,0,0-1.6.14A109.41,109.41,0,0,0,67.8,35.37l2.39,6.05c.24.59.53,1.25,1.12,1.47a2.25,2.25,0,0,0,1.26,0Z"/><path class="cls-4" d="M124.45,10.57a3.36,3.36,0,0,0-1.92-.94,3.31,3.31,0,0,0-1.59.53L97.22,22.82c-.34.19-.72.41-.81.79a1.32,1.32,0,0,0,.15.82L99.22,31a1.16,1.16,0,0,0,.47.66,1.21,1.21,0,0,0,.93-.05L136,19.73l-11.55-9.16"/><path class="cls-4" d="M41.11,45.86a172.46,172.46,0,0,0-5,19.08A138,138,0,0,1,61.23,49a3,3,0,0,0,1.39-3,14.11,14.11,0,0,0-1.06-3.38,16.75,16.75,0,0,1-1-5.1c0-.73-.2-1.69-.93-1.75a1.62,1.62,0,0,0-.64.15L43.7,42.12c-1.46.59-2.11,2.25-2.59,3.74"/><path class="cls-3" d="M173.59,43.15l-2.11,2.73c-.53-.45-.27-1.29-.09-2a5.64,5.64,0,0,0-1.8-5.64c-2.23-1.87-5.55-1.68-8.31-.76A33.41,33.41,0,0,0,155.85,40a22.53,22.53,0,0,0-7,5.23c-1.83,2.28-2.79,5.46-1.74,8.19,1.44,3.71,5.82,5.21,9.73,6a23.42,23.42,0,0,0,9.89.24c3.23-.8,6.28-3,7.26-6.19a15,15,0,0,0,.08-6.39l-.51-3.92"/><path class="cls-5" d="M183,19.25a4.83,4.83,0,0,0-2.1-2.83c-1.9-1.16-4.53.37-5.33,2.45s-.31,4.42.22,6.59l5.63-2.34c-.42.13,1.58-1.87,1.58-3.87"/><path d="M179.29,43.45,178.15,42a123.55,123.55,0,0,1,24.2-8.93c8-2,16.64-3.55,22.4-9.41.49-.5,1.42.15,1.39.86a2.54,2.54,0,0,1-1.13,1.7,33.55,33.55,0,0,1-14.54,7A149.49,149.49,0,0,0,179.29,43.45Z"/><path d="M185,11.06c-.55.59-1.44,1.23-2.08.73a15.4,15.4,0,0,1,6.18-6.89c.74.34.26,1.47-.3,2.07Z"/><path d="M190,14.67c.76.17.31,1.34-.3,1.82a15.13,15.13,0,0,1-4.51,2.38,6.27,6.27,0,0,1,4.36-4.16A1,1,0,0,1,190,14.67Z"/><path d="M190.49,21.33a28,28,0,0,1,3.64-.63,1.34,1.34,0,0,1,1.06.21,1.37,1.37,0,0,1,.26,1,24.1,24.1,0,0,1-4.67,1c-.56.05-1.31-.05-1.4-.61S190,21.46,190.49,21.33Z"/><path d="M69.61,45.33,65,33.57a8.19,8.19,0,0,0,4.32-1.48,112.75,112.75,0,0,1,18-8.21A2.7,2.7,0,0,1,90.27,25,7.82,7.82,0,0,1,91.48,28l1.94,8a3.66,3.66,0,0,1,.16,1.53,3.12,3.12,0,0,1-1,1.56c-2.08,2-5.06,2.85-7.89,3.58l-13.32,3.4a1.19,1.19,0,0,1-1.8-.79m3-2.47q7.58-1.62,15-3.68c1.55-.43,3.36-1.13,3.71-2.7a4.62,4.62,0,0,0-.15-1.95q-.72-3.2-1.45-6.37c-.15-.7-.39-1.49-1-1.77a2.29,2.29,0,0,0-1.6.14A109.41,109.41,0,0,0,67.8,35.37l2.39,6.05c.24.59.53,1.25,1.12,1.47a2.25,2.25,0,0,0,1.26,0Z"/><path d="M142.08,36.71c-1,0-1.2,1.28-1.53,2.17-.62,1.68-2.41,2.58-4.05,3.31a2.41,2.41,0,0,1-1.49.32c-.51-.12-.91-.74-.62-1.17a11.78,11.78,0,0,0,3.4-1.7,3.94,3.94,0,0,0,1.59-3.3c-.15-1.56-1.51-2.76-1.87-4.29a2.06,2.06,0,0,1,3,1.5,2.16,2.16,0,0,0,2.24,1.71,6.22,6.22,0,0,0,2.88-1c.79-.44,1.67-1.49,1-2.06a5.32,5.32,0,0,1-2.49.29,1.86,1.86,0,0,1-1.58-1.71,2.53,2.53,0,0,1,1.19-1.73A4.11,4.11,0,0,1,146.16,28c.93,0,1.88.87,1.66,1.77a3.5,3.5,0,0,0-3.91.9c1.3,1,3.85,0,4.49,1.52a2.19,2.19,0,0,1-.75,2.2A7.71,7.71,0,0,1,142.08,36.71Z"/><path d="M116.22,44.72a2.67,2.67,0,0,0,3.23-3,22.42,22.42,0,0,1,.32-6.28c1,.14,1.34,1.46,1.4,2.5a12.82,12.82,0,0,1-.43,5.35,4.37,4.37,0,0,1-4,3c-.87,0-2.14-.17-2.21.69a2.59,2.59,0,0,1-3.36,2.07,2.9,2.9,0,0,1-1.51-3.78,3.31,3.31,0,0,1,3.85-1.68c1,.32,2-.67,2.78-1.45s2.17-1.41,2.87-.55a5.93,5.93,0,0,0-2.9,3.12m-4.55,3.06a4.62,4.62,0,0,0,2.13-2,1.52,1.52,0,1,0-2.11,2Z"/><path d="M67.57,53.37c.91,1.74-.77,3.62-1.5,5.45-1.29,3.23.52,6.76,1.92,9.94a44,44,0,0,1,2.47,7.4c.11.48.08,1.17-.41,1.23s-.64-.38-.78-.75l-3.14-8a24.09,24.09,0,0,1-1.65-5.36A12.32,12.32,0,0,1,67.57,53.37Z"/><path d="M100.25,48.44a2.89,2.89,0,0,0-1.55.93,2,2,0,0,1-1.64.66c-.6-.14-.87-1.14-.3-1.35a24.63,24.63,0,0,0,8.45-5.31,1.5,1.5,0,0,1,2.11.37,4.09,4.09,0,0,1,.6,2.29,37.84,37.84,0,0,1,0,4.26.83.83,0,0,1-.27.7c-.48.32-.93-.46-1-1L106,44.79a5.65,5.65,0,0,0-3.58,4.54,5.23,5.23,0,0,1-.37,1.94c-.33.58-1.22.9-1.66.4C99.63,50.79,101.26,49,100.25,48.44Z"/><path d="M127.41,34.92c1.32.48,1.2,2.51.22,3.51s-2.4,1.41-3.52,2.24a3.82,3.82,0,0,0,5.07-.81c.67-.9,1.52-2.31,2.49-1.74a7.78,7.78,0,0,1-3.95,4.49c-1.9.75-4.5-.1-5-2.08-.47-1.76.79-3.52,2.16-4.72a2.73,2.73,0,0,1,2.55-.89m-.74,2.36c.57-.18.47-1.25-.13-1.22a3.69,3.69,0,0,0-2.41,2.73,2.14,2.14,0,0,0,2.53-1.44Z"/><path d="M79.19,60.78a11.81,11.81,0,0,1-3.27,2.57,4.41,4.41,0,0,1,3.54-3.72c.71-.11,1.6.07,1.83.74a1.61,1.61,0,0,1-.06,1,6.32,6.32,0,0,1-3.68,4,1.72,1.72,0,0,1-1.62,0c-.45-.34-.31-1.27.25-1.25a4.28,4.28,0,0,0,2.69-.88C79.67,62.64,80.11,61.18,79.19,60.78Z"/><path d="M134.66,38.61l-1,0a1.49,1.49,0,0,1,.52-1.4.91.91,0,0,1,1.33.29c.21.48-.36,1.11-.82.86Z"/><path d="M137.76,29.18l-1.1.66a1,1,0,0,1-.17-1.35,1,1,0,0,1,1.34-.21l0,.9Z"/><path d="M55.72,103.62a4.92,4.92,0,0,1,8.37-4.78c.94,1.07.09,2.74-.91,3.76a14.66,14.66,0,0,1-2.48,2c-1.12.74-2.61,1.33-3.77.65a2.93,2.93,0,0,1-1.21-1.66m5.11-4a5.49,5.49,0,0,0-2.84.94,1.87,1.87,0,0,0-.35,2.66c.91.87,2.39.13,3.41-.62a3.78,3.78,0,0,0,1.24-1.31,1.23,1.23,0,0,0-.42-1.6A1.75,1.75,0,0,0,60.83,99.66Z"/><path d="M158.72,48.54a3.4,3.4,0,0,1,2.3-1.61,3.79,3.79,0,0,1,1.72.47,7.82,7.82,0,0,1,2.5,1.54,2.68,2.68,0,0,1,.73,2.7,3.7,3.7,0,0,1-2,1.74,7.29,7.29,0,0,1-3.45.91,3.18,3.18,0,0,1-2.88-1.82c-.52-1.32.2-2.8,1.06-3.93m4.1,3.4c.54-.28,1.15-.68,1.15-1.28s-.63-1-1.21-1.18a3.05,3.05,0,0,0-2.64.25,1.68,1.68,0,0,0-.37,2.4c.77.78,2.09.32,3.07-.19Z"/><path d="M93.47,10.57a18,18,0,0,1-3.84-5.5c-.17-.39-.32-.87,0-1.2.43-.5,1.23,0,1.66.53C92.75,6.15,94.34,8.43,93.47,10.57Z"/><path d="M46,102.41a2.58,2.58,0,0,0-.77-1.35c-.71-.53-1.71-.2-2.52.15l-20.16,8.7c-1.23.53-2.33-1-2.86-2.2L12,89.46l12.58-8a22.15,22.15,0,0,0,5.87-4.78c1.93-2.49,2.7-5.66,3.42-8.72l7-29.72c1-4.35,5.26-7.06,9.24-9.08A116.19,116.19,0,0,1,68.2,21.75c-.81-4.63-1.33-10.16,2.18-13.29A14.11,14.11,0,0,1,74.52,6.2L86.33,1.4A13.23,13.23,0,0,1,92.1,0c5.78.39,9.92,8,15.54,6.63,1.86-.47,3.32-1.88,4.94-2.91s3.86-1.65,5.4-.5L133.63,15c3.07,2.3,6.41,4.69,10.24,4.83,2.63.1,5.17-.89,7.62-1.87l25.14-10c2.07-.82,3.81,1.69,4.63,3.75l6.36,16a3.29,3.29,0,0,1,.35,1.64c-.14,1.11-1.29,1.77-2.3,2.24L171.43,38.2a14.49,14.49,0,0,1,2.89,18.21,14.5,14.5,0,0,1-17.67,5.29c-4.07-1.86-8.89-1.35-13,.29s-7.82,4.31-11.5,6.84a226.2,226.2,0,0,1-42.46,23c-4.63,1.9-9.7,4-12.16,8.32-.83,1.46-1.3,3.1-2,4.63a17.6,17.6,0,0,1-17,10,41.68,41.68,0,0,0-5.22-.48,19.24,19.24,0,0,0-6.7,1.94L11,131.44c-4.31,1.84-9.21,4.42-9.88,9.05-1.63-1.42-1.38-4.16-.07-5.86s3.38-2.63,5.35-3.49L49.25,112.5q-1.61-5.06-3.22-10.09m-22.65-1.72c-3,.82-4.06,5.44-1.68,7.48l20.68-8.51c1.93-.8,4.1-1.86,4.59-3.88a14.53,14.53,0,0,1,22.44-8.49c3.14,2.19,7.41.36,10.75-1.5L143.57,50.6c1.4-.78,2-2.46,2.61-3.93,4-9.22,15.85-14.14,25.22-10.49L186.18,29q-1.63-4.65-3.25-9.3a5.87,5.87,0,0,0-2.08-3.27c-1.9-1.16-4.53.37-5.33,2.45s-.31,4.42.22,6.59l5.63-2.34a7.36,7.36,0,0,1-4.5,3.87,2.54,2.54,0,0,1-2.51-.32,2.81,2.81,0,0,1-.63-1.21,10.31,10.31,0,0,1,.34-7.46,6.33,6.33,0,0,1,6.17-3.62c.64-1.61-.9-3.4-2.6-3.72s-3.41.39-5,1.07l-19.78,8.5c-3.56,1.53-7.51,3.08-11.2,1.89-1.66-.53-3.46,0-5.11.57L99.31,34.94c-.83.28-1.46-.75-1.73-1.59l-2.81-8.54a3.87,3.87,0,0,1-.28-2.14c.26-1,1.29-1.66,2.23-2.17L119.65,8c-1.27-3.08-5.83-2.14-8.84-.71a351.38,351.38,0,0,1-47,18.34c-4.46,1.38-9,2.69-13,5.06s-7.54,6-8.75,10.48a83.29,83.29,0,0,1,16.82-7.28,2.39,2.39,0,0,1,1.76-.08,2.46,2.46,0,0,1,1,1.39c1.17,2.8,2.36,5.67,2.48,8.71s-1.06,6.3-3.66,7.86L35.88,66.47c.58,4-1.16,8-3.78,11.13s-6,5.35-9.41,7.57L14.16,90.8c.27,1.21,2.09,1.23,3.1.5S19,89.41,20.14,89a3.61,3.61,0,0,1,4,1.75,10.62,10.62,0,0,1,1.22,4.53c.23,2.09,0,4.87-2,5.42m53.44-4.33c2.88-2.86,6.71-4.5,10.44-6.11,13-5.61,25.92-11.59,37.78-19.34,7.09-4.64,14-10,22.26-12,.94-1.55-.47-3.66-2.22-4.11s-3.57.23-5.24.93c-23.19,9.75-43.2,26.35-67,34.52a19.06,19.06,0,0,0,4,6.08m-16-8.93c-1.38.7-3,.56-4.54.89A9.51,9.51,0,0,0,50,93.63a20.34,20.34,0,0,0-1.71,8.24,11.54,11.54,0,0,0,.64,5,4.65,4.65,0,0,0,3.82,3c.6,0,1.37,0,1.63.53s0,1,.28,1.34a1,1,0,0,0,.53.23,17.91,17.91,0,0,0,18.09-7,9.72,9.72,0,0,0,1.56-3.2c.94-3.85-1.66-7.63-4.35-10.54a15.47,15.47,0,0,0-4.31-3.55,6.14,6.14,0,0,0-5.41-.25M173.59,43.15l-2.11,2.73c-.53-.45-.27-1.29-.09-2a5.64,5.64,0,0,0-1.8-5.64c-2.23-1.87-5.55-1.68-8.31-.76A33.41,33.41,0,0,0,155.85,40a22.53,22.53,0,0,0-7,5.23c-1.83,2.28-2.79,5.46-1.74,8.19,1.44,3.71,5.82,5.21,9.73,6a23.42,23.42,0,0,0,9.89.24c3.23-.8,6.28-3,7.26-6.19a15,15,0,0,0,.08-6.39l-.51-3.92M124.45,10.57a3.36,3.36,0,0,0-1.92-.94,3.31,3.31,0,0,0-1.59.53L97.22,22.82c-.34.19-.72.41-.81.79a1.32,1.32,0,0,0,.15.82L99.22,31a1.16,1.16,0,0,0,.47.66,1.21,1.21,0,0,0,.93-.05L136,19.73l-11.55-9.16M41.11,45.86a172.46,172.46,0,0,0-5,19.08A138,138,0,0,1,61.23,49a3,3,0,0,0,1.39-3,14.11,14.11,0,0,0-1.06-3.38,16.75,16.75,0,0,1-1-5.1c0-.73-.2-1.69-.93-1.75a1.62,1.62,0,0,0-.64.15L43.7,42.12c-1.46.59-2.11,2.25-2.59,3.74M74.58,15.51c-.74-1-.35-3-1.57-3.06-.47,0-.86.33-1.29.53s-1.09.12-1.16-.35c0-.3.21-.55.45-.74a15,15,0,0,1,4.4-2.51c.52-.19,1.35-.14,1.33.41a3.14,3.14,0,0,0,0,5l1.43-5.77a1.56,1.56,0,0,0,0-1c-.29-.62-1.16-.58-1.82-.44C73.84,8.13,71,9,70.05,11.38a8,8,0,0,0-.3,3.16L70,20.45c1.84.33,3.7-.35,5.44-1L103.28,8.69c0,.18.36.07.35-.12s-.19-.31-.35-.4l-9.51-5.6a3.7,3.7,0,0,0-4.35-.31L78.88,6.84l3.47,3.58c.44.46,1.15.94,1.63.53,1-.88-1.8-2.76-.69-3.55.57-.41,1.33.31,2,.2.94-.15,1.59-1.74,2.37-1.2S87.16,8,87.11,9c-.08,1.49,2.63,1.43,3.15,2.83-1.14,1.35-3.59-1-5,.08-.47.36-.62,1-1,1.47s-1.27.63-1.46.06c-.36-1.06-1.94-1.12-2.87-.49a31.61,31.61,0,0,0-2.35,2.42c-.85.73-2.32,1-3,.14m-54.8,85.32a8.22,8.22,0,0,0,2.62-1.55,2.87,2.87,0,0,0,.87-2.79l-1.18-3.6c-.2-.64-.53-1.38-1.19-1.47a1.89,1.89,0,0,0-.92.2A7.09,7.09,0,0,0,17.55,93a2.45,2.45,0,0,0-.7,2.57c.68,1.62,1.35,3.24,2,4.85.08.2.19.42.39.48a.77.77,0,0,0,.51-.09M80.16,10.52a.51.51,0,0,0-.78-.4,1.12,1.12,0,0,0,.23,1.33.79.79,0,0,0,.63-.94Z"/></g></g></g></svg>