<svg xmlns="http://www.w3.org/2000/svg" viewBox="0 0 120.92 111.1"><defs><style>.cls-1{fill:#191919;}.cls-2{fill:#b6f2ec;}.cls-3{fill:#8cc63f;}.cls-4{fill:#c69c6d;}</style></defs><title>Tv</title><g id="Layer_2" data-name="Layer 2"><g id="Layer_1-2" data-name="Layer 1"><g id="Tv"><path class="cls-1" d="M54.07,14.63c-14.73,2.29-29.5,4.59-43.83,8.71-3,.87-6.32,2.05-7.82,4.81-1.17,2.15-1,4.76-.74,7.19l6.93,71.93a2.28,2.28,0,0,0,.79,1.83,2.29,2.29,0,0,0,1.49.1q36.26-5.86,72.36-12.74c3.82-.72,7.76-1.51,11-3.68,6.48-4.37,15.27-2.51,22.7-4.92a3,3,0,0,0,2-1.41,3.17,3.17,0,0,0,.08-1.62Q114.32,48,109.67,11.19c-.22-1.74-.68-3.81-2.32-4.42a4.91,4.91,0,0,0-2.47,0L78.6,10.81l-9.3,1.45Z"/><path class="cls-2" d="M50.65,91.08Q76.58,85.2,102.3,78.41a13.14,13.14,0,0,0,5-2.08c2.09-1.67,3-4.48,3-7.15a30.23,30.23,0,0,0-1.84-9.4q-5.56-18-11.14-36c-.71-2.29-3.15-3.69-5.53-3.94a19.1,19.1,0,0,0-7.07,1.1A546.68,546.68,0,0,1,26.83,34.16c-4.2.72-9.15,2-10.61,6a11.88,11.88,0,0,0-.17,5.72Q19,67.73,23.43,89.37a4,4,0,0,0,1.48,2.85,4,4,0,0,0,2.29.33l23.32-1.22"/><path class="cls-3" d="M65.21,33.71,67.78,39a1.46,1.46,0,0,0,.57.74c.51.27,1.12-.11,1.58-.47l2.73-2.16a1.24,1.24,0,0,0,.58-.81c0-.5-.51-.81-1-1l-7.44-3.15A2.57,2.57,0,0,0,65.21,33.71Z"/><path class="cls-3" d="M82.23,36.47A10.76,10.76,0,0,1,80,31.55a1.25,1.25,0,0,0-2.21-.34l.33,2.49A5.19,5.19,0,0,0,79.31,37C80.19,37.81,82,37.64,82.23,36.47Z"/><path class="cls-3" d="M88,31.59l-1.43-2.75a2,2,0,0,0-.78-.95C85,27.53,84.14,28.23,84,29a4.06,4.06,0,0,0,.55,2.33l1,2.15c.38.8,1,1.74,1.86,1.67a1.51,1.51,0,0,0,1.22-1.55A4.47,4.47,0,0,0,88,31.59Z"/><path d="M99.08,22.42,110.37,59c1,3.22,2,6.5,2,9.86s-1.22,6.9-3.89,8.94a16.59,16.59,0,0,1-5.95,2.45q-20.58,5.43-41.37,10c-3.45.75-7,1.49-10.47.82q25.93-5.88,51.65-12.66a13.16,13.16,0,0,0,5-2.09c2.09-1.67,3-4.47,3-7.15.07-3.2-.89-6.33-1.83-9.39q-5.58-18-11.15-36c-.71-2.29-3.14-3.7-5.53-3.94a18.84,18.84,0,0,0-7.06,1.1A549.73,549.73,0,0,1,26.86,34.19c-4.21.72-9.15,2-10.62,6a12.13,12.13,0,0,0-.17,5.72Q19,67.77,23.45,89.4a4.1,4.1,0,0,0,1.49,2.85,4,4,0,0,0,2.29.33l23.31-1.23a124.31,124.31,0,0,1-21.47,3c-2.42.13-5.33-.06-6.58-2.14a6.87,6.87,0,0,1-.73-2.3q-4.44-23.16-7.55-46.54C13.7,39.58,16.55,36,20,34.28s7.39-2,11.2-2.41C50.52,29.64,69,22.46,88.09,18.93a16.49,16.49,0,0,1,6.29-.29A6,6,0,0,1,99.08,22.42Z"/><path class="cls-4" d="M42.73,47.68a6.11,6.11,0,0,0-8,7.77c1,2.76,4.76,3.91,7.34,2.51a6.8,6.8,0,0,0,3-7.61,4.17,4.17,0,0,0-.74-1.58A4,4,0,0,0,42.73,47.68Z"/><path class="cls-4" d="M67.42,62.05a4,4,0,0,0,.6,2.56c1,1.37,3.18,1.18,4.73.45a10.6,10.6,0,0,0,3.35-2.43,1.85,1.85,0,0,0,.52-.88c.13-.76-.6-1.36-1.24-1.77a10.52,10.52,0,0,0-3.63-1.75,3.65,3.65,0,0,0-3.65,1.16A4.61,4.61,0,0,0,67.42,62.05Z"/><path d="M38.14,75.34l-2.89,5.27c-.32.58-1.33.17-1.43-.49a2.49,2.49,0,0,1,.73-1.79,19.77,19.77,0,0,0,2.66-4.4c1.3-3.21,1.13-6.8.94-10.25-.07-1.26-1.63-1.77-2.87-2s-2.8-.75-2.83-2A61.3,61.3,0,0,0,38.6,62c.39-1.35-1.3-2.23-2.5-2.95a7.2,7.2,0,0,1,4.53-13.34,7.42,7.42,0,0,1,6.31,6.52c.21,2.39-.13,5.21-2.15,6.5A28,28,0,0,1,41.37,60c-1.1.52-2.08,1.79-1.57,2.9s1.93,1.21,3.11,1.2L48.85,64c1.15,0,2.64.24,2.82,1.37a52.83,52.83,0,0,1-11.79-.12l-.42,5.13A4.61,4.61,0,0,0,42,74.52a13.63,13.63,0,0,0,4.88,1.38c.63.09.62,1.13.07,1.47a2.26,2.26,0,0,1-1.85,0,21.91,21.91,0,0,1-5.52-2.8c-.51-.35-1.11.27-1.4.81m4.59-27.66a6.1,6.1,0,0,0-8,7.76c1,2.76,4.76,3.91,7.34,2.51a6.78,6.78,0,0,0,3-7.6,4.22,4.22,0,0,0-.74-1.59A4,4,0,0,0,42.73,47.68Z"/><path d="M71.86,66.82a14.23,14.23,0,0,0-6.75,4.05c.94,1.7,4.2,1.46,4.45,3.38-1,.45-2-.26-2.94-.8s-2.3-.87-2.87,0a1.57,1.57,0,0,0,.45,1.94,4.62,4.62,0,0,0,2,.81l6.56,1.51c-.87,1.26-2.74,1.11-4.24.82-2.22-.44-4.76-1.11-5.7-3.16a8,8,0,0,1-6.58,2.71c-.77-.07-1.42.5-2.11.84s-1.78.25-1.94-.5c1.49-2.29,5.07-1.4,7.55-2.54,2-.91,3-3,4-4.93a2.22,2.22,0,0,0,.27-.81c0-.76-.66-1.33-1.28-1.78A7.36,7.36,0,0,1,60.37,66a2.9,2.9,0,0,1,.13-3.14l.74.17a9.53,9.53,0,0,0,1.27,3.63,3.25,3.25,0,0,0,3.32,1.5c1.25-.32,2-2,1.18-3a5.11,5.11,0,0,1,4-8.45c1.94.07,3.67,1.22,5.27,2.34a3.92,3.92,0,0,1,1.79,2c.28,1.13-.51,2.25-1.37,3.05a11.75,11.75,0,0,1-4.88,2.67M67.4,62.05A4,4,0,0,0,68,64.6c1,1.37,3.17,1.18,4.73.46a10.58,10.58,0,0,0,3.34-2.44,1.79,1.79,0,0,0,.53-.88c.13-.75-.6-1.35-1.24-1.77a10.89,10.89,0,0,0-3.63-1.75,3.63,3.63,0,0,0-3.65,1.17A4.53,4.53,0,0,0,67.4,62.05Z"/><path d="M68.41.58l-11.5,11Q66,10.38,75.2,9.5A134.28,134.28,0,0,0,89.7,7l15.2-3.18c2.06-.43,4.15.94,5.22,2.74a15.19,15.19,0,0,1,1.62,6q4.55,36.23,9.07,72.46a5.06,5.06,0,0,1-.13,2.65c-.7,1.69-2.85,2.12-4.67,2.36a139,139,0,0,0-28.92,7,76.83,76.83,0,0,1-13,3L11.37,110.93c-1.14.2-2.44.36-3.33-.37A4.12,4.12,0,0,1,7,107.64Q3.59,72.54.25,37.44c-.37-3.83-.64-8,1.57-11.18S8.14,21.92,11.91,21q18.32-4.43,36.9-7.61A56.58,56.58,0,0,1,37.38,4.57c-.69-.69-1.26-2.07-.35-2.43a43.61,43.61,0,0,0,11.2,9.12c1.91,1.09,4.52,2,6.13.46L66.35.56c.66-.62,2.16-.87,2.06,0M54.06,14.63c-14.73,2.29-29.5,4.6-43.82,8.71-3,.87-6.32,2.05-7.83,4.82-1.17,2.15-1,4.75-.73,7.19l6.93,71.93a2.23,2.23,0,0,0,.78,1.82,2.17,2.17,0,0,0,1.49.1q36.27-5.85,72.36-12.73c3.82-.73,7.76-1.51,11-3.69,6.47-4.37,15.26-2.51,22.69-4.91a3,3,0,0,0,2-1.42,3.16,3.16,0,0,0,.07-1.62Q114.33,48,109.67,11.2c-.22-1.75-.68-3.81-2.33-4.43a4.91,4.91,0,0,0-2.47,0L78.59,10.82l-9.3,1.44Z"/><path d="M80.85,30.33l2.48,6.12a1.89,1.89,0,0,1,.21,1.06c-.13.68-.91,1-1.58,1.19-1.36.39-3,.71-4-.31-.8-.84-.7-2.14-.82-3.29a7.4,7.4,0,0,0-1.86-4.17c-.29-.31.21-.74.61-.88l2.75-.95a2.05,2.05,0,0,1,1-.16c.62.13,1,.8,1.19,1.39m1.39,6.14A10.88,10.88,0,0,1,80,31.55a1.25,1.25,0,0,0-2.2-.35l.32,2.5A5.2,5.2,0,0,0,79.32,37C80.2,37.8,82,37.64,82.24,36.47Z"/><path d="M63.7,32c1.28-1.25,3.4-.63,5,.07l5,2.13a2.32,2.32,0,0,1,.9,3.06,6,6,0,0,1-2.53,2.42,8.8,8.8,0,0,0-2.78,2.19,1.24,1.24,0,0,1-1.67.12,3.63,3.63,0,0,1-1-1.54l-3.13-7.12a1.42,1.42,0,0,1-.17-.8A1.06,1.06,0,0,1,63.7,32m1.52,1.75L67.78,39a1.52,1.52,0,0,0,.57.74c.52.27,1.13-.11,1.58-.47l2.73-2.16a1.24,1.24,0,0,0,.58-.81c0-.5-.51-.81-1-1l-7.44-3.15A2.58,2.58,0,0,0,65.22,33.71Z"/><path d="M88.25,28.91,90,33.13a4.41,4.41,0,0,1,.36,1.26c.08,1.43-1.53,2.54-2.95,2.35a4.67,4.67,0,0,1-3.23-2.59,37.18,37.18,0,0,1-1.58-4,2.82,2.82,0,0,1,4.68-3,5.68,5.68,0,0,1,1,1.75M88,31.59l-1.42-2.75a2,2,0,0,0-.78-.95C85,27.53,84.14,28.23,84,29a3.91,3.91,0,0,0,.55,2.33l1,2.15c.37.8,1,1.74,1.85,1.67a1.52,1.52,0,0,0,1.23-1.55A4.37,4.37,0,0,0,88,31.59Z"/></g></g></g></svg>