<svg xmlns="http://www.w3.org/2000/svg" viewBox="0 0 142.01 148.5"><defs><style>.cls-1{fill:#fcee7d;}.cls-2{fill:#009245;}.cls-3{fill:#39b54a;}.cls-4{fill:#d6a27f;}.cls-5{fill:#211713;}.cls-6{fill:#5b412d;}.cls-7{fill:#b5b5b5;}</style></defs><title>Wrench</title><g id="Layer_2" data-name="Layer 2"><g id="Layer_1-2" data-name="Layer 1"><g id="Wrench"><path class="cls-1" d="M89.2,133c-.39.31-.34.92-.2,1.41a9.11,9.11,0,0,0,10.16,6.25,2.32,2.32,0,0,0,1.79-1.1,2,2,0,0,0-1-2.29,26.16,26.16,0,0,0-2.48-1.08,5.07,5.07,0,0,1-2.68-3.79c-.06-.54-.83-.57-1.35-.45l-3.67.82A1.26,1.26,0,0,0,89.2,133Z"/><path class="cls-1" d="M69.05,134.89a.88.88,0,0,0,.1.74c1,2,1.69,5.26.63,7-.69,1.15-1.76,2.7-.76,3.6a2.06,2.06,0,0,0,1.26.4,6.88,6.88,0,0,0,6.17-10.58,2.6,2.6,0,0,0-.81-.87,3.31,3.31,0,0,0-1.79-.3"/><path class="cls-2" d="M80.48,36.74c-.1,1,0,2.42,1.51,2.79a10.4,10.4,0,0,1-11.76.78c-.72-.44-1.57-1-2.32-.61a34.19,34.19,0,0,1-15.29,3.53c-1.78,0-2.44,2.41-2,4.14s1.35,3.52.71,5.17,1.09,3.54,2.91,3.73,3.54-.68,5.2-1.44,4.18-.69,4.12,1L62.82,76.6A3,3,0,0,0,63.44,79a3,3,0,0,0,2.15.5c6.79-.16,13.69-.34,20.15-2.41,1.33-.42,2.91-1.48,2.46-2.79A100.49,100.49,0,0,1,83.54,55c-.09-.68-.09-1.54.53-1.83a1.61,1.61,0,0,1,1.14,0L96.34,56.3a4,4,0,0,0,4.09-1.76,11.86,11.86,0,0,0,1.64-4.41,2.18,2.18,0,0,0-.18-1.91A36,36,0,0,0,82.54,36.69"/><path class="cls-3" d="M62.37,80.41c1-.07,2.05,2.93,1.83,3.87a293.11,293.11,0,0,1-13.82,44,3,3,0,0,0,1.46,3.43,8.84,8.84,0,0,0,3.91.91l8.4.61a2.87,2.87,0,0,0,2.22-.47l1.34-1.22c-.22,1.27,1.56,1.82,2.85,1.8a69,69,0,0,0,12-1.26,3.32,3.32,0,0,0,2-.88l1.12-2.39a3,3,0,0,0,2.71,2.47,8.58,8.58,0,0,0,3.88-.71l8.48-2.95c.91-.32,2-1.33,1.32-2l-.18-2.44a7.29,7.29,0,0,0,6.73,1.45c1.92-.7,3.39-2.94,2.6-4.82A144.13,144.13,0,0,0,93.5,89.25c-2.28-3-4.93-8.09-4.49-11.85"/><path class="cls-4" d="M140.52,72.66a7.28,7.28,0,0,0,.16-3.21,2.47,2.47,0,0,0-2.27-2,8.82,8.82,0,0,0-2.16.8c-1.74.58-3.57-.43-5.14-1.38a171,171,0,0,0-25.63-12.68c-1-.38-2.3-.63-2.81.27s.51,2,1.45,2.55c6.42,3.77,14.07,5.16,20.27,9.29,2.25,1.51,4.31,3.37,6.84,4.34a11.64,11.64,0,0,1,3.41,1.51c.73.61,1.21,1.47,1.88,2.15a2.44,2.44,0,0,0,2.57.82c.92-.39,1.23-1.51,1.43-2.49"/><path class="cls-4" d="M72.87,36.48a1.61,1.61,0,0,0-.78.19c-.48.3-.54,1-.55,1.53a2.39,2.39,0,0,0,.7,2.12,2.22,2.22,0,0,0,1.17.27,12.47,12.47,0,0,0,5.18-1c.33-.14.7-.35.77-.7a2.29,2.29,0,0,0-1.54-2.35,6.45,6.45,0,0,0-3-.21l-1.95.16"/><path class="cls-4" d="M15.62,57A3.86,3.86,0,0,0,17,59.42c1.68,1.17,3.87-.26,5.61-1.35,7.86-4.88,18.47-2.65,26.71-6.87.1-1.13-.32-2.75-1.42-2.51l-23.6,5c-1.87.4-4.07.71-5.48-.59a2,2,0,0,0-2.87.64,4.36,4.36,0,0,0-.3,3.26"/><path class="cls-5" d="M90,20.81c-.63-.44-1.55.21-1.64,1a3,3,0,0,0,.83,2.08,19,19,0,0,0,5.44,4.81,1.6,1.6,0,0,0,0-1.18A12.18,12.18,0,0,0,90,20.81Z"/><path class="cls-5" d="M53,27.85l-3,1.36c3.6,1,7.34-.67,10.71-2.28a3.42,3.42,0,0,0,1.47-1.06,3.51,3.51,0,0,0,.43-1.61l.2-2.15a2.3,2.3,0,0,0-.27-1.7c-.73-.93-2.25-.26-3,.64-1.28,1.54-1.91,3.59-3.37,5A11.17,11.17,0,0,1,53,27.85"/><path class="cls-5" d="M78.71,15.91c0-.69,1-1,1.61-.63a4.31,4.31,0,0,1,1.31,1.58,6.87,6.87,0,0,0,4.71,3l-1.21-4c1.18,0,2.12.92,2.94,1.76,2.64,2.7,6.33,5.43,9.85,4.06l-8.71-8.77A2.11,2.11,0,0,0,87.55,12c-.54.08-.92.55-1.38.85s-1.21.37-1.42-.14c.47-2.22,3.69-2.63,5.63-1.45s3.14,3.27,4.86,4.75,4.65,2.16,6.09.41a18.9,18.9,0,0,1-8.61-7.52c-2-3.29-7.45-3.63-9.84-.6C82,9.4,81.09,11,79.71,10.7A7.79,7.79,0,0,1,92.86,6.86,9.84,9.84,0,0,0,95.1,9c.92.47,2.3.25,2.61-.73-2.92-2.33-5.92-4.71-9.49-5.83s-7.86-.72-10.45,2c-1.47,1.52-4,.47-5.87-.5s-4.74-1.5-5.64.41a5.64,5.64,0,0,1,3.88,6.87"/><path class="cls-5" d="M70.14,11.14c-1.27-.47-1.34-2.21-2-3.42-1.19-2.38-4.76-2.55-7-1.08s-3.46,4-4.77,6.3-3,4.69-5.51,5.51a17.52,17.52,0,0,0,7.63-2.87c1.4-1,2.79-2.17,4.49-2.28s3.54,1.73,2.66,3.18A3.12,3.12,0,0,0,62.55,15a7.84,7.84,0,0,0-3.36,1.47,32.87,32.87,0,0,0-7.4,6.87c1.17,1.23,3.31.4,4.45-.86s1.95-2.93,3.49-3.65c1.94-.9,4.5,0,6.2-1.3,1.17-.89,1.47-2.49,2.14-3.8s2.32-2.47,3.52-1.62a14.37,14.37,0,0,0-4,6c3.35,1.28,6.13-4.49,9.62-3.64"/><path class="cls-6" d="M79.9,26.63a.75.75,0,0,0,0-1.3.76.76,0,0,0,0,1.31Z"/><path class="cls-7" d="M10.35,37.14a6,6,0,0,1-3,.44,2.72,2.72,0,0,1-2.24-1.86,9.45,9.45,0,0,1,.08-2.37c0-.8-.43-1.74-1.22-1.78a1.56,1.56,0,0,0-.73.19,3.68,3.68,0,0,0-1.84,3.18,6.79,6.79,0,0,0,1.11,3.64c.86,1.44,2.36,2.83,4,2.48.61-.12,1.27-.48,1.82-.17a1.65,1.65,0,0,1,.57.63l5.59,8.8c.64,1,2.16.81,3.31.47a1.46,1.46,0,0,0,.61-.3,1.28,1.28,0,0,0,.19-1.18c-.76-3.85-4.11-7.13-3.71-11a28,28,0,0,0,.58-3.61c-.11-2.78-2.84-4.63-5.26-6a1.35,1.35,0,0,0-.89-.26c-.31.06-.56.46-.36.7A11.05,11.05,0,0,1,11.56,36c0,.61-.64,1-1.21,1.19"/><path class="cls-7" d="M21.3,65a3.83,3.83,0,0,0,.46,1.12,1.39,1.39,0,0,0,1.65.27A2.74,2.74,0,0,0,24.6,65a5.69,5.69,0,0,0-.35-5.52,5.49,5.49,0,0,0-3.38,1.69,2.3,2.3,0,0,0-.65.74c-.45,1,.68,2,1.08,3"/><path class="cls-4" d="M77.15,14.44a17.22,17.22,0,0,1-11.23,6.18c-.48.06-.8.51-1,.94A9.34,9.34,0,0,0,67,32.31a11.17,11.17,0,0,0,11,2.11,13.92,13.92,0,0,0,8.15-8c.75-1.84.76-4.55-1.13-5.14a10.78,10.78,0,0,1-6.34-5.39c0-.69,1-1,1.61-.63"/><path d="M79.9,26.63a.76.76,0,0,0,0-1.3.76.76,0,0,0,0,1.3Z"/><path d="M98.45,130.43a3.54,3.54,0,0,0-1.65,1.15,1.24,1.24,0,0,0,.32,1.77,11.82,11.82,0,0,1,3.91,2.49,4,4,0,0,1,.89,4.31,4.49,4.49,0,0,1-3.15,2.08A9.38,9.38,0,0,1,88.17,136c-.32-1.08-.62-2.41-1.69-2.74a2.85,2.85,0,0,0-1.39,0l-4.09.76a5.1,5.1,0,0,0-2.45.91,1.78,1.78,0,0,0-.46,2.34c1.47,1.88,1.13,4.74-.27,6.69A12.28,12.28,0,0,1,72,148a5.33,5.33,0,0,1-3.48.38c-1.12-.38-2-1.79-1.33-2.81a14.68,14.68,0,0,0,2-9.9,6.08,6.08,0,0,1,.63,7c-.69,1.14-1.76,2.7-.75,3.59a2,2,0,0,0,1.25.4A6.87,6.87,0,0,0,76.45,136a2.6,2.6,0,0,0-.81-.87,3.3,3.3,0,0,0-1.79-.29,132.72,132.72,0,0,1-21.08-1.23,8.17,8.17,0,0,1-3.7-1.16,2.93,2.93,0,0,1-1.17-3.42A193.45,193.45,0,0,0,63.3,82c1-.06,1.12,1.35.91,2.29a292,292,0,0,1-13.83,44,3,3,0,0,0,1.47,3.43,8.81,8.81,0,0,0,3.91.91l8.39.61a2.89,2.89,0,0,0,2.23-.47,2.82,2.82,0,0,0,.63-1.85q1.33-14.13,2.66-28.28c1.37,9.6-.29,19.35-2,28.91-.22,1.27,1.56,1.82,2.85,1.8a68.9,68.9,0,0,0,12-1.26,3.35,3.35,0,0,0,2-.88,3.42,3.42,0,0,0,.34-2.85Q83,117.57,81.1,106.8c3.54,6.66,4.08,14.45,4.54,22a3,3,0,0,0,2.71,2.47,8.6,8.6,0,0,0,3.88-.71l8.48-2.95c.91-.32,2-1.33,1.32-2a56.65,56.65,0,0,1-14.17-22.42l9.45,14.47a21.25,21.25,0,0,0,4.54,5.51,7.29,7.29,0,0,0,6.73,1.45c1.92-.7,3.39-2.94,2.59-4.82A143.66,143.66,0,0,0,93.51,89.25c-2.29-3-4.83-6.4-4.38-10.17,4,8.76,10.74,15.91,15.76,24.12a134.43,134.43,0,0,1,8.66,17.87c.4.93.65,2.3-.28,2.72l-14.82,6.64m-9.26,2.49c-.39.31-.34.92-.2,1.41a9.12,9.12,0,0,0,10.16,6.26,2.34,2.34,0,0,0,1.79-1.1,2,2,0,0,0-1-2.3,26.16,26.16,0,0,0-2.48-1.08,5,5,0,0,1-2.68-3.79c-.06-.53-.83-.57-1.35-.45l-3.67.82A1.52,1.52,0,0,0,89.19,132.92Z"/><path d="M63.46,105a3.27,3.27,0,0,1,0,2.53,174.13,174.13,0,0,1-6.39,17.2l-2.16,5.22c-.17.41-.48.9-.92.82a10.39,10.39,0,0,1,.87-3.57l7.27-19.27A14.7,14.7,0,0,1,63.46,105Z"/><path d="M78.77,27.29c-.89-.9-1.22-2.52-.31-3.4a2,2,0,0,1,2.73.06,2.66,2.66,0,0,1,.56,2.8A1.85,1.85,0,0,1,80.52,28a2,2,0,0,1-1.75-.69m1.13-.66a.76.76,0,0,0,0-1.3.76.76,0,0,0,0,1.3Z"/><path d="M71.18,24.91a2.27,2.27,0,0,1,0,2,1.58,1.58,0,0,1-1.75.8,1.88,1.88,0,0,1-1.11-2c.1-1,1.12-2.09,2.06-1.67A1.61,1.61,0,0,1,71.18,24.91Z"/><path d="M72.85,31.06a.89.89,0,0,1,.77-.21,6.89,6.89,0,0,0,4.25-1.31A3.2,3.2,0,0,1,73.29,32C73,31.81,72.62,31.38,72.85,31.06Z"/><path d="M6.62,34.89a1.89,1.89,0,0,0,3.2.18c.74-1.31-.35-2.86-1.3-4.05s-1.73-3-.61-4,2.73-.13,3.89.7c2.61,1.88,5.54,4.45,5.06,7.64-.78,5.21,1.64,10.32,4,15A2.92,2.92,0,0,0,22.23,52a2.88,2.88,0,0,0,1.62,0l24.5-5.06a2.5,2.5,0,0,1,.45-3.33,6.73,6.73,0,0,1,3.41-1.37c6.14-1.13,13.11-1.43,17.36-6A11.82,11.82,0,0,1,62.26,28a26.49,26.49,0,0,1-7.81,3.09c-2.78.45-5.87-.1-7.84-2.11L54,25.79l-6.38-1.5,5.85-4.4a11.86,11.86,0,0,1-6.85-.37c3.47-1.59,6-4.61,8.39-7.62s4.66-6.16,7.87-8.23,7.59-2.82,10.8-.76c2.41,1.56,5.16-1.27,7.82-2.37C85.14-1,89.23,1,92.69,2.92l8,4.41c1,.56-.23,2.05-1.36,2.29s-2.73.88-2.32,2a13.54,13.54,0,0,0,7.86,3.84,11.87,11.87,0,0,1-6.25,3.44c-.13,1,1.07,1.53,2,1.93s1.84,1.57,1.1,2.23a1.61,1.61,0,0,1-1,.32l-5.62.56a7.24,7.24,0,0,0,4,5.6,9.88,9.88,0,0,1-10.7-3.7,11.84,11.84,0,0,1-4,6.49c-1.23,1-2.72,1.85-3.52,3.24s-.45,3.62,1.12,4a10.44,10.44,0,0,1-11.77.79c-.71-.44-1.56-1-2.32-.62a34.18,34.18,0,0,1-15.28,3.53c-1.78,0-2.44,2.42-2,4.14s1.35,3.52.71,5.17,1.09,3.54,2.9,3.74,3.55-.69,5.21-1.44,4.18-.69,4.12,1l-.72,20.75a2.27,2.27,0,0,0,2.77,2.91c6.79-.16,13.68-.34,20.15-2.41,1.33-.42,2.91-1.48,2.45-2.79A101,101,0,0,1,83.54,55c-.09-.67-.09-1.53.53-1.83a1.72,1.72,0,0,1,1.14,0l11.13,3.11a4,4,0,0,0,4.09-1.75,11.93,11.93,0,0,0,1.64-4.41,2.18,2.18,0,0,0-.18-1.91A36.27,36.27,0,0,0,82.32,36.79a10.12,10.12,0,0,1,6.32-.14,20,20,0,0,1,6.06,3.59l9.24,7a2.52,2.52,0,0,1,.9,1c.31.8-.27,1.7-.1,2.54s1.05,1.36,1.84,1.75l25.5,12.69a8.46,8.46,0,0,0,3.81,1.19c1.46,0,3-.8,4.32-.17s1.69,2.24,1.78,3.67c.18,2.9-1.13,6.64-4,6.61a6.32,6.32,0,0,1-3.5-1.6,107.08,107.08,0,0,0-25.34-14.06,89.66,89.66,0,0,0-22.19-5.3,1.17,1.17,0,0,0-1,.22,1.19,1.19,0,0,0-.15.93,107,107,0,0,0,4,18.81c.46,1.47-1.44,2.51-3,2.85a95.09,95.09,0,0,1-22.49,2.42,3.36,3.36,0,0,1-1.94-.41c-.95-.65-1-2-1-3.15q.18-8.82.35-17.66c0-1.81-2.09-2.93-3.91-2.89s-3.57.79-5.38.71S48.61,55.86,49,54.09q-11.93,1.62-23.73,4a13.75,13.75,0,0,1,1.25,5,4.72,4.72,0,0,1-2.4,4.32c-1.58.74-3.84-.16-4.06-1.89-.47-3.59-6.46-4.93-6-8.52a14.69,14.69,0,0,0-8.7-14.91,8.94,8.94,0,0,1-5.1-5.77c-.55-1.95-.28-4.31,1.28-5.6s4.48-.7,4.88,1.28c.19.92-.17,1.94.2,2.8M70.14,11.14c-1.27-.47-1.34-2.21-2-3.42-1.19-2.38-4.76-2.55-7-1.08s-3.46,4-4.77,6.29-3,4.7-5.51,5.52a17.52,17.52,0,0,0,7.63-2.87c1.4-1,2.79-2.17,4.49-2.29s3.54,1.73,2.66,3.19A3.12,3.12,0,0,0,62.55,15a7.72,7.72,0,0,0-3.36,1.47,32.87,32.87,0,0,0-7.4,6.87c1.17,1.23,3.31.4,4.45-.86s1.95-2.94,3.49-3.65c1.94-.9,4.5,0,6.2-1.3,1.17-.89,1.47-2.49,2.14-3.8s2.32-2.47,3.52-1.62a14.37,14.37,0,0,0-4,6c3.35,1.28,6.13-4.49,9.62-3.64a17.27,17.27,0,0,1-11.24,6.18c-.48.06-.8.51-1,.94A9.34,9.34,0,0,0,67,32.3a11.17,11.17,0,0,0,11,2.11,14,14,0,0,0,8.15-8c.75-1.84.76-4.55-1.13-5.14a10.78,10.78,0,0,1-6.34-5.39c0-.69,1-1,1.61-.63a4.23,4.23,0,0,1,1.31,1.58,6.91,6.91,0,0,0,4.71,3l-1.21-4c1.18,0,2.12.93,2.94,1.77,2.64,2.7,6.33,5.42,9.85,4.06l-8.71-8.78A2.1,2.1,0,0,0,87.55,12c-.54.07-.92.54-1.38.85s-1.21.37-1.42-.14c.47-2.22,3.69-2.63,5.63-1.45s3.14,3.27,4.86,4.75,4.65,2.15,6.09.4a18.88,18.88,0,0,1-8.61-7.51c-2-3.3-7.45-3.63-9.84-.6C82,9.39,81.09,11,79.71,10.7A7.79,7.79,0,0,1,92.86,6.85,9.94,9.94,0,0,0,95.11,9c.91.47,2.3.25,2.6-.73-2.92-2.33-5.92-4.71-9.49-5.83s-7.86-.72-10.45,2c-1.47,1.52-4,.47-5.87-.51s-4.74-1.5-5.64.42a5.63,5.63,0,0,1,3.88,6.87m70.37,61.52a7.14,7.14,0,0,0,.16-3.21,2.46,2.46,0,0,0-2.27-2,8.36,8.36,0,0,0-2.15.8c-1.74.58-3.57-.43-5.15-1.38a170.91,170.91,0,0,0-25.62-12.68c-1-.38-2.3-.63-2.81.27s.5,2,1.44,2.55c6.42,3.77,14.08,5.16,20.27,9.29,2.26,1.5,4.32,3.37,6.85,4.34a11.58,11.58,0,0,1,3.4,1.51,25.94,25.94,0,0,1,1.89,2.15,2.48,2.48,0,0,0,2.57.82c.91-.4,1.22-1.51,1.42-2.49M10.36,37.11a5.92,5.92,0,0,1-3,.44A2.72,2.72,0,0,1,5.1,35.69a9.45,9.45,0,0,1,.08-2.37c0-.8-.43-1.74-1.22-1.78a1.6,1.6,0,0,0-.74.19,3.7,3.7,0,0,0-1.83,3.18,6.87,6.87,0,0,0,1.1,3.64c.87,1.45,2.37,2.83,4,2.49.61-.13,1.27-.49,1.82-.18a1.73,1.73,0,0,1,.57.63l5.59,8.81c.64,1,2.16.8,3.31.46a1.25,1.25,0,0,0,.61-.3,1.28,1.28,0,0,0,.19-1.18c-.76-3.85-4.12-7.13-3.71-11a26.69,26.69,0,0,0,.57-3.62c-.1-2.78-2.83-4.63-5.25-6a1.47,1.47,0,0,0-.89-.26c-.31.06-.56.46-.36.7a11.05,11.05,0,0,1,2.61,6.85c0,.61-.64,1-1.21,1.19M15.64,57A3.84,3.84,0,0,0,17,59.41c1.68,1.17,3.87-.26,5.61-1.34,7.87-4.89,18.47-2.66,26.71-6.88.1-1.12-.31-2.74-1.41-2.51l-23.61,5c-1.87.4-4.07.71-5.47-.58a2,2,0,0,0-2.88.64A4.4,4.4,0,0,0,15.64,57M53,27.87l-3,1.37c3.6,1,7.34-.68,10.71-2.29a3.49,3.49,0,0,0,1.47-1.05,3.59,3.59,0,0,0,.43-1.62l.2-2.15a2.3,2.3,0,0,0-.27-1.7c-.73-.93-2.25-.26-3,.65-1.28,1.53-1.91,3.58-3.37,5A11.17,11.17,0,0,1,53,27.87m19.87,8.6a1.74,1.74,0,0,0-.78.2,1.72,1.72,0,0,0-.54,1.53,2.43,2.43,0,0,0,.69,2.12,2.24,2.24,0,0,0,1.17.27,12.68,12.68,0,0,0,5.19-1c.33-.15.69-.35.76-.7a2.26,2.26,0,0,0-1.53-2.35,6.64,6.64,0,0,0-3-.22l-2,.16M21.25,64.93a4,4,0,0,0,.47,1.13,1.37,1.37,0,0,0,1.65.26A2.77,2.77,0,0,0,24.55,65a5.69,5.69,0,0,0-.35-5.52,5.49,5.49,0,0,0-3.38,1.69,2.34,2.34,0,0,0-.65.75c-.45,1,.68,2,1.08,3M90,20.81c-.62-.44-1.55.22-1.64,1a3,3,0,0,0,.83,2.08,19.3,19.3,0,0,0,5.45,4.81,1.55,1.55,0,0,0,0-1.18A12.15,12.15,0,0,0,90,20.81Z"/></g></g></g></svg>